<?xml version="1.0" standalone="no"?>
<!DOCTYPE svg PUBLIC "-//W3C//DTD SVG 1.1//EN" "http://www.w3.org/Graphics/SVG/1.1/DTD/svg11.dtd" >
<svg>
<metadata>
Created by FontForge 20120731 at Fri Sep 26 11:00:41 2014
 By World Wide Web Server
Copyright Copr. 1994 Carter &#38; Cone Type Inc. All rights reserved.
</metadata>
<defs>
<font id="Miller-DisplayItalic" horiz-adv-x="500" >
  <font-face 
    font-family="Miller"
    font-weight="500"
    font-style="italic"
    font-stretch="normal"
    units-per-em="1000"
    panose-1="2 0 6 3 8 0 0 2 0 3"
    ascent="800"
    descent="-200"
    x-height="459"
    cap-height="683"
    bbox="-228 -239 1162 933"
    underline-thickness="20"
    underline-position="-113"
    slope="-12"
    unicode-range="U+0005-2122"
  />
<missing-glyph 
 />
    <glyph glyph-name=".notdef" 
 />
    <glyph glyph-name="NUL" horiz-adv-x="0" 
 />
    <glyph glyph-name="nonmarkingreturn" horiz-adv-x="229" 
 />
    <glyph glyph-name="space" unicode=" " horiz-adv-x="229" 
 />
    <glyph glyph-name="space" unicode="&#xa0;" horiz-adv-x="229" 
 />
    <glyph glyph-name="breve" 
d="M523 720q-27 -52 -53.5 -86.5t-52 -55.5t-49.5 -30t-44 -9t-39.5 9t-34.5 30t-24.5 55.5t-10.5 86.5l19 6q11 -51 36 -81t71 -30t86.5 30t76.5 81l19 -6v0z" />
    <glyph glyph-name="dotaccent" 
d="M415 659q0 -25 -17 -43t-42 -18q-24 0 -41 17t-17 40q0 24 17 41.5t41 17.5q26 0 42.5 -16.5t16.5 -38.5z" />
    <glyph glyph-name="ring" 
d="M407 638q0 30 -16 48t-42 18q-29 0 -46.5 -25t-17.5 -59q0 -30 16 -48t42 -18q15 0 27 7.5t20.5 19.5t12.5 27t4 30zM451 629q0 -21 -7.5 -39t-21 -31.5t-32.5 -21t-41 -7.5q-46 0 -77 27t-31 71q0 41 28.5 70.5t75.5 29.5q22 0 41.5 -7.5t34 -21t22.5 -31.5t8 -39z" />
    <glyph glyph-name="hungarumlaut" unicode="&#xa;" 
d="M360 713q0 -20 -14.5 -36t-35.5 -30q-14 -9 -29.5 -19t-35 -23t-45.5 -30t-61 -41l-9 12q26 29 44.5 50.5t33.5 38.5t27 31.5t24 29.5q20 24 35.5 35t35.5 11q14 0 22 -9t8 -20zM541 713q0 -20 -14.5 -36t-35.5 -30q-14 -9 -29.5 -19t-35 -23t-45.5 -30t-61 -41l-9 12
q26 29 44.5 50.5t33.5 38.5t27 31.5t24 29.5q20 24 35.5 35t35.5 11q14 0 22 -9t8 -20z" />
    <glyph glyph-name="ogonek" 
d="M229 0q-33 -27 -55.5 -48t-35.5 -38t-18.5 -31.5t-5.5 -27.5q0 -12 3.5 -21.5t14 -16t29.5 -11t51 -7.5l-6 -25q-91 1 -131.5 18.5t-40.5 52.5q0 38 39 76.5t124 78.5h32v0z" />
    <glyph glyph-name="caron" 
d="M529 732q-54 -58 -92.5 -100t-64.5 -71q-13 -14 -20.5 -18t-29.5 -4q-19 0 -24.5 3.5t-10.5 16.5q-12 27 -29.5 71.5t-42.5 103.5l15 8l105 -135l183 135l11 -10v0z" />
    <glyph glyph-name="dotlessi" unicode="&#xd;" horiz-adv-x="334" 
d="M315 140q-14 -33 -28 -61t-30.5 -48t-37 -31t-46.5 -11q-16 0 -34.5 3.5t-34 12.5t-25.5 24t-10 38q0 18 5 37.5t15 45.5l67 170q8 21 15.5 45.5t7.5 33.5q0 22 -9.5 30t-23.5 8q-35 0 -59 -35.5t-49 -99.5l-19 7q13 33 27 61t30.5 48t37 31.5t47.5 11.5q16 0 33.5 -5
t32.5 -15.5t24.5 -26.5t9.5 -38q0 -9 -3 -21.5t-8 -26.5t-10.5 -28t-9.5 -25l-57 -147q-11 -26 -17 -47t-6 -32q0 -24 11 -29.5t25 -5.5q36 0 61 34t50 98l18 -6v0z" />
    <glyph glyph-name="fraction" horiz-adv-x="340" 
d="M-170 -212l-40 26l684 938l40 -27z" />
    <glyph glyph-name="fi" horiz-adv-x="579" 
d="M569 656q0 -6 -3 -15.5t-10 -18.5t-17 -15.5t-25 -6.5q-8 0 -18 2.5t-19 8.5t-15 15t-6 23q0 11 9.5 26.5t11.5 31.5q-5 11 -12 13.5t-16 2.5q-54 0 -100 -48t-78 -160l-20 -69h272q-1 -11 -5 -29t-10.5 -41t-15 -49t-18.5 -52l-56 -147q-11 -26 -17 -46.5t-6 -31.5
q0 -24 11.5 -30t25.5 -6q36 0 61 34t50 98l18 -6q-14 -33 -28 -61t-30.5 -48t-37 -31t-46.5 -11q-16 0 -34.5 3.5t-34 12.5t-26 24t-10.5 38q0 18 5 37.5t15 45.5l63 170q11 29 17 49.5t8 45.5h-180q-12 -46 -25 -97.5t-26.5 -103t-26.5 -100.5t-26 -90q-18 -58 -46.5 -111
t-74.5 -91q-39 -33 -71 -45.5t-69 -12.5q-30 0 -49 7t-30.5 18t-16 25t-4.5 29q0 19 13.5 36t38.5 17q8 0 17.5 -2.5t18 -8t14 -15t5.5 -23.5q0 -11 -6 -22t-15 -24q2 -10 7.5 -14t10.5 -4q55 0 92 51.5t71 161.5q37 121 63.5 229t46.5 187h-106l10 33h106l12 40
q18 60 48.5 110.5t82.5 92.5q39 32 77.5 43.5t77.5 11.5q28 0 48.5 -8t33.5 -20.5t19 -28t6 -30.5z" />
    <glyph glyph-name="fl" horiz-adv-x="596" 
d="M436 126q-8 -23 -13.5 -44t-5.5 -32q0 -24 11 -30t25 -6q36 0 61.5 34t50.5 98l18 -6q-14 -33 -28 -61t-30.5 -48t-37 -31t-47.5 -11q-16 0 -34 3.5t-33.5 12t-25.5 23.5t-10 38q0 18 5 39.5t13 44.5l156 493q-8 2 -13.5 5t-9 9.5t-4.5 17t-1 28.5q-5 11 -20.5 15.5
t-24.5 4.5q-51 0 -93.5 -50.5t-73.5 -157.5l-20 -70h126l-11 -33h-124q-12 -46 -25 -97t-26.5 -102t-26.5 -99.5t-26 -89.5q-18 -58 -46.5 -111t-74.5 -91q-39 -33 -71 -45.5t-69 -12.5q-30 0 -49 7t-30.5 18t-16 25t-4.5 29q0 19 13.5 36t38.5 17q8 0 17.5 -2.5t17.5 -8
t13.5 -15t5.5 -23.5q0 -13 -5.5 -23t-14.5 -23q0 -10 6.5 -14t11.5 -4q55 0 92 51.5t71 161.5q37 121 63.5 229t46.5 187h-106l10 33h106l12 40q10 33 21.5 60.5t26 52.5t33.5 47t44 43q38 32 75 43.5t75 11.5q26 0 47.5 -8.5t33.5 -19.5l100 23z" />
    <glyph glyph-name="Lslash" horiz-adv-x="629" 
d="M530 0h-572l7 21q5 0 16.5 1t24.5 2.5t25 4t18 4.5q19 7 28.5 20t14.5 30l60 218l-99 -33l-7 26l115 38l72 261q2 7 3 13t1 11q0 10 -4.5 16t-15.5 11q-6 3 -16 5.5t-21 5t-21 4.5t-17 2l7 22h313l-6 -22q-7 0 -17.5 -1.5t-21.5 -3t-21.5 -3.5t-17.5 -4q-20 -6 -29.5 -20
t-14.5 -30l-65 -231l175 58l6 -27l-189 -62l-61 -218q-8 -29 -9.5 -47t8.5 -27.5t32.5 -13t63.5 -3.5q22 0 45.5 1t45.5 4t39 7.5t26 11.5q15 11 32 28t34 36.5t31.5 40t24.5 37.5h24z" />
    <glyph glyph-name="lslash" horiz-adv-x="294" 
d="M206 351l85 28l6 -25l-101 -33l-62 -195q-8 -23 -13.5 -44t-5.5 -32q0 -24 10.5 -30t24.5 -6q36 0 61.5 34t50.5 98l18 -6q-14 -33 -28 -61t-30.5 -48t-37 -31t-47.5 -11q-16 0 -34 3.5t-33 12t-25 23.5t-10 38q0 18 5.5 39.5t12.5 44.5l44 138l-75 -24l-6 24l90 30
l92 291q8 26 11 41.5t3 25.5q0 17 -11.5 23.5t-28.5 8.5q-19 2 -30.5 2.5t-29.5 1.5v20l219 10z" />
    <glyph glyph-name="Zcaron" horiz-adv-x="596" 
d="M683 671l-613 -644h181q22 0 46.5 1t46 4t39.5 8t28 13q19 15 39 34.5t37.5 40.5t32.5 41t25 36h24l-73 -205h-563l3 12l613 644h-160q-26 0 -48.5 -1t-38.5 -4q-21 -4 -45.5 -21t-48 -40t-43.5 -47.5t-32 -43.5h-24l68 184h510zM627 923q-54 -58 -92.5 -100t-64.5 -71
q-13 -14 -20.5 -18t-29.5 -4q-19 0 -24.5 3.5t-10.5 16.5q-12 27 -29.5 71.5t-42.5 103.5l15 8l105 -135l183 135l11 -10v0z" />
    <glyph glyph-name="zcaron" horiz-adv-x="418" 
d="M449 430q0 -9 -2 -17t-8.5 -17.5t-18 -20.5t-29.5 -26t-53 -42.5t-78 -62t-90.5 -71.5t-90.5 -71l1 -6q22 -3 42 -8.5t39 -11t37.5 -9.5t38.5 -4q38 0 65 8.5t27 34.5q0 27 -10 36t-30 13l6 18q24 -5 39.5 -15t24.5 -23t12.5 -28.5t3.5 -31.5q0 -17 -8.5 -32.5t-23 -27.5
t-32.5 -19.5t-36 -7.5q-21 0 -48 14t-56 30.5t-57 30.5t-50 14q-10 -3 -14 -7.5t-5.5 -11t-1 -14.5t0.5 -18q0 -39 -42 -39q-9 0 -19 8.5t-10 25.5t16 35t40 38l57.5 47.5t76 62.5t89 70.5t97.5 71.5l-2 5q-28 1 -52.5 6t-45.5 10t-39.5 9.5t-33.5 4.5q-32 0 -49 -7.5
t-17 -32.5t17 -37t39 -19l-9 -16q-15 5 -32 12.5t-32 19t-25 27t-10 36.5q0 18 7.5 35.5t20 30.5t29.5 21t36 8q31 0 55.5 -14t46.5 -30.5t44 -30.5t47 -14q15 0 22.5 3.5t10.5 9.5t3 14v18q0 20 7.5 32.5t24.5 12.5q15 0 26 -6t11 -24zM488 732q-54 -58 -92.5 -100
t-64.5 -71q-13 -14 -20.5 -18t-29.5 -4q-19 0 -24.5 3.5t-10.5 16.5q-12 27 -29.5 71.5t-42.5 103.5l15 8l105 -135l183 135l11 -10v0z" />
    <glyph glyph-name="exclam" unicode="!" horiz-adv-x="365" 
d="M196 52q0 -26 -18 -43.5t-44 -17.5t-44 17.5t-18 43.5t18 44t44 18t44 -18t18 -44zM346 641q0 -16 -13 -51t-35.5 -89t-52 -127.5t-62.5 -164.5l-24 5q13 71 23 138.5t17.5 123.5t13 96.5t9.5 56.5q8 29 26.5 48.5t46.5 19.5q24 0 37.5 -15t13.5 -41z" />
    <glyph glyph-name="quotedbl" unicode="&#x22;" horiz-adv-x="392" 
d="M238 685q0 -10 -6.5 -26t-18.5 -41t-29 -61t-38 -85h-20q5 71 5 123v72q0 70 53 70q26 0 40 -15t14 -37zM433 685q0 -10 -6.5 -26t-18.5 -41t-29 -61t-38 -85h-20q5 71 5 123v72q0 70 53 70q26 0 40 -15t14 -37z" />
    <glyph glyph-name="numbersign" unicode="#" horiz-adv-x="560" 
d="M250 354l-25 -101l124 29l25 101zM519 417l-119 -28l-25 -101l118 28l-23 -94l-119 -28l-50 -201h-24l49 195l-125 -29l-41 -166h-24l40 160l-118 -28l23 94l118 28l25 101l-118 -28l24 94l118 28l46 185h24l-45 -179l125 29l37 150h24l-36 -144l119 28z" />
    <glyph glyph-name="dollar" unicode="$" horiz-adv-x="615" 
d="M357 258q-19 5 -36 8t-34 7l-61 -246q12 -2 25.5 -3t29.5 -1h18l58 235v0zM451 158q0 39 -19.5 62.5t-53.5 33.5l-56 -228q61 10 95 44t34 88zM344 589q-59 -8 -89 -41t-30 -85q0 -30 16 -55t49 -36l54 217v0zM439 586q-14 2 -29.5 3.5t-33.5 1.5h-9l-56 -224
q20 -5 35 -8t35 -8l58 235v0zM585 499q0 -16 -4.5 -31.5t-13 -27.5t-20 -19.5t-24.5 -7.5q-20 0 -32.5 10t-12.5 27q0 16 6 26.5t14.5 18t18 15t15.5 18.5q-1 17 -19.5 31.5t-52.5 22.5l-59 -236q66 -17 99 -49.5t33 -83.5q0 -45 -16.5 -82t-45.5 -64t-69 -44t-86 -22
l-36 -143h-22l35 141h-15q-15 0 -29.5 1t-28.5 3l-36 -145h-22l37 149q-66 14 -105 49t-39 80q0 18 6 35t16 29.5t24 20.5t30 8q21 0 33 -11.5t12 -31.5q0 -16 -5 -25t-12.5 -15.5t-16.5 -12.5t-16 -15q-8 -31 11.5 -54t67.5 -34l61 247q-60 14 -92.5 51.5t-32.5 88.5
q0 36 14.5 69.5t41.5 59.5t66 43.5t87 22.5l25 101h22l-25 -99h12q16 0 31 -1.5t30 -3.5l26 104h22l-27 -109q51 -13 85 -39.5t34 -65.5z" />
    <glyph glyph-name="percent" unicode="%" horiz-adv-x="820" 
d="M336 516q0 38 -14.5 58.5t-44.5 20.5q-26 0 -48 -18t-38.5 -46t-26 -62.5t-9.5 -66.5q0 -33 13.5 -55t46.5 -22q23 0 44.5 15.5t38.5 41.5t27.5 60.5t10.5 73.5zM694 203q0 38 -14.5 58.5t-44.5 20.5q-26 0 -48 -18t-38.5 -46t-26 -62.5t-9.5 -66.5q0 -33 13.5 -55
t46.5 -22q23 0 44.5 15.5t38.5 41.5t27.5 60.5t10.5 73.5zM412 494q0 -42 -18 -78t-47 -61.5t-64.5 -40t-70.5 -14.5q-27 0 -51.5 8.5t-42.5 24.5t-28.5 39t-10.5 51q0 38 16.5 73.5t44.5 62.5t63.5 43.5t73.5 16.5q29 0 53.5 -9t42.5 -25t28.5 -39.5t10.5 -51.5zM100 -98
l-25 18l664 770l27 -18zM770 181q0 -42 -18 -78t-47 -61.5t-64.5 -40t-70.5 -14.5q-27 0 -51.5 8.5t-42.5 24.5t-28.5 39t-10.5 51q0 38 16.5 73.5t44.5 62.5t63.5 43.5t73.5 16.5q29 0 53.5 -9t42.5 -25t28.5 -39.5t10.5 -51.5z" />
    <glyph glyph-name="ampersand" unicode="&#x26;" horiz-adv-x="850" 
d="M847 575q0 -58 -43 -91t-118 -33q20 -9 37 -20.5t29.5 -30t19.5 -45t7 -63.5q0 -45 -21 -99t-68 -100.5t-123.5 -78t-187.5 -31.5q-62 0 -117 17.5t-95.5 48t-64 72t-23.5 89.5q0 32 9 55t24 39.5t34 29t39 23.5q-13 9 -25.5 20t-22 26t-15.5 34t-6 44q0 22 11.5 46
t31 44t46.5 32.5t59 12.5q69 0 112 -34.5t57 -88.5l-16 -8q-25 39 -50 58.5t-66 19.5q-49 0 -79.5 -32.5t-30.5 -83.5q0 -23 2.5 -43.5t19.5 -34.5q20 7 39.5 13t40.5 6q29 0 46 -12t17 -31q0 -15 -10.5 -26.5t-33.5 -11.5q-34 0 -59 12t-48 26q-4 -2 -13.5 -7t-19 -15
t-17 -26t-7.5 -39q0 -37 21 -72.5t61.5 -63t98.5 -44.5t133 -17q68 0 120.5 20.5t88 53.5t54 75.5t18.5 86.5q0 43 -12.5 73t-32.5 49t-46 27.5t-54 8.5q-21 0 -40 -6t-33.5 -17t-23.5 -27.5t-9 -37.5q0 -47 22.5 -67t54.5 -20q17 0 25.5 3.5t20.5 11.5q-10 4 -20.5 8
t-18.5 10t-13.5 14.5t-5.5 21.5q0 14 5 23t12 14.5t15 7.5t14 2q10 0 21.5 -2.5t21 -9t15.5 -18t6 -29.5q0 -14 -5.5 -28.5t-16.5 -26t-27 -19t-37 -7.5q-22 0 -44 8t-40 23.5t-29.5 38t-11.5 52.5q0 39 16.5 65t41.5 41t54 21t55 6q10 0 24.5 -1t30 -1.5t29.5 -1.5t22 -1
q20 0 36 7t27 18.5t16.5 25t5.5 25.5q0 45 -21 60t-49 15q-21 0 -26.5 -6.5t-5.5 -14.5q3 -3 9 -6t12.5 -7t11.5 -10.5t5 -17.5q0 -23 -13 -33t-30 -10q-20 0 -37.5 13t-17.5 45q0 24 23.5 45.5t65.5 21.5q43 0 74.5 -26.5t31.5 -75.5z" />
    <glyph glyph-name="quotesingle" unicode="'" horiz-adv-x="196" 
d="M238 685q0 -10 -6.5 -26t-18.5 -41t-29 -61t-38 -85h-20q5 71 5 123v72q0 70 53 70q26 0 40 -15t14 -37z" />
    <glyph glyph-name="parenleft" unicode="(" horiz-adv-x="365" 
d="M416 711q-165 -116 -242.5 -243t-77.5 -275q0 -55 10.5 -101t29 -84.5t44.5 -71.5t57 -63l-38 -33q-35 31 -65 68t-52 79.5t-34.5 91.5t-12.5 106q0 169 89.5 308t263.5 255l28 -37v0z" />
    <glyph glyph-name="parenright" unicode=")" horiz-adv-x="365" 
d="M343 403q0 -169 -89.5 -308t-263.5 -255l-28 37q165 116 242.5 243t77.5 275q0 55 -10.5 101t-29 84.5t-44.5 71.5t-57 63l38 33q35 -32 65 -68.5t52 -79t34.5 -91.5t12.5 -106z" />
    <glyph glyph-name="asterisk" unicode="*" horiz-adv-x="363" 
d="M402 582q0 -26 -37 -26q-16 0 -40 -1.5t-59 -7.5q25 -20 45 -32t34 -20.5t21 -14.5t7 -14q0 -14 -10 -22.5t-19 -8.5q-8 0 -14.5 7t-15 19.5t-21 31t-33.5 42.5q-7 -44 -5.5 -72.5t-1.5 -40.5q-2 -9 -9 -15t-16 -6q-14 0 -21.5 7.5t-7.5 18.5q0 8 4 17t11 21.5t16 30
t18 42.5q-49 -17 -75.5 -33.5t-39.5 -16.5q-9 0 -16 8t-7 22t8.5 19t24.5 5q6 0 36 1t68 8q-26 21 -46.5 33t-34.5 20t-21 14t-7 14t7 19t23 11q8 0 15 -7.5t16 -21t21.5 -31.5t32.5 -39q5 42 4 70.5t3 42.5q5 21 24 21q13 0 21.5 -6.5t8.5 -19.5q0 -8 -4.5 -17t-12 -22
t-16 -31t-16.5 -42q49 20 74 36t39 16q9 0 16.5 -9t7.5 -20z" />
    <glyph glyph-name="plus" unicode="+" horiz-adv-x="580" 
d="M332 237v-218h-48v218h-217v46h217v218h48v-218h217v-46h-217z" />
    <glyph glyph-name="comma" unicode="," horiz-adv-x="242" 
d="M131 45q0 -37 -15 -69t-38.5 -58t-52.5 -46t-57 -34l-7 22q45 24 79 61.5t39 80.5h-23q-32 0 -47.5 14t-15.5 38t19.5 45t50.5 21q68 0 68 -75z" />
    <glyph glyph-name="hyphen" unicode="-" horiz-adv-x="350" 
d="M300 206h-271l20 73h271z" />
    <glyph glyph-name="period" unicode="." horiz-adv-x="242" 
d="M126 55q0 -27 -19 -45.5t-46 -18.5t-46 18.5t-19 45.5t19 46t46 19t46 -19t19 -46z" />
    <glyph glyph-name="slash" unicode="/" horiz-adv-x="420" 
d="M-77 -218l-41 24l591 941l42 -24z" />
    <glyph glyph-name="zero" unicode="0" horiz-adv-x="614" 
d="M494 440q0 33 -6.5 61.5t-19.5 49.5t-33 33t-47 12q-47 0 -90 -38.5t-76 -100t-52.5 -139.5t-19.5 -156q0 -68 27 -110t77 -42q32 0 62.5 18.5t57 50.5t49 74.5t38 90.5t24.5 98t9 98zM593 388q0 -79 -27 -152t-72 -128.5t-104.5 -88.5t-124.5 -33q-53 0 -93 17.5t-67 48
t-40.5 72t-13.5 90.5q0 80 27 153.5t73 129.5t105 89.5t124 33.5q46 0 85 -14.5t67.5 -43.5t44.5 -72.5t16 -101.5z" />
    <glyph glyph-name="one" unicode="1" horiz-adv-x="427" 
d="M392 619q-14 -32 -29.5 -74t-24.5 -76l-108 -385q-3 -12 -3 -20q0 -11 5 -17t16 -11q4 -2 12.5 -4.5t18.5 -4.5t20.5 -4t17.5 -2l-5 -21h-302l5 21q6 0 16.5 1t21.5 2.5t21 3t16 3.5q20 7 29 20t14 29l125 451q-8 -2 -15.5 -3t-21.5 -1q-24 0 -50.5 13.5t-54.5 45.5
l13 14q20 -10 44 -16.5t54 -6.5q21 0 43 4t42 10.5t37 14t30 13.5h13v0z" />
    <glyph glyph-name="two" unicode="2" horiz-adv-x="577" 
d="M553 483q0 -53 -25.5 -100.5t-75.5 -92.5t-123 -90t-169 -94l-33 -25h237q38 0 70.5 25.5t62.5 70.5l17 -6l-92 -171h-415l5 25q52 34 91.5 62t72.5 53t62 49t60 51q81 71 118.5 134.5t37.5 122.5q0 43 -24 71t-75 28q-37 0 -71 -17t-59.5 -42.5t-41 -56t-15.5 -57.5
q0 -66 58 -66q28 0 47 13.5t42 33.5l9 -12q-32 -35 -66 -54t-76 -19q-40 0 -67.5 21t-27.5 66q0 35 22.5 72.5t61 69t90 52t109.5 20.5q82 0 132.5 -36.5t50.5 -100.5z" />
    <glyph glyph-name="three" unicode="3" horiz-adv-x="565" 
d="M564 495q0 -27 -13 -52.5t-38.5 -46.5t-62.5 -36.5t-84 -22.5l-21 -13h17q28 0 54.5 -7t46.5 -20.5t32 -34.5t12 -48q0 -54 -24 -98.5t-66 -76t-97.5 -48.5t-118.5 -17q-36 0 -71.5 7t-64 22.5t-46 40t-17.5 58.5q0 21 6.5 39.5t18.5 32.5t28.5 22.5t36.5 8.5
q23 0 35.5 -11t12.5 -28q0 -27 -10.5 -36t-22.5 -15t-22.5 -14.5t-10.5 -33.5q0 -30 31 -48t76 -18q41 0 81 19t72 51.5t52 74.5t20 88q0 32 -20 50t-52 18q-28 0 -53.5 -16.5t-54.5 -36.5l-15 26q64 32 112 60t80 56t48 57.5t16 65.5q0 44 -24 63t-65 19q-23 0 -50.5 -9.5
t-51.5 -26.5t-40.5 -40.5t-16.5 -52.5q0 -25 13 -35.5t28 -10.5q35 0 66 27l10 -13q-29 -26 -61 -42.5t-55 -16.5q-36 0 -59.5 18.5t-23.5 53.5q0 31 23 61.5t60 55t84.5 40t95.5 15.5q41 0 71.5 -10.5t51 -28t31 -40t10.5 -46.5z" />
    <glyph glyph-name="four" unicode="4" horiz-adv-x="526" 
d="M506 106q-27 -40 -67.5 -63t-80.5 -32l-66 -188h-87l63 184q-20 3 -41 10t-44 13.5t-48.5 11.5t-53.5 5q-8 0 -15 -0.5t-15 -1.5q-8 -7 -18.5 -14.5t-21 -14t-20 -11t-15.5 -4.5q-15 0 -28.5 7t-13.5 24q0 10 5.5 16.5t13.5 10.5t17.5 5.5t17.5 1.5h27t30 -1q35 31 69 86
t66.5 127.5t62.5 159.5t58 182h111q-28 -86 -64 -169t-79.5 -156.5t-94 -133.5t-107.5 -99q19 2 36 4t33 2q48 0 82 -7t65 -10l88 244h90l-89 -242q35 5 65.5 18.5t56.5 45.5l12 -11v0z" />
    <glyph glyph-name="five" unicode="5" horiz-adv-x="523" 
d="M579 620q-33 -45 -76.5 -70t-85.5 -37.5t-77.5 -15.5t-51.5 -3q-18 0 -36.5 0.5t-23.5 1.5l-69 -153q29 17 60 23.5t65 6.5q39 0 72 -11t58 -31t39 -49t14 -65q0 -46 -20.5 -88t-57.5 -73.5t-90 -50.5t-117 -19q-37 0 -69 8.5t-55 24t-36.5 36.5t-13.5 46q0 19 7 33
t17.5 23.5t23 14t24.5 4.5q43 0 43 -36q0 -12 -3.5 -20.5t-8.5 -16.5t-10.5 -16.5t-9.5 -19.5q0 -23 22.5 -41t64.5 -18q40 0 75.5 20.5t62 54.5t42 78.5t15.5 93.5q0 26 -10 44t-25 29t-33.5 15.5t-36.5 4.5q-16 0 -35.5 -3.5t-39 -12t-36.5 -22t-27 -32.5l-25 5l149 334
h26q8 -12 38 -25.5t89 -13.5q27 0 48 3.5t40 10t36.5 16.5t37.5 23l10 -11v0z" />
    <glyph glyph-name="six" unicode="6" horiz-adv-x="565" 
d="M408 278q0 55 -27 83.5t-75 28.5q-33 0 -64 -18.5t-54.5 -51.5t-38 -78t-14.5 -97q0 -65 26.5 -99.5t72.5 -34.5q40 0 72.5 26.5t55 66t34.5 86.5t12 88zM616 603q0 -31 -13 -51.5t-42 -20.5q-24 0 -36.5 18.5t-13.5 52.5q-2 34 -14.5 51t-49.5 17q-34 0 -70 -23
t-71 -64.5t-66.5 -99t-56.5 -126.5l3 -3q42 38 81.5 54t88.5 16q34 0 62.5 -12t49.5 -34.5t32.5 -53.5t11.5 -69q0 -43 -16.5 -90.5t-49.5 -87t-83 -65.5t-117 -26q-91 0 -143.5 53.5t-52.5 157.5q0 59 17.5 119.5t48.5 116.5t72.5 104.5t89.5 85t100.5 57t104.5 20.5
q37 0 62 -8.5t41 -22.5t23 -31.5t7 -34.5z" />
    <glyph glyph-name="seven" unicode="7" horiz-adv-x="506" 
d="M590 586q-39 -43 -69.5 -78.5t-57.5 -70.5t-53 -73t-54 -86q-22 -37 -41.5 -71.5t-37 -71t-32.5 -77.5t-29 -92q-11 -39 -29.5 -62.5t-47.5 -23.5q-24 0 -35.5 13.5t-11.5 34.5q0 16 8.5 38.5t30 58t57.5 86.5t90 126q28 39 53.5 72.5t51 65t52 64t57.5 69.5h-257
q-50 0 -84 -30t-70 -89l-19 5l128 257h18l-7 -56h391z" />
    <glyph glyph-name="eight" unicode="8" horiz-adv-x="558" 
d="M403 151q0 27 -13 49t-35 40t-51.5 33t-62.5 27q-60 -24 -95 -72t-35 -105q0 -22 8.5 -42.5t25 -36t41.5 -25t59 -9.5q30 0 58 10t50.5 28.5t36 44.5t13.5 58zM478 502q0 48 -34 73.5t-85 25.5q-30 0 -55 -11t-43 -28.5t-28 -39.5t-10 -45q0 -48 35.5 -77.5t111.5 -57.5
q29 11 49.5 29t33.5 39.5t19 45t6 46.5zM542 494q0 -27 -11.5 -53t-32 -47.5t-47 -37.5t-56.5 -25v-4q20 -11 38.5 -24.5t33 -30t23 -36t8.5 -42.5q0 -51 -23 -90.5t-59.5 -66t-82 -40t-90.5 -13.5q-44 0 -82 11.5t-65.5 31.5t-43 47.5t-15.5 59.5q0 31 15 60t40 52.5
t56.5 40.5t63.5 24v4q-36 23 -59.5 50.5t-23.5 72.5q0 37 19 71t50.5 60.5t73.5 42t89 15.5q37 0 70 -10t57.5 -27.5t39 -42t14.5 -53.5z" />
    <glyph glyph-name="nine" unicode="9" horiz-adv-x="565" 
d="M460 454q0 65 -26.5 104t-77.5 39q-37 0 -68 -22.5t-53 -58t-34 -80t-12 -88.5q0 -129 100 -129q31 0 61.5 17t55 47.5t39.5 74t15 96.5zM543 414q0 -57 -15 -117.5t-43 -117.5t-67 -108.5t-86.5 -89.5t-103 -60.5t-115.5 -22.5q-74 0 -110 28.5t-36 73.5q0 29 14 46
t39 17t38 -15t15 -58q1 -31 15 -47.5t53 -16.5q40 0 80 27.5t76.5 73.5t67.5 106t52 124l-4 3q-15 -14 -31 -28t-35.5 -25t-44 -18t-54.5 -7q-35 0 -64.5 11.5t-52 33.5t-35 53.5t-12.5 70.5q0 54 21.5 102.5t58 85.5t85.5 59t104 22q41 0 76 -13t60.5 -38.5t39.5 -64
t14 -90.5z" />
    <glyph glyph-name="colon" unicode=":" horiz-adv-x="320" 
d="M165 55q0 -27 -19 -45.5t-46 -18.5t-46 18.5t-19 45.5t19 46t46 19t46 -19t19 -46zM253 389q0 -27 -19 -45.5t-46 -18.5t-46 18.5t-19 45.5t19 46t46 19t46 -19t19 -46z" />
    <glyph glyph-name="semicolon" unicode=";" horiz-adv-x="320" 
d="M170 45q0 -37 -15 -69t-38.5 -58t-52.5 -46t-57 -34l-7 22q45 24 79 61.5t39 80.5h-23q-32 0 -47.5 14t-15.5 38t19.5 45t50.5 21q68 0 68 -75zM253 389q0 -27 -19 -45.5t-46 -18.5t-46 18.5t-19 45.5t19 46t46 19t46 -19t19 -46z" />
    <glyph glyph-name="less" unicode="&#x3c;" horiz-adv-x="560" 
d="M73 240v40l442 205v-52l-379 -173l379 -173v-52z" />
    <glyph glyph-name="equal" unicode="=" horiz-adv-x="580" 
d="M87 157v46h442v-46h-442zM87 317v46h442v-46h-442z" />
    <glyph glyph-name="greater" unicode="&#x3e;" horiz-adv-x="560" 
d="M81 35v52l379 173l-379 173v52l442 -205v-40z" />
    <glyph glyph-name="question" unicode="?" horiz-adv-x="428" 
d="M217 52q0 -26 -18 -43.5t-44 -17.5t-44 17.5t-18 43.5t18 44t44 18t44 -18t18 -44zM472 542q0 -24 -6 -48t-21 -45.5t-40 -41.5t-64 -37q-31 -14 -60.5 -27.5t-53 -30.5t-38 -38t-14.5 -48q0 -31 15 -39.5t32 -8.5q13 0 24.5 7.5t20.5 19.5t14.5 26.5t8.5 28.5l22 -7
q-4 -22 -14 -39t-23 -29t-28 -18.5t-28 -6.5q-39 0 -67 24t-28 75q0 53 36.5 89.5t112.5 72.5q37 18 60.5 34.5t37 34.5t19 37.5t5.5 42.5q0 17 -7 35.5t-21.5 34t-36.5 25.5t-53 10q-23 0 -43 -7.5t-34.5 -20.5t-22.5 -29.5t-8 -34.5q0 -29 18 -51.5t51 -22.5q15 0 23 4v6
q-6 0 -13 2t-14 7t-11.5 12t-4.5 17q0 20 12.5 33t32.5 13q24 0 38.5 -13t14.5 -36q0 -29 -20.5 -47t-55.5 -18q-36 0 -62.5 26t-26.5 67q0 24 10.5 45.5t29.5 37t46.5 25t60.5 9.5q40 0 72.5 -12t55 -33.5t34.5 -50t12 -61.5z" />
    <glyph glyph-name="at" unicode="@" horiz-adv-x="1000" 
d="M618 332q-5 38 -20 56t-44 18q-31 0 -58.5 -27t-47.5 -66.5t-32 -84.5t-12 -81q0 -27 3.5 -43.5t9 -25t12.5 -11t15 -2.5q19 0 34.5 7.5t29 20t25 28t20.5 31.5l65 180v0zM950 114q-24 -77 -67.5 -138t-102.5 -103.5t-130 -65t-149 -22.5q-81 0 -157.5 24.5t-135.5 73.5
t-94.5 122t-35.5 170q0 91 36.5 177.5t103 154t158.5 108.5t203 41q86 0 148 -27t101.5 -71.5t58.5 -101.5t19 -118q0 -60 -22 -115t-58.5 -97.5t-84 -67.5t-98.5 -25q-41 0 -66.5 20.5t-27.5 59.5l-3 1q-23 -34 -52.5 -56.5t-60.5 -22.5q-21 0 -40.5 6t-35 20.5t-25 39
t-9.5 62.5q0 32 16 77t46.5 86.5t74 70.5t97.5 29q26 0 45.5 -15t24.5 -45h3l21 54h70l-98 -263q-5 -13 -8 -27.5t-3 -24.5q0 -25 11 -35.5t30 -10.5q40 0 80 20.5t72 57.5t52 89.5t20 117.5q0 60 -19.5 111.5t-57.5 89t-94 58.5t-130 21q-73 0 -145.5 -30t-130 -87
t-93.5 -139.5t-36 -187.5q0 -86 25 -152t69 -111t104.5 -68.5t131.5 -23.5q168 0 274 75.5t157 219.5l18 -6v0z" />
    <glyph glyph-name="A" unicode="A" horiz-adv-x="635" 
d="M425 556l-200 -256h200v256zM600 0h-292l6 21q23 2 44.5 5t34.5 8q20 8 26 22.5t6 29.5v184h-226q-13 -18 -27.5 -38t-28 -39t-25.5 -36t-20 -28q-14 -20 -25 -36.5t-11 -24.5q0 -11 11 -19.5t27 -14.5t32.5 -9t28.5 -4l-6 -21h-275l6 21q11 1 32 6.5t38 13.5
q23 11 44.5 31.5t43.5 46.5q52 64 108 135t113.5 144.5t115 148.5t113.5 147h28v-605q0 -21 4 -34t19 -21q11 -6 29 -9t32 -4z" />
    <glyph glyph-name="B" unicode="B" horiz-adv-x="627" 
d="M483 219q0 59 -41.5 94t-112.5 35q-14 0 -33 -0.5t-33 -1.5l-71 -257q-5 -34 13.5 -47.5t63.5 -13.5q52 0 92 17t67 44.5t41 61.5t14 68zM526 547q0 51 -26.5 80t-80.5 29q-17 0 -34.5 -0.5t-35.5 -1.5l-78 -279h37q51 0 91.5 14.5t68.5 38.5t43 55t15 64zM632 556
q0 -41 -18 -71t-47 -51.5t-66 -36.5t-76 -25v-9q33 -6 62.5 -16.5t52 -27.5t36 -41t13.5 -57q0 -50 -24 -90.5t-67 -69.5t-103 -45t-132 -16h-296l5 21q6 0 16.5 1t21.5 2.5t21 3t16 3.5q20 7 29 20t14 29l143 514q2 7 3 12.5t1 10.5q0 17 -20 27q-5 2 -14 5t-19 5.5
t-19 4.5t-15 2l6 22h300q80 0 128 -32t48 -95z" />
    <glyph glyph-name="C" unicode="C" horiz-adv-x="628" 
d="M630 446h-24q-5 48 -15 88.5t-29.5 70t-51.5 46t-80 16.5q-50 0 -98.5 -31t-86.5 -85.5t-62 -128t-24 -158.5q0 -51 11 -94.5t34.5 -75t58.5 -49.5t83 -18q39 0 70.5 11.5t58.5 32.5t51.5 50.5t48.5 65.5l23 -14q-23 -35 -50 -68.5t-62 -60t-79 -43t-101 -16.5
q-62 0 -110 18.5t-81 52.5t-50 82.5t-17 107.5q0 95 34.5 177t90.5 143t127.5 95.5t146.5 34.5q53 0 85 -13.5t64 -40.5l41 51h41z" />
    <glyph glyph-name="D" unicode="D" horiz-adv-x="744" 
d="M628 409q0 125 -55.5 185.5t-156.5 60.5q-17 0 -33.5 -0.5t-33.5 -1.5l-153 -547q-10 -36 9 -56.5t70 -20.5q75 0 139.5 30t112 81.5t74.5 120.5t27 148zM735 418q0 -98 -38.5 -175.5t-103.5 -131.5t-150.5 -82.5t-179.5 -28.5h-296l5 21q6 0 16.5 1t21.5 2.5t21 3
t16 3.5q20 7 29 20t14 29l143 514q2 7 3 12.5t1 10.5q0 17 -20 27q-5 2 -14 5t-19 5.5t-19 4.5t-15 2l6 22h296q51 0 102 -13.5t91 -45t65 -82t25 -124.5z" />
    <glyph glyph-name="E" unicode="E" horiz-adv-x="637" 
d="M631 527h-25v8q0 43 -18.5 77.5t-51.5 39.5q-16 2 -35 3t-43 1h-108l-81 -289h78q40 0 62 11t33 21q7 6 15 17t15.5 24.5t14 27t10.5 22.5h26l-78 -278h-24q2 9 2.5 21t0.5 24q0 17 -2 31.5t-6 20.5q-3 5 -8 10.5t-13 10t-21 7.5t-34 3h-78l-62 -221q-5 -15 -7.5 -27.5
t-2.5 -20.5q0 -28 23 -35.5t78 -7.5q51 0 96.5 3t67.5 20q17 13 35 32.5t34.5 40t29 39t18.5 29.5h25l-65 -192h-574l7 21q5 0 16.5 1t24.5 2.5t25 4t18 4.5q19 7 28.5 20t14.5 30l141 510q2 7 3 13t1 11q0 10 -4.5 16t-15.5 11q-6 3 -16 5.5t-21 5t-21 4.5t-17 2l7 22h525z
" />
    <glyph glyph-name="F" unicode="F" horiz-adv-x="612" 
d="M656 521h-25q0 25 -4 47.5t-13 40t-23 29t-34 14.5q-17 2 -37.5 3t-44.5 1h-125l-82 -291h90q38 0 62 11t36 20q14 10 30 37t27 55h27l-79 -281h-27q2 11 3 26t0.5 29.5t-2 26.5t-5.5 17q-7 10 -26 20.5t-54 10.5h-89l-69 -247q-2 -7 -3 -13t-1 -11q0 -10 4.5 -16
t15.5 -11q6 -3 16 -5.5t21 -5t21 -4.5t17 -2l-7 -22h-318l7 21q5 0 16.5 1t24.5 2.5t25 4t18 4.5q19 7 28.5 20t14.5 30l141 510q2 7 3 13t1 11q0 10 -4.5 16t-15.5 11q-6 3 -16 5.5t-21 5t-21 4.5t-17 2l7 22h550z" />
    <glyph glyph-name="G" unicode="G" horiz-adv-x="711" 
d="M723 279q-14 -2 -34.5 -5t-35.5 -9q-21 -8 -30.5 -21.5t-13.5 -30.5l-62 -232l-13 -4l-38 61q-29 -12 -52 -21.5t-44 -16.5t-43.5 -11t-50.5 -4q-53 0 -100 15.5t-82 47.5t-55.5 82.5t-20.5 121.5q0 86 32.5 166t89.5 142t133.5 99t163.5 37q60 0 96 -16t60 -38l45 51h39
l-55 -240h-23q-3 45 -12.5 84.5t-29.5 68t-54 45t-86 16.5t-103 -29.5t-92 -83t-66.5 -128t-25.5 -164.5q0 -118 45 -181.5t127 -63.5q41 0 69 11t47 31t30.5 47t20.5 60l10 38q5 20 2 35.5t-20 23.5q-8 3 -21.5 6t-27 5t-26 3.5t-19.5 1.5l6 23h326z" />
    <glyph glyph-name="H" unicode="H" horiz-adv-x="809" 
d="M880 661q-14 -1 -37.5 -4.5t-37.5 -7.5q-20 -6 -29 -19.5t-14 -30.5l-144 -515q-2 -7 -3 -12t-1 -9q0 -11 5.5 -16t15.5 -11q8 -5 31 -9.5t37 -5.5l-6 -21h-306l6 21q7 0 18 1t22.5 2.5t22 3t15.5 3.5q20 7 29 19.5t14 29.5l73 260h-329l-72 -256q-3 -14 -3 -20
q0 -11 5 -17t16 -11q4 -2 12.5 -4.5t18.5 -4.5t20.5 -4t17.5 -2l-5 -21h-305l5 21q6 0 16.5 1t21.5 2.5t21 3t16 3.5q20 7 29 20t14 29l143 514q2 7 3 12.5t1 10.5q0 17 -20 27q-5 2 -14 5t-19 5.5t-19 4.5t-15 2l6 22h306l-6 -22q-7 0 -17.5 -1.5t-21.5 -3t-21.5 -3.5
t-17.5 -4q-20 -6 -29.5 -20t-14.5 -30l-63 -227h328l62 222q2 7 3 13t1 11q0 10 -5 15.5t-15 10.5l-15 5t-19.5 5.5t-20 4.5t-16.5 2l8 22h305z" />
    <glyph glyph-name="I" unicode="I" horiz-adv-x="388" 
d="M459 661q-7 0 -17.5 -1.5t-21.5 -3t-21.5 -3.5t-17.5 -4q-20 -6 -29.5 -20t-14.5 -30l-144 -515q-3 -14 -3 -20q0 -11 5 -17t16 -11q4 -2 12.5 -4.5t18.5 -4.5t20.5 -4t17.5 -2l-5 -21h-305l5 21q6 0 16.5 1t21.5 2.5t21 3t16 3.5q20 7 29 20t14 29l143 514q2 7 3 12.5
t1 10.5q0 17 -20 27q-5 2 -14 5t-19 5.5t-19 4.5t-15 2l6 22h306z" />
    <glyph glyph-name="J" unicode="J" horiz-adv-x="546" 
d="M605 637q0 -22 -11 -36t-28.5 -23t-39.5 -14.5t-45 -10.5q-24 -58 -36 -103.5t-20 -92.5l129 3l-10 -35l-125 1q-11 -45 -26.5 -110t-40.5 -146q-19 -64 -50 -110t-68 -75.5t-78 -43.5t-80 -14q-30 0 -51.5 8t-36 20.5t-21 28.5t-6.5 33q0 7 3.5 16t11 17.5t17.5 14.5
t24 6q26 0 42 -12t16 -39q0 -10 -6 -21t-15 -24q0 -13 10 -20t15 -7q28 0 52.5 8.5t46 31t40.5 63t37 103.5q9 33 18.5 71t17.5 75t15 69.5t12 52.5h-131l5 27l132 3q9 28 20 50.5t25 43.5t32 44.5t43 54.5q-10 -3 -25 -5.5t-31 -5t-30 -4t-21 -1.5q-22 0 -39 8t-31.5 20
t-27.5 26t-27 26.5t-30.5 21.5t-37.5 10q-29 0 -43 -11.5t-14 -26.5q0 -5 5 -18.5t10 -20.5q20 -1 36 -14t16 -36q0 -17 -13.5 -30.5t-33.5 -13.5q-30 0 -42.5 25t-12.5 57q0 25 12 51.5t33 48.5t48.5 36t58.5 14t51.5 -9.5t35.5 -23.5t27.5 -31.5t27.5 -32.5t35.5 -26.5
t51.5 -14.5h27q15 18 30 36.5t28.5 33.5t26 24.5t23.5 9.5q14 0 25.5 -6.5t11.5 -24.5z" />
    <glyph glyph-name="K" unicode="K" horiz-adv-x="738" 
d="M813 661q-7 0 -23.5 -1t-38 -6t-46 -15.5t-47.5 -29.5q-41 -34 -77 -64.5t-71.5 -59t-71.5 -56t-77 -55.5q29 -38 53.5 -70.5t47 -64t45 -65t48.5 -72.5q13 -20 30 -36.5t43 -29.5q13 -6 34 -9.5t34 -4.5l-5 -22h-341l5 22q54 5 79.5 12.5t25.5 28.5q0 12 -17 42.5
t-43.5 69.5t-58.5 81.5t-62 78.5h-18l-71 -251q-3 -12 -3 -20q0 -11 5 -17t16 -11q4 -2 12.5 -4.5t18.5 -4.5t20.5 -4t17.5 -2l-5 -21h-305l5 21q6 0 16.5 1t21.5 2.5t21 3t16 3.5q20 7 29 20t14 29l143 514q2 7 3 12.5t1 10.5q0 17 -20 27q-5 2 -14 5t-19 5.5t-19 4.5
t-15 2l6 22h306l-6 -22q-7 0 -17.5 -1.5t-21.5 -3t-21.5 -3.5t-17.5 -4q-20 -6 -29.5 -20t-14.5 -30l-68 -245h13q59 39 115 79.5t100.5 77t73 66.5t33.5 48q3 11 -5.5 18t-21 11t-25.5 5.5t-19 1.5l6 22h283z" />
    <glyph glyph-name="L" unicode="L" horiz-adv-x="629" 
d="M530 0h-572l7 21q5 0 16.5 1t24.5 2.5t25 4t18 4.5q19 7 28.5 20t14.5 30l141 510q2 7 3 13t1 11q0 10 -4.5 16t-15.5 11q-6 3 -16 5.5t-21 5t-21 4.5t-17 2l7 22h313l-6 -22q-7 0 -17.5 -1.5t-21.5 -3t-21.5 -3.5t-17.5 -4q-20 -6 -29.5 -20t-14.5 -30l-134 -480
q-8 -29 -9.5 -47t8.5 -27.5t32.5 -13t63.5 -3.5q22 0 45.5 1t45.5 4t39 7.5t26 11.5q15 11 32 28t34 36.5t31.5 40t24.5 37.5h24z" />
    <glyph glyph-name="M" unicode="M" horiz-adv-x="931" 
d="M1000 661q-7 0 -17.5 -1.5t-21.5 -3t-21.5 -3.5t-17.5 -4q-20 -6 -29.5 -18.5t-14.5 -31.5l-133 -515q-2 -5 -2.5 -10.5t-0.5 -9.5q0 -11 5 -17t16 -11q4 -2 13.5 -4.5t20.5 -5t21.5 -4t17.5 -1.5l-5 -21h-304l5 21q6 0 16 1t20.5 2.5t20 3t14.5 3.5q20 7 29.5 20
t13.5 29l131 518l-398 -587h-18q-2 32 -5 67.5t-10 71.5l-82 437l-106 -397q-7 -25 -11.5 -52.5t-4.5 -39.5q0 -32 13 -45q6 -6 19 -11.5t27.5 -10t28 -7.5t20.5 -3l-6 -21h-299l6 21q8 0 22 3t29 6.5t28 8t21 9.5q20 13 36 45t33 92l99 366q8 31 5.5 50.5t-14.5 31.5
q-14 14 -38 20.5t-44 7.5l6 22h207l99 -529l295 443q20 30 31.5 54t14.5 32h225z" />
    <glyph glyph-name="N" unicode="N" horiz-adv-x="737" 
d="M840 662q-7 0 -20 -2.5t-28 -6t-29 -8t-22 -8.5q-26 -14 -41 -50.5t-28 -83.5l-136 -510h-33l-246 574l-99 -377q-3 -9 -5.5 -22.5l-5 -27t-4 -25t-1.5 -17.5q0 -32 13 -45q6 -6 19 -11.5t27.5 -10t28 -7.5t20.5 -3l-6 -21h-299l6 21q8 0 22 3t29 6.5t28 8t21 9.5
q20 13 37 45t33 92l94 353q2 6 3 15.5t1 18.5q0 16 -4.5 30.5t-14.5 24.5q-14 14 -38 23t-63 11l7 22h206l231 -538l92 352q6 23 11 49.5t5 43.5q0 31 -14 42q-6 5 -18.5 10t-26.5 9.5t-27 7.5t-22 3l6 21h297z" />
    <glyph glyph-name="O" unicode="O" horiz-adv-x="720" 
d="M604 451q0 45 -8.5 84.5t-27.5 69t-50 46.5t-76 17q-61 0 -111.5 -34t-84.5 -88q-39 -63 -63 -145t-24 -171q0 -47 9.5 -86.5t29 -68t50.5 -45t74 -16.5q57 0 103 27.5t81 76.5q22 31 40.5 70.5t31 82.5t19.5 89t7 91zM711 430q0 -48 -9 -96t-27 -93.5t-46 -86.5t-67 -74
q-54 -46 -116 -71t-135 -25q-63 0 -111.5 23.5t-86.5 70.5q-29 35 -45 79.5t-16 99.5q0 91 36 180t108 157q55 51 119.5 77.5t133.5 26.5q67 0 117.5 -24.5t95.5 -79.5q24 -31 36.5 -73t12.5 -91z" />
    <glyph glyph-name="P" unicode="P" horiz-adv-x="603" 
d="M524 527q0 57 -29.5 92.5t-100.5 35.5h-45l-86 -312h48q103 0 158 50t55 134zM630 536q0 -53 -24 -94t-67.5 -70t-104 -44t-133.5 -15h-47l-64 -230q-3 -11 -3 -19q0 -11 5 -17t16 -11q4 -2 12.5 -4.5t18.5 -4.5t20.5 -4t17.5 -2l-5 -21h-305l5 21q6 0 16.5 1t21.5 2.5
t21 3t16 3.5q20 7 29 20t14 29l143 514q2 7 3 12.5t1 10.5q0 17 -20 27q-5 2 -14 5t-19 5.5t-19 4.5t-15 2l6 22h277q94 0 145.5 -38.5t51.5 -108.5z" />
    <glyph glyph-name="Q" unicode="Q" horiz-adv-x="666" 
d="M245 38q-26 25 -61 40.5t-81 15.5q-11 0 -20 -4.5t-16.5 -11.5t-12.5 -14t-6 -12q10 -23 28.5 -33.5t40.5 -10.5q16 0 34 2.5t35.5 7t32.5 9.5t26 11zM797 -132q0 -14 -12.5 -32.5t-35 -35t-54 -28t-69.5 -11.5q-58 0 -100 13t-74 35t-56 49.5t-45.5 56t-43.5 56
t-50 48.5q-35 -14 -73 -24t-79 -10q-23 0 -44.5 4t-38.5 11.5t-27.5 19.5t-10.5 29q0 12 10 24t26.5 21.5t37.5 15.5t44 6q50 0 94 -14t95 -38q37 10 82 46.5t85 93.5t67 131.5t27 161.5q0 34 -9 65t-27.5 55t-48 38t-70.5 14q-59 0 -106.5 -27.5t-80.5 -71t-51 -96.5
t-18 -103q0 -25 6.5 -47.5t19 -39t31.5 -26.5t44 -10t50.5 6.5t45.5 23t32.5 44t12.5 70.5q0 15 -2.5 31t-7.5 29.5t-14 23.5t-22 12q3 -8 4 -18t1 -18q0 -20 -12 -32.5t-32 -12.5q-27 0 -35.5 15t-8.5 36q0 23 21.5 43.5t65.5 20.5q22 0 39 -10t28.5 -26.5t17.5 -37.5
t6 -43q0 -42 -19 -76t-47.5 -58.5t-62.5 -38t-65 -13.5q-37 0 -67.5 13.5t-52 38.5t-33.5 59.5t-12 76.5q0 57 26.5 109.5t71.5 93t103 64.5t121 24q64 0 113 -19t81 -51t48.5 -74.5t16.5 -90.5q0 -83 -32 -150t-82 -118.5t-110 -88.5t-117 -60q48 -26 90 -66.5t84 -79.5
t88.5 -67t104.5 -28h23t25 1l-4 15q-14 5 -22.5 16t-8.5 31q0 23 18.5 37t40.5 14q26 0 35.5 -15.5t9.5 -35.5z" />
    <glyph glyph-name="R" unicode="R" horiz-adv-x="711" 
d="M538 538q0 117 -125 117h-63l-82 -293h49q103 0 162 45.5t59 130.5zM687 152q-11 -35 -24.5 -64.5t-30.5 -51.5t-40 -34.5t-54 -12.5q-51 0 -76.5 32.5t-25.5 101.5v86q0 27 -4 49.5t-17.5 39t-39.5 26t-69 9.5h-46q-11 -41 -21.5 -79t-20 -70.5t-17 -58t-11.5 -41.5
q-3 -14 -3 -20q0 -11 5 -17t16 -11q4 -2 12.5 -4.5t18.5 -4.5t20.5 -4t17.5 -2l-5 -21h-305l5 21q6 0 16.5 1t21.5 2.5t21 3t16 3.5q20 7 29 20t14 29l143 514q2 7 3 12.5t1 10.5q0 17 -20 27q-5 2 -14 5t-19 5.5t-19 4.5t-15 2l6 22h281q98 0 153 -34t55 -100
q0 -42 -17.5 -74.5t-47 -56.5t-69 -40.5t-82.5 -26.5v-8q48 -9 76 -39.5t30 -83.5q2 -40 2 -70q0 -29 2 -55q2 -29 12 -44.5t30 -15.5q26 0 46 33t37 90l23 -6v0z" />
    <glyph glyph-name="S" unicode="S" horiz-adv-x="537" 
d="M522 466h-22q-4 42 -13 78.5t-26 63.5t-43 42.5t-65 15.5q-32 0 -59 -10.5t-46.5 -28t-30.5 -40.5t-11 -48q0 -24 6 -42t19 -33t34 -29t52 -29q47 -24 80 -46t53.5 -45.5t30 -49t9.5 -55.5q0 -50 -22.5 -91.5t-60 -70.5t-86 -45t-100.5 -16q-57 0 -100 16t-65 34l-46 -47
h-34l56 234h23q5 -40 16.5 -77t33.5 -66t55 -46.5t81 -17.5q36 0 65 12.5t49 32t30.5 44.5t10.5 50q0 23 -5.5 42t-19 36t-37 34t-60.5 35q-40 21 -69.5 40t-48.5 40.5t-28.5 48t-9.5 61.5q0 42 19.5 79t53 64.5t78.5 43.5t96 16q44 0 78.5 -15t54.5 -35l47 47h34z" />
    <glyph glyph-name="T" unicode="T" horiz-adv-x="632" 
d="M690 509h-24q0 27 -4 52t-12.5 44.5t-21 32t-29.5 14.5q-18 2 -39 3t-41 1h-42l-155 -568q-2 -5 -2.5 -11.5t-0.5 -10.5q0 -18 20 -28q4 -2 16 -4.5t26 -5.5t27 -5t20 -2l-6 -21h-341l6 21q7 0 19.5 1.5t26.5 3t26 3.5t17 4q20 7 29.5 20t14.5 30l158 573h-42
q-17 0 -40.5 -1t-41.5 -3q-17 -2 -39 -18.5t-43 -38.5t-38.5 -46t-26.5 -40h-24l49 174h607z" />
    <glyph glyph-name="U" unicode="U" horiz-adv-x="791" 
d="M878 662q-7 0 -20 -2.5t-28 -6t-29 -8t-22 -8.5q-26 -14 -40.5 -50t-28.5 -83l-78 -273q-35 -118 -108.5 -182.5t-201.5 -64.5q-108 0 -158 41.5t-50 116.5q0 21 3 45t11 50l99 357q2 7 3 12.5t1 10.5q0 17 -20 27q-5 2 -14 5t-19 5.5t-19 4.5t-15 2l6 22h306l-6 -22
q-7 0 -17.5 -1.5t-21.5 -3t-21.5 -3.5t-17.5 -4q-20 -6 -29.5 -20t-14.5 -30l-95 -342q-19 -66 -19 -117q0 -54 32 -83.5t111 -29.5q96 0 154 54.5t87 153.5l75 263q8 28 12 51.5t4 40.5q0 31 -14 42q-6 5 -18.5 10t-26.5 9.5t-27 7.5t-22 3l6 21h297z" />
    <glyph glyph-name="V" unicode="V" horiz-adv-x="635" 
d="M796 662q-11 -1 -32 -6.5t-38 -13.5q-23 -11 -44.5 -31.5t-43.5 -46.5q-52 -65 -108 -135.5t-113.5 -144t-115.5 -148.5t-113 -147h-28v605q0 21 -4 34t-19 21q-11 6 -29 9t-32 4l6 21h292l-6 -21q-23 -2 -44.5 -5t-34.5 -8q-20 -8 -26 -22.5t-6 -29.5v-470l200 256
q51 66 81 107t46 64q14 20 25 36.5t11 24.5q0 11 -11 19.5t-27 14.5t-32.5 9t-28.5 4l6 21h275z" />
    <glyph glyph-name="W" unicode="W" horiz-adv-x="953" 
d="M1108 661q-14 -1 -34 -6.5t-36 -13.5q-23 -11 -39 -29.5t-33 -43.5l-385 -576h-38v517l-345 -517h-38v602q0 21 -4 34t-19 21q-11 6 -29 9t-32 4l6 21h292l-6 -21q-23 -2 -44.5 -5t-34.5 -8q-20 -8 -26 -22.5t-6 -29.5v-469l278 424q5 14 6.5 26t1.5 25q0 16 -4.5 27.5
t-18.5 18.5q-11 6 -29 9t-32 4l6 21h292l-6 -21q-23 -2 -44.5 -5t-34.5 -8q-20 -8 -26 -22.5t-6 -29.5v-469l255 389q25 38 36 60t11 36q0 11 -9.5 19.5t-24.5 14.5t-33.5 9.5t-35.5 4.5l6 22h269z" />
    <glyph glyph-name="X" unicode="X" horiz-adv-x="738" 
d="M822 661q-14 -1 -36 -4.5t-38 -9.5q-33 -13 -57.5 -31.5t-42.5 -35.5q-48 -43 -99 -93t-117 -116q17 -38 34 -77t33 -74.5t30 -65.5t25 -51q8 -17 19.5 -34.5t31.5 -34.5q3 -3 12.5 -5t20.5 -3.5t22 -2.5t17 -1l-6 -22h-343l6 22q21 1 41.5 3.5t37 8.5t27 15t10.5 24
q0 11 -5 28t-15.5 43.5t-27.5 65t-41 92.5q-39 -38 -79.5 -77t-73 -72.5t-53 -58t-20.5 -33.5q0 -22 20 -29.5t65 -9.5l-6 -22h-284l6 22q14 1 36.5 4.5t38.5 9.5q33 13 57.5 31.5t42.5 35.5q31 28 59.5 54.5t57.5 54t58.5 56.5t61.5 61q-34 76 -61.5 137t-53.5 114
q-8 17 -18 35t-34 32q-5 3 -14 5t-19.5 4t-21 3.5t-17.5 1.5l6 22h343l-6 -22q-21 -1 -41.5 -3.5t-36.5 -8t-26 -15t-10 -23.5q0 -23 22.5 -77t58.5 -135q44 43 82 80.5t65.5 66.5t43 49t15.5 29q0 19 -20 27t-67 10l6 22h284z" />
    <glyph glyph-name="Y" unicode="Y" horiz-adv-x="628" 
d="M735 638q0 -35 -16 -50.5t-42 -15.5q-15 0 -24.5 5t-15.5 12.5t-8.5 15t-2.5 13.5q0 13 4.5 20t9.5 15l-4 5q-15 -4 -33.5 -16t-38.5 -30t-40.5 -41.5t-39.5 -50.5q-11 -16 -24.5 -38t-27 -49t-25.5 -57.5t-20 -62.5l-57 -229q-3 -12 -3 -20q1 -19 23 -29q4 -2 14 -4.5
t22.5 -4.5t24.5 -3.5t19 -1.5l-5 -21h-313l5 21q6 0 16 1t20.5 2.5t20 3t15.5 3.5q20 7 29 21.5t12 27.5l60 245q8 33 9 72t1 64q0 33 -5.5 64t-19.5 55t-37.5 39t-59.5 15q-35 0 -61 -23.5t-43 -76.5l-22 7q52 154 174 154q38 0 68 -17.5t51 -45t32 -63t11 -71.5
q0 -26 -2 -46t-7 -50h9q30 76 64.5 131.5t71.5 91.5t73.5 53.5t70.5 17.5q36 0 51.5 -20t15.5 -38z" />
    <glyph glyph-name="Z" unicode="Z" horiz-adv-x="596" 
d="M683 671l-613 -644h181q22 0 46.5 1t46 4t39.5 8t28 13q19 15 39 34.5t37.5 40.5t32.5 41t25 36h24l-73 -205h-563l3 12l613 644h-160q-26 0 -48.5 -1t-38.5 -4q-21 -4 -45.5 -21t-48 -40t-43.5 -47.5t-32 -43.5h-24l68 184h510z" />
    <glyph glyph-name="bracketleft" unicode="[" horiz-adv-x="620" 
d="M690 727q0 -28 -16.5 -52t-42.5 -42t-59.5 -28t-66.5 -10q-42 0 -74.5 7t-61.5 19t-58 29t-65 37l-216 -806q46 20 84.5 37t74 29t71.5 19t78 7q63 0 94 -27t31 -64q0 -27 -14 -46.5t-37 -37.5l-20 8q4 3 9.5 8.5t11 13t9.5 16t4 17.5q0 6 -3 12t-12 10.5t-25 7t-42 2.5
q-144 0 -350 -44l-25 -8l237 886l21 -8q182 -44 326 -44q33 0 54 4t32.5 11.5t15.5 18t4 23.5q0 14 -7 29l23 8q7 -6 11 -18t4 -24z" />
    <glyph glyph-name="backslash" unicode="\" horiz-adv-x="470" 
d="M336 -213l-191 959l49 7l190 -958z" />
    <glyph glyph-name="bracketright" unicode="]" horiz-adv-x="620" 
d="M429 -159l-21 8q-182 44 -326 44q-33 0 -54 -4t-32.5 -11.5t-15.5 -18t-4 -23.5q0 -14 7 -29l-23 -8q-7 6 -11 18t-4 24q0 28 16.5 52t42.5 42t59.5 28t66.5 10q42 0 74.5 -7t61.5 -19t58 -29t65 -37l216 806q-47 -20 -85 -37t-73.5 -29t-71.5 -19t-78 -7q-63 0 -94 27
t-31 64q0 27 14 46.5t37 37.5l20 -8q-4 -3 -9.5 -8.5t-11 -13t-9.5 -16t-4 -17.5q0 -6 3 -12t12 -10.5t25 -7t42 -2.5q144 0 350 44l25 8z" />
    <glyph glyph-name="asciicircum" unicode="^" horiz-adv-x="678" 
d="M373 122q-33 62 -68 119t-61 113q-43 -23 -69 -46.5t-39.5 -47.5t-17.5 -47.5t-4 -47.5q0 -58 31.5 -93.5t80.5 -35.5q47 0 79 21.5t68 64.5zM455 585q0 35 -20 58t-53 23q-25 0 -43.5 -12t-30.5 -30.5t-18 -42t-6 -46.5t6 -49t26 -70q30 15 55.5 31.5t44 37t29 45
t10.5 55.5zM682 331q0 -16 -9.5 -31.5t-29.5 -15.5q-24 0 -32 6.5t-12.5 15t-11 15t-27.5 6.5q-20 0 -45 -36.5t-67 -111.5q20 -41 35 -83t15 -75q0 -56 -19 -102.5t-52.5 -81t-78.5 -53.5t-97 -19l-3 29q33 0 65.5 6t58.5 23t42 47.5t16 79.5q0 35 -14.5 76.5t-30.5 74.5
q-20 -24 -41 -44.5t-45.5 -36.5t-54 -25t-65.5 -9q-32 0 -61 9.5t-50.5 27.5t-34.5 45.5t-13 63.5q0 34 10.5 65t35.5 60.5t66 59t101 59.5q-19 42 -26 69t-7 58q0 40 14 75.5t39 61.5t59.5 41.5t75.5 15.5q49 0 81 -29.5t32 -77.5q0 -36 -15 -65t-39.5 -53t-55.5 -43.5
t-64 -35.5q9 -19 19.5 -37.5t23.5 -40.5t29 -49.5t35 -64.5q18 33 36.5 68t39 63t44.5 46t53 18q22 0 37 -6.5t23 -16.5t11.5 -21t3.5 -21z" />
    <glyph glyph-name="underscore" unicode="_" horiz-adv-x="600" 
d="M-110 -155v45h610v-45h-610z" />
    <glyph glyph-name="grave" unicode="`" 
d="M399 525q-24 25 -40.5 42t-28.5 29l-21.5 21.5t-19.5 18.5q-30 28 -30 57q0 16 10 27t27 11q20 0 31.5 -13t22.5 -38q6 -15 12 -29t13.5 -30.5t16.5 -37t22 -48.5z" />
    <glyph glyph-name="a" unicode="a" horiz-adv-x="549" 
d="M382 351q-9 46 -28.5 67.5t-55.5 21.5q-26 0 -49.5 -15t-43.5 -40.5t-36 -58.5t-27.5 -68t-18 -70t-6.5 -65q0 -35 5.5 -55t14 -31t18.5 -14t20 -3q43 0 75.5 29.5t55.5 68.5l76 233v0zM541 140q-14 -33 -28 -61t-30.5 -48t-37 -31t-47.5 -11q-45 0 -69.5 21t-24.5 72
l-4 1q-29 -42 -63 -69.5t-77 -27.5q-25 0 -49.5 7t-44 25t-31.5 48.5t-12 77.5q0 39 18 93t53.5 104t87 85t119.5 35q32 0 57.5 -17.5t32.5 -55.5h3l23 67h90l-113 -327q-8 -21 -12 -43t-4 -31q0 -25 10 -32.5t24 -7.5q35 0 59.5 34t49.5 98l20 -6v0z" />
    <glyph glyph-name="b" unicode="b" horiz-adv-x="510" 
d="M395 324q0 34 -6.5 54.5t-16.5 31.5t-21.5 14t-21.5 3q-23 0 -42.5 -8t-36 -20.5t-31 -29t-26.5 -34.5l-71 -222q0 -35 8 -55.5t20.5 -32t27 -15t27.5 -3.5q39 0 73.5 33t60.5 81.5t41 103.5t15 99zM489 304q0 -26 -9 -59.5t-25.5 -69t-41.5 -70t-56.5 -61t-70.5 -43
t-84 -16.5q-29 0 -56.5 7t-50 22t-36 39t-13.5 59q0 31 4.5 49t10.5 38l131 410q8 25 11.5 41t3.5 26q0 17 -11.5 23.5t-28.5 8.5q-19 2 -30.5 2.5t-29.5 1.5v20l218 10l-118 -359l3 -1q11 13 25 27t31.5 25.5t37 19t40.5 7.5q25 0 51 -7t47 -24.5t34 -48t13 -77.5z" />
    <glyph glyph-name="c" unicode="c" horiz-adv-x="397" 
d="M394 371q0 -26 -12.5 -46.5t-38.5 -20.5q-17 0 -35 10.5t-18 34.5q0 16 14 31.5t37 27.5q-4 20 -17.5 28t-40.5 8q-22 0 -42.5 -15.5t-39 -41t-34 -59t-26.5 -69t-17.5 -71t-6.5 -65.5q0 -51 16.5 -77.5t55.5 -26.5q55 0 94 38.5t70 95.5l20 -9q-24 -44 -49 -74.5
t-50.5 -49t-50.5 -26.5t-50 -8q-26 0 -53 7t-48.5 24.5t-35 48t-13.5 78.5q0 39 18.5 93t53 104t84.5 85t113 35q24 0 43 -8t32 -20.5t20 -29t7 -32.5z" />
    <glyph glyph-name="d" unicode="d" horiz-adv-x="560" 
d="M390 362q-13 42 -33.5 60t-55.5 18q-39 0 -72.5 -33t-58.5 -81t-39 -103t-14 -100q0 -35 6 -55t15 -31t19.5 -14t20.5 -3q43 0 78.5 28.5t58.5 67.5l75 246v0zM403 128q-3 -9 -5.5 -20t-5 -21.5t-4 -19.5t-1.5 -13q0 -25 9.5 -32.5t23.5 -7.5q35 0 59.5 34t49.5 98l20 -6
q-14 -33 -28 -61t-30.5 -48t-37 -31t-47.5 -11q-45 0 -68 20.5t-23 70.5l-4 1q-29 -42 -67 -68.5t-81 -26.5q-25 0 -50 7t-45 25t-32.5 48.5t-12.5 77.5q0 39 18.5 93t54.5 104t88 85t120 35q31 0 57 -16t37 -48h3l64 212q15 46 15 67q0 17 -12 23.5t-29 8.5q-19 2 -35 2.5
t-35 1.5v20l227 10z" />
    <glyph glyph-name="e" unicode="e" horiz-adv-x="398" 
d="M325 388q0 24 -10 38.5t-34 14.5q-22 0 -43.5 -18t-40.5 -47.5t-34.5 -66.5t-25.5 -74q53 9 89 28t58 41t31.5 44.5t9.5 39.5zM394 394q0 -41 -27 -72t-67 -53t-85.5 -35.5t-82.5 -19.5q-5 -25 -10 -49t-5 -45q0 -51 17.5 -76t56.5 -25q27 0 50 10t43 28t37 42.5t32 53.5
l18 -9q-23 -44 -47.5 -74.5t-49 -49t-49.5 -26.5t-49 -8q-27 0 -54 7t-49 25t-36 49t-14 79q0 26 8 59t24.5 68t40.5 69t56 60.5t71 42.5t86 16q34 0 59.5 -16.5t25.5 -50.5z" />
    <glyph glyph-name="f" unicode="f" horiz-adv-x="307" 
d="M536 658q0 -6 -3 -15t-9.5 -16.5t-16 -13t-22.5 -5.5q-8 0 -17.5 2t-18 7.5t-14.5 14t-6 20.5q0 11 6.5 24.5t8.5 29.5q-4 11 -9 14t-13 3q-48 0 -85 -51t-66 -157l-20 -70h126l-11 -33h-124q-12 -46 -25 -97t-26.5 -102t-26.5 -99.5t-26 -89.5q-18 -58 -46.5 -111
t-74.5 -91q-39 -33 -71 -45.5t-69 -12.5q-30 0 -49.5 7t-31 18t-16 25.5t-4.5 29.5q0 17 13 34.5t39 17.5q8 0 17.5 -2.5t17.5 -8t13.5 -15t5.5 -22.5q0 -16 -6 -25t-15 -22q2 -11 8.5 -14.5t11.5 -3.5q55 0 92 51.5t71 161.5q37 121 63.5 229t46.5 187h-106l10 33h106
l11 40q16 61 43 111t74 92q35 32 71 43.5t71 11.5q26 0 45 -7.5t32 -19.5t19 -27.5t6 -30.5z" />
    <glyph glyph-name="g" unicode="g" horiz-adv-x="482" 
d="M343 -75q0 7 -2.5 16t-7 17.5t-11.5 15t-16 8.5q-40 9 -81 11.5t-80 4.5q-104 -26 -104 -118q0 -15 6.5 -31.5t20.5 -30.5t37.5 -23t57.5 -9q84 0 132 36.5t48 102.5zM315 364q0 32 -16.5 56.5t-48.5 24.5q-29 0 -48.5 -18.5t-31 -44.5t-16.5 -54.5t-5 -48.5
q0 -18 4.5 -34.5t12.5 -29.5t19 -21t25 -8q28 0 48 19t32.5 47t18.5 58.5t6 53.5zM524 414q0 -21 -13 -34t-33 -13q-24 0 -30.5 15.5t-6.5 46.5q-24 0 -37.5 -4.5t-24.5 -12.5v-6q9 -14 14.5 -32.5t5.5 -35.5q0 -38 -16 -68.5t-42 -53t-59.5 -34.5t-69.5 -12h-63
q-16 -8 -29 -18.5t-13 -30.5q0 -28 25.5 -35.5t81.5 -13.5q11 -1 27 -3t32 -3.5t30 -3.5t22 -3q19 -3 36.5 -11.5t31 -22.5t22 -33.5t8.5 -44.5q0 -37 -18 -70t-54 -57.5t-89.5 -39t-123.5 -14.5q-92 0 -137.5 31t-45.5 79q0 49 43 84t126 46v7q-17 3 -33 8t-28 13
t-19.5 19.5t-7.5 28.5q0 23 11.5 39.5t27 27.5t33 18t29.5 11v5q-36 17 -56 44t-20 60q0 37 15.5 69t42 55t62 36.5t75.5 13.5q25 0 46.5 -4.5t38 -10t27.5 -10t16 -4.5q13 6 23.5 11.5t21 9.5t22 6t27.5 2q17 0 31.5 -13.5t14.5 -33.5z" />
    <glyph glyph-name="h" unicode="h" horiz-adv-x="554" 
d="M541 140q-14 -33 -27.5 -61t-30 -48t-37 -31t-46.5 -11q-16 0 -35 3.5t-35 12.5t-26.5 24t-10.5 38q0 18 5.5 38.5t14.5 44.5l59 156q8 20 14 39.5t6 33.5q0 32 -15 41t-35 9q-82 0 -151 -124l-95 -305h-88l192 609q8 25 11 41t3 26q0 17 -11 23.5t-28 8.5q-20 2 -31 2.5
t-29 1.5v20l218 10l-120 -362l4 -1q29 36 63 59t77 23q25 0 46 -9t36.5 -24.5t24 -36t8.5 -42.5q0 -11 -5.5 -32.5t-13.5 -41.5l-55 -147q-10 -26 -16 -47.5t-6 -32.5q0 -24 11.5 -29t25.5 -5q36 0 60.5 34t49.5 98l18 -6v0z" />
    <glyph glyph-name="i" unicode="i" horiz-adv-x="334" 
d="M315 140q-14 -33 -28 -61t-30.5 -48t-37 -31t-46.5 -11q-16 0 -34.5 3.5t-34 12.5t-25.5 24t-10 38q0 18 5 37.5t15 45.5l67 170q8 21 15.5 45.5t7.5 33.5q0 22 -9.5 30t-23.5 8q-35 0 -59 -35.5t-49 -99.5l-19 7q13 33 27 61t30.5 48t37 31.5t47.5 11.5q16 0 33.5 -5
t32.5 -15.5t24.5 -26.5t9.5 -38q0 -9 -3 -21.5t-8 -26.5t-10.5 -28t-9.5 -25l-57 -147q-11 -26 -17 -47t-6 -32q0 -24 11 -29.5t25 -5.5q36 0 61 34t50 98l18 -6v0zM327 653q0 -29 -16.5 -50t-47.5 -21q-25 0 -37.5 16.5t-12.5 39.5q0 29 18 49.5t50 20.5q21 0 33.5 -17
t12.5 -38z" />
    <glyph glyph-name="j" unicode="j" horiz-adv-x="290" 
d="M263 377q0 -7 -4.5 -31t-9.5 -43q-10 -38 -18.5 -71t-17.5 -66t-19 -67.5t-22 -76.5q-18 -59 -46.5 -111t-73.5 -90q-39 -33 -72 -45t-70 -12q-30 0 -49 7.5t-30.5 19t-16 26.5t-4.5 30q0 7 3 15.5t9.5 16t16.5 13t23 5.5q25 0 40 -12t15 -38q0 -17 -19 -44q0 -12 5 -16
t10 -4q56 0 93 50.5t70 160.5q17 56 30 100t23.5 84t21 80.5t22.5 89.5q4 14 6 28t2 23q0 22 -8.5 30t-22.5 8q-35 0 -59 -35.5t-49 -99.5l-19 7q13 33 27 61t30.5 48t37 31.5t47.5 11.5q17 0 34.5 -5t31.5 -15t23 -26t9 -38zM328 653q0 -29 -16.5 -50t-47.5 -21
q-25 0 -37.5 16.5t-12.5 39.5q0 29 18 49.5t50 20.5q21 0 33.5 -17t12.5 -38z" />
    <glyph glyph-name="k" unicode="k" horiz-adv-x="547" 
d="M547 390q0 -23 -15.5 -43t-41.5 -20q-15 0 -29 9.5t-14 23.5q0 20 5 29t12 14t13 9t8 15q-4 11 -10 15t-20 4t-24 -11t-19 -27.5t-19.5 -37.5t-25.5 -41t-36 -37t-52 -26q14 -5 29 -11.5t27 -17t20 -26t8 -38.5q0 -41 -8.5 -69.5t-8.5 -53.5q0 -24 10 -30t24 -6
q36 0 62 34t50 98l19 -6q-27 -67 -59.5 -109t-84.5 -42q-20 0 -39.5 3.5t-34.5 12.5t-24 24t-9 38q0 17 3 35t7 35t7 32.5t3 26.5q0 31 -20 45t-52 14q-8 0 -15 -0.5t-16 -1.5l-81 -253h-88l193 609q8 26 11 41.5t3 25.5q0 17 -11 23.5t-28 8.5q-20 2 -31 2.5t-29 1.5v20
l218 10l-151 -468q11 -1 20 -1h24q32 0 53 14t37 35t29 45t28.5 45t36.5 35t53 14q49 0 66 -19.5t17 -51.5z" />
    <glyph glyph-name="l" unicode="l" horiz-adv-x="294" 
d="M134 126q-8 -23 -13.5 -44t-5.5 -32q0 -24 10.5 -30t24.5 -6q36 0 61.5 34t50.5 98l18 -6q-14 -33 -28 -61t-30.5 -48t-37 -31t-47.5 -11q-16 0 -34 3.5t-33 12t-25 23.5t-10 38q0 18 5.5 39.5t12.5 44.5l145 459q8 26 11 41.5t3 25.5q0 17 -11.5 23.5t-28.5 8.5
q-19 2 -30.5 2.5t-29.5 1.5v20l219 10z" />
    <glyph glyph-name="m" unicode="m" horiz-adv-x="859" 
d="M847 140q-14 -33 -28 -61t-30.5 -48t-37 -31t-47.5 -11q-16 0 -34.5 3.5t-34.5 12.5t-27 24t-11 38q0 18 6.5 38t15.5 45l59 156q7 18 13 39.5t6 35.5q0 16 -4.5 25.5t-12 14.5t-16.5 6.5t-19 1.5q-20 0 -38 -8t-34 -21.5t-29.5 -30.5t-25.5 -35l-109 -334h-91l106 320
q5 13 9 30t4 31q0 16 -4.5 25.5t-12 14.5t-17 6.5t-19.5 1.5q-20 0 -41 -11.5t-39.5 -29.5t-34.5 -40t-26 -43l-101 -305h-90l108 320q3 9 6.5 21t6 24t4.5 21.5t2 14.5q0 22 -7 29t-21 7q-35 0 -59 -35.5t-49 -99.5l-20 7q13 33 27 61t30.5 48t37 31.5t47.5 11.5
q16 0 32.5 -3.5t29.5 -13.5t21.5 -28t8.5 -46l4 -1q28 38 63.5 65t78.5 27q27 0 47.5 -8t35 -21.5t22 -30t8.5 -32.5h4q13 17 28 33.5t33 29.5t37.5 21t41.5 8q25 0 46.5 -9t37.5 -24.5t25 -36t9 -42.5q0 -11 -6 -33.5t-13 -40.5l-56 -147q-10 -26 -16 -46.5t-6 -31.5
q0 -24 11.5 -30t25.5 -6q35 0 60 34t50 98l19 -6v0z" />
    <glyph glyph-name="n" unicode="n" horiz-adv-x="599" 
d="M587 140q-14 -33 -28 -61t-30.5 -48t-37 -31t-47.5 -11q-16 0 -34.5 3.5t-34.5 12.5t-27 24t-11 38q0 18 6 37.5t16 45.5l59 156q7 18 13 39.5t6 35.5q0 16 -4 25.5t-11 14.5t-15.5 6.5t-18.5 1.5q-20 0 -40.5 -10t-39.5 -27t-35.5 -39.5t-29.5 -47.5l-101 -305h-90
l108 320q3 9 6.5 21t6 24t4.5 21.5t2 14.5q0 21 -7 28.5t-21 7.5q-35 0 -59 -35.5t-49 -99.5l-20 7q13 33 27 61t30.5 48t37 31.5t47.5 11.5q16 0 32.5 -3.5t29.5 -13.5t21.5 -28t8.5 -46l4 -1q26 36 62 64t80 28q25 0 46 -9t36.5 -24.5t24 -36t8.5 -42.5q0 -11 -6 -33.5
t-13 -40.5l-56 -147q-10 -26 -16 -46.5t-6 -31.5q0 -24 11.5 -30t25.5 -6q35 0 60 34t50 98l19 -6v0z" />
    <glyph glyph-name="o" unicode="o" horiz-adv-x="481" 
d="M361 307q0 69 -21 103t-48 34q-39 0 -71 -30.5t-54 -76t-34 -98.5t-12 -97q0 -69 20 -103t49 -34q42 0 74 30.5t53.5 76t32.5 98t11 97.5zM455 285q0 -40 -17.5 -92t-52 -98t-87.5 -77.5t-123 -31.5q-26 0 -52 10t-47.5 31t-35 54t-13.5 80q0 40 17.5 92t52.5 98t87.5 78
t122.5 32q25 0 51.5 -10t48 -31t35 -54.5t13.5 -80.5z" />
    <glyph glyph-name="p" unicode="p" horiz-adv-x="564" 
d="M449 324q0 34 -6.5 54.5t-16 31.5t-20.5 14t-21 3q-42 0 -76 -29t-57 -66l-77 -247q11 -42 33 -59t58 -17q39 0 72.5 32.5t58 80.5t38.5 103t14 99zM543 304q0 -39 -18.5 -93.5t-54.5 -104t-88.5 -84.5t-119.5 -35q-15 0 -30.5 4.5t-28.5 13t-22.5 20t-13.5 26.5h-4
l-50 -162q-14 -48 -14 -67q0 -17 12 -23.5t29 -8.5q19 -2 28 -2.5l27 -1.5v-20h-282v19q35 0 50.5 5.5t24.5 16.5q14 16 23 41t15 43l135 429q3 9 6 20t5.5 21.5t4 19t1.5 13.5q0 25 -6.5 34t-20.5 9q-33 0 -58 -35.5t-50 -99.5l-20 7q13 33 27 61t30.5 48t37 31.5
t47.5 11.5q17 0 33 -5t28 -16t19 -28.5t7 -42.5l4 -1q30 38 65.5 65.5t79.5 27.5q25 0 50.5 -7t45.5 -24.5t33 -48t13 -77.5z" />
    <glyph glyph-name="q" unicode="q" horiz-adv-x="518" 
d="M394 362q-13 42 -35.5 60t-57.5 18q-26 0 -50 -15t-44.5 -40.5t-37 -58.5t-28.5 -68t-18.5 -70t-6.5 -65q0 -35 6 -55t15 -30.5t20 -13.5t21 -3q43 0 79 28t59 67l78 246v0zM333 -111q-8 -24 -11 -40.5t-3 -26.5q0 -17 11.5 -23.5t28.5 -8.5q9 -1 15 -1.5t10.5 -1t10 -1
t14.5 -0.5v-20h-286v19q66 0 85 22q14 16 23 40t15 44l53 167l-4 1q-9 -11 -22.5 -24t-31 -23.5t-37.5 -17.5t-41 -7q-25 0 -50 7t-45 24.5t-32.5 48t-12.5 77.5q0 39 18.5 93t54.5 104t88 85t120 35q31 0 59.5 -16t39.5 -48h4l40 58h66z" />
    <glyph glyph-name="r" unicode="r" horiz-adv-x="417" 
d="M446 400q0 -23 -13 -43t-39 -20t-37.5 12.5t-11.5 29.5q0 9 3.5 15.5t8 11.5t8 9t3.5 7q0 7 -1.5 10t-13.5 3q-13 0 -28 -12.5t-29.5 -32t-28 -42t-24.5 -42.5l-94 -306h-89l100 320q3 8 6 20l6 24t5 22t2 15q0 22 -7 29t-21 7q-35 0 -59.5 -36.5t-48.5 -98.5l-20 7
q13 33 27 61t30.5 48t37 31.5t47.5 11.5q16 0 31.5 -5.5t27.5 -17.5t19 -31.5t7 -46.5l4 -1q12 19 24.5 37.5t27.5 32.5t33 23t42 9q32 0 48.5 -19t16.5 -42z" />
    <glyph glyph-name="s" unicode="s" horiz-adv-x="385" 
d="M366 356q0 -28 -12.5 -45.5t-34.5 -17.5q-19 0 -34 9.5t-15 31.5q0 15 8 25t18.5 17t19 12t10.5 9q-1 5 -5 12.5t-13.5 14.5t-25.5 12t-41 5q-12 0 -26 -5t-26 -15t-20 -25.5t-8 -37.5q0 -24 12 -42t30.5 -33t40 -29t40 -31.5t30.5 -40.5t12 -55q0 -27 -14.5 -52.5
t-38.5 -45t-55 -31.5t-64 -12q-41 0 -69.5 11.5t-46 28.5t-25.5 37.5t-8 38.5q0 28 17 48.5t38 20.5q16 0 26.5 -4.5t16.5 -11.5t8 -14.5t2 -13.5q0 -14 -9.5 -29t-34.5 -15q-14 0 -20.5 -1.5t-6.5 -12.5q0 -12 8.5 -23t23 -19.5t32.5 -14t37 -5.5q22 0 42 4.5t35.5 14.5
t24.5 25t9 35q0 29 -12.5 49t-31 36t-40 30.5t-40 31.5t-31 39t-12.5 53q0 24 13 48t34.5 43.5t49.5 32t58 12.5q41 0 65.5 -13t37.5 -30t17 -35t4 -27z" />
    <glyph glyph-name="t" unicode="t" horiz-adv-x="333" 
d="M354 412h-127q-10 -34 -23 -78t-25.5 -86t-22.5 -75.5t-13 -46.5q-6 -23 -12.5 -44t-6.5 -32q0 -24 11.5 -30t25.5 -6q36 0 64 35t53 99l19 -6q-27 -67 -62 -110t-87 -43q-16 0 -34.5 3.5t-34 12t-25.5 23.5t-10 38q0 17 4 33.5t6 24.5q3 11 10 35t16 54.5t19 63
t18.5 60.5t14.5 48.5t8 26.5h-96l11 33h97l44 155h87l-46 -155h128z" />
    <glyph glyph-name="u" unicode="u" horiz-adv-x="593" 
d="M582 140q-14 -33 -28 -61t-30.5 -48t-37 -31t-47.5 -11q-42 0 -68.5 20t-26.5 73l-4 1q-13 -19 -29.5 -36t-35.5 -30.5t-39.5 -21.5t-41.5 -8q-25 0 -46.5 9t-37 24.5t-24 36t-8.5 42.5q0 11 6 32.5t14 41.5l57 147q11 26 16 47.5t5 33.5q0 22 -8 29t-22 7
q-35 0 -59 -35.5t-49 -99.5l-18 7q13 33 26.5 60.5t30 47.5t36.5 31t47 11q16 0 33.5 -4.5t32.5 -13.5t24.5 -24t9.5 -36q0 -18 -5.5 -37.5t-15.5 -45.5l-61 -156q-8 -20 -13.5 -39t-5.5 -33q0 -32 14.5 -41.5t34.5 -9.5q21 0 41 9t38 24t33.5 34t27.5 40l101 320h92
l-105 -318q-2 -8 -5 -18.5t-5.5 -21t-4 -19.5t-1.5 -13q0 -25 9.5 -33.5t23.5 -8.5q35 0 59.5 34t49.5 98l20 -6v0z" />
    <glyph glyph-name="v" unicode="v" horiz-adv-x="522" 
d="M507 381q0 -74 -22 -145t-61 -126.5t-92.5 -89.5t-116.5 -34q-25 0 -49 8.5t-42.5 25t-29.5 41.5t-11 58q0 74 49 142t130 140l-6 5q-37 -23 -68 -35.5t-59 -12.5q-22 0 -35.5 3t-21.5 8l-34 -94l-19 6l61 178h14q7 -14 18 -23t23.5 -15t25.5 -8.5t24 -2.5q35 0 66.5 12
t65.5 42l16 -15q-27 -26 -55 -62.5t-51 -79t-37.5 -91t-14.5 -98.5q0 -27 7.5 -45t19 -28.5t25.5 -14.5t27 -4q28 0 62.5 17t65 49t51.5 79t21 107q0 30 -8 46t-18 28t-18 25t-8 37q0 20 15.5 33.5t36.5 13.5q18 0 28.5 -7t16 -18.5t7 -26t1.5 -28.5z" />
    <glyph glyph-name="w" unicode="w" horiz-adv-x="725" 
d="M504 368q0 17 -11.5 26t-25.5 9t-26 -4t-19 -13q-20 -27 -26.5 -77t-6.5 -119q0 -9 0.5 -25t1.5 -21q22 27 42.5 58.5t36 61.5t25 57t9.5 47zM708 375q0 -74 -21.5 -144t-59 -124.5t-87 -87.5t-104.5 -33q-32 0 -60.5 20t-45.5 57q-35 -35 -70 -55.5t-61 -20.5
q-51 0 -84 33t-33 102q0 74 46.5 140.5t126.5 138.5l-5 5q-38 -23 -66 -35.5t-56 -12.5q-22 0 -35 3t-22 8l-31 -89l-19 6l59 173h14q7 -14 18 -23t24 -15t26 -8.5t24 -2.5q35 0 62 12t61 42l15 -15q-27 -26 -53.5 -60.5t-48.5 -76t-35.5 -90.5t-13.5 -105q0 -53 17 -73.5
t40 -20.5q18 0 44.5 17t46.5 43q-3 15 -6 36t-3 45q0 25 8.5 56.5t22.5 64.5t32 64.5t37.5 56.5t39 40t36.5 15q25 0 33.5 -23.5t8.5 -56.5q0 -25 -11 -56.5t-29.5 -66t-43 -70t-50.5 -67.5q6 -28 17 -45t23.5 -26.5t25 -12.5t20.5 -3q34 0 66 20.5t57 54t40 77t15 90.5
q0 28 -8.5 43.5t-18 27.5t-18 26.5t-8.5 40.5q0 20 13.5 33.5t34.5 13.5q18 0 28.5 -7t16 -19t7 -27.5t1.5 -32.5z" />
    <glyph glyph-name="x" unicode="x" horiz-adv-x="532" 
d="M551 388q0 -21 -7 -38.5t-17.5 -32.5t-23 -28t-24.5 -24l-11 11q5 9 10 23.5t9.5 32.5t7.5 36.5t3 35.5q0 19 -3.5 27.5t-20.5 8.5q-23 0 -43 -14.5t-37 -36.5t-30 -49t-23 -52.5t-16.5 -46t-8.5 -29.5q-8 -32 -15.5 -64.5t-7.5 -52.5q0 -31 7 -47.5t17 -23.5t20 -7.5
t16 -0.5q38 0 69 33.5t56 97.5l18 -6q-26 -67 -64.5 -110t-91.5 -43q-17 0 -38.5 2.5t-41 15t-32.5 39.5t-13 76h-6q-9 -21 -21.5 -44.5t-30.5 -43t-41.5 -32.5t-53.5 -13q-45 0 -62.5 19t-17.5 49q0 23 9 44t21.5 39t27.5 33t27 25l13 -12q-16 -26 -22 -55t-6 -53
q0 -30 2.5 -46.5t18.5 -16.5q33 0 59 25t45.5 60t33 72.5t21.5 62.5q12 38 20.5 72.5t8.5 60.5q0 25 -5.5 39t-13 21t-16 8.5t-15.5 1.5q-36 0 -67.5 -35.5t-56.5 -99.5l-19 7q27 66 64 109t90 43q16 0 36 -3t37 -15t29 -36.5t12 -67.5h5q8 21 21.5 42.5t31 39t39 29
t45.5 11.5q29 0 51 -16t22 -57z" />
    <glyph glyph-name="y" unicode="y" horiz-adv-x="538" 
d="M435 106q-29 -92 -67 -157.5t-82.5 -107t-95 -61t-102.5 -19.5q-44 0 -70 10.5t-39.5 25.5t-18 31t-4.5 27q0 20 6 33t15.5 21t21 11.5t23.5 3.5q23 0 34.5 -15.5t11.5 -26.5q0 -29 -9 -38.5t-20 -11.5t-21 -3t-13 -14q1 -14 10 -21.5t21 -10.5t24 -3h22q36 0 71 17
t68.5 52.5t63.5 91t55 132.5l-4 1q-26 -34 -62.5 -60t-79.5 -26q-25 0 -46.5 9t-37 24.5t-24 36t-8.5 42.5q0 11 6 33t14 42l57 145q11 26 16.5 48.5t5.5 34.5q0 22 -7.5 28t-21.5 6q-35 0 -59.5 -35.5t-49.5 -99.5l-18 7q13 33 26.5 61t30 48t37 31.5t47.5 11.5
q16 0 33.5 -4.5t32 -13.5t24 -24t9.5 -36q0 -18 -6 -38.5t-16 -46.5l-62 -154q-8 -20 -13.5 -39.5t-5.5 -33.5q0 -32 15 -41t35 -9q21 0 41 8t38 21t33.5 30t27.5 34l103 332h89z" />
    <glyph glyph-name="z" unicode="z" horiz-adv-x="418" 
d="M449 430q0 -9 -2 -17t-8.5 -17.5t-18 -20.5t-29.5 -26t-53 -42.5t-78 -62t-90.5 -71.5t-90.5 -71l1 -6q22 -3 42 -8.5t39 -11t37.5 -9.5t38.5 -4q38 0 65 8.5t27 34.5q0 27 -10 36t-30 13l6 18q24 -5 39.5 -15t24.5 -23t12.5 -28.5t3.5 -31.5q0 -17 -8.5 -32.5t-23 -27.5
t-32.5 -19.5t-36 -7.5q-21 0 -48 14t-56 30.5t-57 30.5t-50 14q-10 -3 -14 -7.5t-5.5 -11t-1 -14.5t0.5 -18q0 -39 -42 -39q-9 0 -19 8.5t-10 25.5t16 35t40 38l57.5 47.5t76 62.5t89 70.5t97.5 71.5l-2 5q-28 1 -52.5 6t-45.5 10t-39.5 9.5t-33.5 4.5q-32 0 -49 -7.5
t-17 -32.5t17 -37t39 -19l-9 -16q-15 5 -32 12.5t-32 19t-25 27t-10 36.5q0 18 7.5 35.5t20 30.5t29.5 21t36 8q31 0 55.5 -14t46.5 -30.5t44 -30.5t47 -14q15 0 22.5 3.5t10.5 9.5t3 14v18q0 20 7.5 32.5t24.5 12.5q15 0 26 -6t11 -24z" />
    <glyph glyph-name="braceleft" unicode="{" horiz-adv-x="430" 
d="M506 721q-43 -3 -73 -12.5t-50 -29.5t-31 -52.5t-15 -82.5q-6 -65 -26 -108t-51 -70t-71.5 -42t-86.5 -24l-6 -25q34 -7 60 -16t44 -22.5t27 -33.5t9 -49q0 -31 -8.5 -61t-18 -57.5t-18 -53.5t-8.5 -50q0 -43 23.5 -58.5t83.5 -19.5l-6 -23q-104 0 -146 25t-42 82
q0 33 10 64t21.5 59.5t21.5 56t10 54.5q0 48 -32.5 66t-101.5 23l13 53q52 5 88.5 14t60 29.5t36 55.5t16.5 92q4 65 20.5 110.5t48.5 74t82 41.5t122 13z" />
    <glyph glyph-name="bar" unicode="|" horiz-adv-x="340" 
d="M167 -207v953h48v-953h-48z" />
    <glyph glyph-name="braceright" unicode="}" horiz-adv-x="430" 
d="M419 261q-52 -5 -88.5 -14t-60 -29.5t-36 -55.5t-16.5 -92q-5 -65 -21 -110.5t-48 -74t-82 -41.5t-122 -13l6 23q43 3 73 12.5t50 29.5t30.5 52.5t15.5 82.5q6 65 26 108t51 70t71 42t87 24l6 25q-34 7 -60 16t-44 22.5t-27 33.5t-9 49q0 31 8.5 61t18 57.5t18 53.5
t8.5 50q0 43 -23.5 58.5t-83.5 19.5l6 23q104 0 146 -25t42 -82q0 -33 -10 -64t-21.5 -59.5t-21.5 -56t-10 -54.5q0 -48 32.5 -66t101.5 -23z" />
    <glyph glyph-name="asciitilde" unicode="~" horiz-adv-x="540" 
d="M484 310q-6 -22 -19 -44t-31.5 -40t-41 -29.5t-46.5 -11.5q-30 0 -53.5 7t-44 15t-38.5 15t-37 7q-38 0 -59.5 -12.5t-38.5 -44.5l-20 7q6 22 19 44t31.5 40t41 29.5t46.5 11.5q28 0 51.5 -7t44 -15t39.5 -15t38 -7q38 0 59.5 12.5t38.5 44.5l20 -7v0z" />
    <glyph glyph-name="quotesinglbase" unicode="&#x201a;" horiz-adv-x="185" 
d="M97 39q0 -59 -42.5 -102.5t-111.5 -79.5l-10 23q46 25 76 52.5t38 69.5h-20q-31 0 -47 14.5t-16 36.5q0 10 4.5 21.5t13 21t21 15.5t28.5 6q31 0 48.5 -19t17.5 -59z" />
    <glyph glyph-name="florin" unicode="&#x192;" horiz-adv-x="494" 
d="M548 553q0 -21 -16 -39.5t-42 -18.5q-22 0 -36 10.5t-14 34.5q0 20 15 52q-6 12 -21 12q-48 0 -87 -50t-71 -158l-17 -59h126l-11 -33h-124q-20 -66 -37 -124t-36 -114q-20 -57 -50 -110.5t-78 -91.5q-40 -33 -74.5 -45.5t-71.5 -12.5q-56 0 -77.5 19t-21.5 49
q0 25 15.5 41.5t41.5 16.5q23 0 36.5 -12.5t13.5 -37.5q0 -13 -7 -26.5t-14 -20.5q7 -10 17 -10q28 0 51 12.5t43.5 39t39 66.5t37.5 95q14 42 24.5 76.5t19.5 65.5t17.5 61t18.5 63h-106l10 33h105q22 80 53 134.5t79 97.5q36 32 72.5 43.5t71.5 11.5q45 0 75 -20t30 -51z
" />
    <glyph glyph-name="quotedblbase" unicode="&#x201e;" horiz-adv-x="354" 
d="M93 41q0 -60 -40.5 -104t-114.5 -82l-9 22q46 25 76.5 53.5t38.5 71.5h-18q-29 0 -45.5 15t-16.5 37q0 10 4 20.5t12.5 19.5t20.5 14.5t27 5.5q65 0 65 -73zM262 41q0 -60 -40.5 -104t-114.5 -82l-9 22q46 25 76.5 53.5t38.5 71.5h-18q-29 0 -45.5 15t-16.5 37
q0 10 4 20.5t12.5 19.5t20.5 14.5t27 5.5q65 0 65 -73z" />
    <glyph glyph-name="ellipsis" unicode="&#x2026;" horiz-adv-x="788" 
d="M124 55q0 -26 -19 -44.5t-45 -18.5t-45 18.5t-19 44.5t19 45t45 19t45 -19t19 -45zM398 55q0 -26 -19 -44.5t-45 -18.5t-45 18.5t-19 44.5t19 45t45 19t45 -19t19 -45zM672 55q0 -26 -19 -44.5t-45 -18.5t-45 18.5t-19 44.5t19 45t45 19t45 -19t19 -45z" />
    <glyph glyph-name="dagger" unicode="&#x2020;" horiz-adv-x="412" 
d="M430 478q0 -17 -13.5 -29t-30.5 -12q-18 0 -28.5 10t-18.5 21.5t-15.5 21.5t-17.5 10q-7 0 -10.5 -7.5t-8.5 -21.5q-13 -39 -28 -84.5t-30 -92.5t-29.5 -93t-26.5 -87l-20 6q7 30 15.5 69t17.5 80.5t18 82.5t15.5 74t10.5 55.5t4 26.5q0 15 -13 15q-8 0 -16.5 -5
t-17.5 -10.5t-19 -10.5t-19 -5q-18 0 -31 12.5t-13 30.5q0 17 9 27t23 10q15 0 23 -11.5t8 -27.5q16 0 27.5 5.5t25.5 5.5q11 0 22.5 -6.5t16.5 -14.5q3 18 4.5 38.5t2 40t1.5 36t4 27.5q4 12 12.5 21.5t24.5 9.5t25 -11.5t9 -25.5q0 -12 -7.5 -28.5t-17.5 -35t-20.5 -39
t-17.5 -39.5q9 5 21 5t21 -4t16.5 -10t14.5 -11.5t14 -8.5q11 21 32 21q12 0 21.5 -8.5t9.5 -22.5z" />
    <glyph glyph-name="daggerdbl" unicode="&#x2021;" horiz-adv-x="442" 
d="M337 125q0 -15 -9 -24t-23 -9t-23 11t-9 28q-11 0 -17 -1.5t-16 -1.5q-12 0 -26 5t-22 17q-1 -14 1 -30t2 -36q0 -24 -8.5 -41t-29.5 -17q-16 0 -25 10t-9 26q0 12 5.5 24.5t13.5 24.5t16 23.5t13 20.5q-8 -4 -19 -4q-17 0 -34 8t-29 13q-11 -21 -32 -21q-12 0 -21 8.5
t-9 21.5q0 14 9 24t25 10t26.5 -6.5t19.5 -14.5t17.5 -14.5t20.5 -6.5q8 0 14 9t11 22q3 7 9.5 24.5t14.5 39l16 43t13 38.5l21 -5q-5 -23 -10 -51.5t-9 -54.5t-6.5 -45.5t-2.5 -23.5q0 -11 5.5 -15.5t19.5 -4.5q15 0 26.5 5t27.5 5q15 0 28.5 -8t13.5 -26zM449 543
q0 -14 -9 -24t-25 -10t-26.5 6.5t-19.5 14.5t-17.5 14.5t-20.5 6.5q-8 0 -14 -9t-11 -22q-3 -8 -9.5 -25t-14.5 -38.5t-16 -43.5t-13 -38l-21 5q5 23 10 51.5t9 54.5t6.5 45t2.5 24q0 11 -5.5 15.5t-19.5 4.5q-15 0 -26.5 -5t-27.5 -5q-15 0 -28.5 8t-13.5 26q0 15 9 24
t23 9t23 -11t9 -28q11 0 17 1.5t16 1.5q12 0 26 -5t22 -17q1 14 -1 30t-2 36q0 24 8.5 41t29.5 17q16 0 25 -10t9 -26q0 -12 -5.5 -24.5t-13.5 -24.5t-16 -23.5t-13 -20.5q8 4 19 4q17 0 34 -8t29 -13q11 21 32 21q12 0 21 -8.5t9 -21.5z" />
    <glyph glyph-name="circumflex" unicode="&#x2c6;" 
d="M467 530l-105 135l-183 -135l-11 10q54 58 92.5 100t64.5 71q13 14 20.5 18t29.5 4q19 0 24.5 -3.5t10.5 -16.5q12 -27 29.5 -71.5t42.5 -103.5z" />
    <glyph glyph-name="perthousand" unicode="&#x2030;" horiz-adv-x="1212" 
d="M336 516q0 38 -14.5 58.5t-44.5 20.5q-26 0 -48 -18t-38.5 -46t-26 -62.5t-9.5 -66.5q0 -33 13.5 -55t46.5 -22q23 0 44.5 15.5t38.5 41.5t27.5 60.5t10.5 73.5zM694 203q0 38 -14.5 58.5t-44.5 20.5q-26 0 -48 -18t-38.5 -46t-26 -62.5t-9.5 -66.5q0 -33 13.5 -55
t46.5 -22q23 0 44.5 15.5t38.5 41.5t27.5 60.5t10.5 73.5zM1086 203q0 38 -14.5 58.5t-44.5 20.5q-26 0 -48 -18t-38.5 -46t-26 -62.5t-9.5 -66.5q0 -33 13.5 -55t46.5 -22q23 0 44.5 15.5t38.5 41.5t27.5 60.5t10.5 73.5zM412 494q0 -42 -18 -78t-47 -61.5t-64.5 -40
t-70.5 -14.5q-27 0 -51.5 8.5t-42.5 24.5t-28.5 39t-10.5 51q0 38 16.5 73.5t44.5 62.5t63.5 43.5t73.5 16.5q29 0 53.5 -9t42.5 -25t28.5 -39.5t10.5 -51.5zM100 -98l-25 18l664 770l27 -18zM770 181q0 -42 -18 -78t-47 -61.5t-64.5 -40t-70.5 -14.5q-27 0 -51.5 8.5
t-42.5 24.5t-28.5 39t-10.5 51q0 38 16.5 73.5t44.5 62.5t63.5 43.5t73.5 16.5q29 0 53.5 -9t42.5 -25t28.5 -39.5t10.5 -51.5zM1162 181q0 -42 -18 -78t-47 -61.5t-64.5 -40t-70.5 -14.5q-27 0 -51.5 8.5t-42.5 24.5t-28.5 39t-10.5 51q0 38 16.5 73.5t44.5 62.5t63.5 43.5
t73.5 16.5q29 0 53.5 -9t42.5 -25t28.5 -39.5t10.5 -51.5z" />
    <glyph glyph-name="Scaron" unicode="&#x160;" horiz-adv-x="537" 
d="M522 466h-22q-4 42 -13 78.5t-26 63.5t-43 42.5t-65 15.5q-32 0 -59 -10.5t-46.5 -28t-30.5 -40.5t-11 -48q0 -24 6 -42t19 -33t34 -29t52 -29q47 -24 80 -46t53.5 -45.5t30 -49t9.5 -55.5q0 -50 -22.5 -91.5t-60 -70.5t-86 -45t-100.5 -16q-57 0 -100 16t-65 34l-46 -47
h-34l56 234h23q5 -40 16.5 -77t33.5 -66t55 -46.5t81 -17.5q36 0 65 12.5t49 32t30.5 44.5t10.5 50q0 23 -5.5 42t-19 36t-37 34t-60.5 35q-40 21 -69.5 40t-48.5 40.5t-28.5 48t-9.5 61.5q0 42 19.5 79t53 64.5t78.5 43.5t96 16q44 0 78.5 -15t54.5 -35l47 47h34zM582 923
q-54 -58 -92.5 -100t-64.5 -71q-13 -14 -20.5 -18t-29.5 -4q-19 0 -24.5 3.5t-10.5 16.5q-12 27 -29.5 71.5t-42.5 103.5l15 8l105 -135l183 135l11 -10v0z" />
    <glyph glyph-name="guilsinglleft" unicode="&#x2039;" horiz-adv-x="351" 
d="M130 217l106 -193l-14 -9q-54 56 -96.5 100t-65.5 67q-11 10 -13 14t-2 9q0 2 1.5 9t4.5 15t7.5 16t10.5 12q15 10 43 27.5t63.5 41t76.5 50.5t82 56l11 -12z" />
    <glyph glyph-name="OE" unicode="&#x152;" horiz-adv-x="999" 
d="M561 613q-17 23 -42 33t-67 10q-61 0 -114.5 -35.5t-93 -94.5t-62.5 -135.5t-23 -158.5q0 -52 11 -90.5t30 -63.5t44.5 -37.5t53.5 -12.5q37 0 60 7.5t50 26.5q19 13 36.5 44.5t33.5 71t29 83.5t23 82q11 39 21.5 80t16.5 78t5.5 66t-12.5 46zM993 527h-25v8
q0 43 -18.5 77.5t-51.5 39.5q-16 2 -35 3t-43 1h-108l-81 -289h78q40 0 62 11t33 21q7 6 15 17t15.5 24.5t14 27t10.5 22.5h26l-78 -278h-24q2 9 2.5 21t0.5 24q0 17 -2 31.5t-6 20.5q-3 5 -8 10.5t-13 10t-21 7.5t-34 3h-78l-62 -221q-5 -15 -7.5 -27.5t-2.5 -20.5
q0 -28 23 -35.5t78 -7.5q51 0 96.5 3t67.5 20q17 13 35 32.5t34.5 40t29 39t18.5 29.5h25l-65 -192h-432q-50 0 -86.5 -1t-78.5 -1q-33 0 -60 5.5t-50 16.5t-43.5 29t-40.5 43q-29 35 -40 76.5t-11 94.5q0 36 9 78t27 84t45 82.5t63 73.5q55 51 120 77.5t134 26.5
q31 0 56.5 -0.5t47.5 -0.5q23 0 45 -0.5t46 -0.5h391z" />
    <glyph glyph-name="quoteleft" unicode="&#x2018;" horiz-adv-x="185" 
d="M279 713q-46 -25 -76 -52.5t-38 -69.5h20q31 0 47 -14.5t16 -36.5q0 -10 -4.5 -21.5t-13 -21t-21 -15.5t-28.5 -6q-31 0 -48.5 19t-17.5 59q0 59 42.5 102.5t111.5 79.5l10 -23v0z" />
    <glyph glyph-name="quoteright" unicode="&#x2019;" horiz-adv-x="185" 
d="M272 659q0 -59 -42.5 -102.5t-111.5 -79.5l-10 23q46 25 76 52.5t38 69.5h-20q-31 0 -47 14.5t-16 36.5q0 10 4.5 21.5t13 21t21 15.5t28.5 6q31 0 48.5 -19t17.5 -59z" />
    <glyph glyph-name="quotedblleft" unicode="&#x201c;" horiz-adv-x="354" 
d="M279 713q-46 -25 -76.5 -53.5t-38.5 -71.5h18q29 0 45.5 -15t16.5 -37q0 -10 -4 -20.5t-12.5 -19.5t-20.5 -14.5t-27 -5.5q-65 0 -65 73q0 60 40.5 104t114.5 82l9 -22v0zM448 713q-46 -25 -76.5 -53.5t-38.5 -71.5h18q29 0 45.5 -15t16.5 -37q0 -10 -4 -20.5
t-12.5 -19.5t-20.5 -14.5t-27 -5.5q-65 0 -65 73q0 60 40.5 104t114.5 82l9 -22v0z" />
    <glyph glyph-name="quotedblright" unicode="&#x201d;" horiz-adv-x="354" 
d="M272 664q0 -60 -40.5 -104t-114.5 -82l-9 22q46 25 76.5 53.5t38.5 71.5h-18q-29 0 -45.5 15t-16.5 37q0 10 4 20.5t12.5 19.5t20.5 14.5t27 5.5q65 0 65 -73zM441 664q0 -60 -40.5 -104t-114.5 -82l-9 22q46 25 76.5 53.5t38.5 71.5h-18q-29 0 -45.5 15t-16.5 37
q0 10 4 20.5t12.5 19.5t20.5 14.5t27 5.5q65 0 65 -73z" />
    <glyph glyph-name="bullet" unicode="&#x2022;" horiz-adv-x="413" 
d="M359 325q0 -28 -11 -52.5t-29.5 -42.5t-43 -28.5t-52.5 -10.5t-52.5 10.5t-43 28.5t-29.5 42.5t-11 52.5t11 52.5t29.5 43t43 29.5t52.5 11t52.5 -11t43 -29.5t29.5 -43t11 -52.5z" />
    <glyph glyph-name="endash" unicode="&#x2013;" horiz-adv-x="512" 
d="M464 237h-412l16 58h412z" />
    <glyph glyph-name="emdash" unicode="&#x2014;" horiz-adv-x="900" 
d="M843 227h-752l16 56h752z" />
    <glyph glyph-name="tilde" unicode="&#x2dc;" 
d="M534 690q-9 -17 -24 -39t-33 -41t-39.5 -32t-43.5 -13q-23 0 -40.5 9t-32.5 20t-29.5 20t-32.5 9q-34 0 -55.5 -20.5t-42.5 -52.5l-18 9q9 17 24 39t33 41t39 32t44 13t40.5 -9t32.5 -20t29.5 -20t32.5 -9q34 0 55.5 20.5t42.5 52.5l18 -9v0z" />
    <glyph glyph-name="trademark" unicode="&#x2122;" horiz-adv-x="556" 
d="M325 627q-3 11 -13 26t-20 17q-5 1 -12 1h-12h-12v-164q0 -11 9 -15q3 -1 10.5 -2.5l12.5 -2.5v-9h-100v9q5 1 12.5 1.5t10.5 2.5q9 4 9 15v165h-12h-12t-12 -1q-10 -2 -20 -17t-13 -26h-7v56h188v-56h-7zM532 478v9q4 1 13.5 1.5t12.5 2.5q9 5 9 16v150l-77 -176h-6
q-3 9 -7 20.5t-9 21.5l-56 130v-115q0 -33 10 -41q4 -4 14.5 -6.5t14.5 -3.5v-9h-90v9q4 1 12.5 2.5t13.5 5.5q10 7 10 41v104q0 17 -9 25q-13 8 -25 8v10h71l66 -148l52 122q4 8 5 15.5t2 10.5h75v-10q-4 0 -10.5 -1t-11.5 -3q-9 -3 -9 -15v-147q0 -11 9 -15q3 -2 10.5 -3
t12.5 -2v-9h-103z" />
    <glyph glyph-name="scaron" unicode="&#x161;" horiz-adv-x="385" 
d="M366 356q0 -28 -12.5 -45.5t-34.5 -17.5q-19 0 -34 9.5t-15 31.5q0 15 8 25t18.5 17t19 12t10.5 9q-1 5 -5 12.5t-13.5 14.5t-25.5 12t-41 5q-12 0 -26 -5t-26 -15t-20 -25.5t-8 -37.5q0 -24 12 -42t30.5 -33t40 -29t40 -31.5t30.5 -40.5t12 -55q0 -27 -14.5 -52.5
t-38.5 -45t-55 -31.5t-64 -12q-41 0 -69.5 11.5t-46 28.5t-25.5 37.5t-8 38.5q0 28 17 48.5t38 20.5q16 0 26.5 -4.5t16.5 -11.5t8 -14.5t2 -13.5q0 -14 -9.5 -29t-34.5 -15q-14 0 -20.5 -1.5t-6.5 -12.5q0 -12 8.5 -23t23 -19.5t32.5 -14t37 -5.5q22 0 42 4.5t35.5 14.5
t24.5 25t9 35q0 29 -12.5 49t-31 36t-40 30.5t-40 31.5t-31 39t-12.5 53q0 24 13 48t34.5 43.5t49.5 32t58 12.5q41 0 65.5 -13t37.5 -30t17 -35t4 -27zM478 732q-54 -58 -92.5 -100t-64.5 -71q-13 -14 -20.5 -18t-29.5 -4q-19 0 -24.5 3.5t-10.5 16.5q-12 27 -29.5 71.5
t-42.5 103.5l15 8l105 -135l183 135l11 -10v0z" />
    <glyph glyph-name="guilsinglright" unicode="&#x203a;" horiz-adv-x="351" 
d="M310 242q0 -2 -1.5 -9t-4.5 -15t-7.5 -16t-10.5 -12q-15 -10 -43 -28t-63.5 -41t-76.5 -50.5t-82 -55.5l-11 12l215 203l-106 193l14 9q54 -56 96.5 -100t65.5 -67q11 -10 13 -14t2 -9z" />
    <glyph glyph-name="oe" unicode="&#x153;" horiz-adv-x="709" 
d="M361 307q0 69 -21 103t-48 34q-39 0 -71 -30.5t-54 -76t-34 -98.5t-12 -97q0 -69 20 -103t49 -34q42 0 74 30.5t53.5 76t32.5 98t11 97.5zM636 388q0 24 -10 38.5t-34 14.5q-22 0 -43.5 -18t-40.5 -47.5t-34.5 -66.5t-25.5 -74q53 9 89 28t58 41t31.5 44.5t9.5 39.5z
M705 394q0 -41 -27 -72t-67 -53t-85.5 -35.5t-82.5 -19.5q-5 -25 -10 -49t-5 -45q0 -51 17.5 -76t56.5 -25q27 0 50 10t43 28t37 42.5t32 53.5l18 -9q-23 -44 -47.5 -74.5t-49 -49t-49.5 -26.5t-49 -8q-49 0 -81 20.5t-52 62.5q-15 -16 -33 -31t-40 -26.5t-48.5 -18.5
t-57.5 -7q-26 0 -52 10t-47.5 31t-35 54t-13.5 80q0 40 17.5 92t52.5 98t87.5 78t122.5 32q47 0 78 -25.5t49 -69.5q32 40 78 67.5t108 27.5q34 0 59.5 -16.5t25.5 -50.5z" />
    <glyph glyph-name="Ydieresis" unicode="&#x178;" horiz-adv-x="628" 
d="M735 638q0 -35 -16 -50.5t-42 -15.5q-15 0 -24.5 5t-15.5 12.5t-8.5 15t-2.5 13.5q0 13 4.5 20t9.5 15l-4 5q-15 -4 -33.5 -16t-38.5 -30t-40.5 -41.5t-39.5 -50.5q-11 -16 -24.5 -38t-27 -49t-25.5 -57.5t-20 -62.5l-57 -229q-3 -12 -3 -20q1 -19 23 -29q4 -2 14 -4.5
t22.5 -4.5t24.5 -3.5t19 -1.5l-5 -21h-313l5 21q6 0 16 1t20.5 2.5t20 3t15.5 3.5q20 7 29 21.5t12 27.5l60 245q8 33 9 72t1 64q0 33 -5.5 64t-19.5 55t-37.5 39t-59.5 15q-35 0 -61 -23.5t-43 -76.5l-22 7q52 154 174 154q38 0 68 -17.5t51 -45t32 -63t11 -71.5
q0 -26 -2 -46t-7 -50h9q30 76 64.5 131.5t71.5 91.5t73.5 53.5t70.5 17.5q36 0 51.5 -20t15.5 -38zM407 810q0 -25 -17 -43t-43 -18q-23 0 -40 17t-17 40q0 24 17 41.5t40 17.5q26 0 43 -16.5t17 -38.5zM624 810q0 -25 -17 -43t-42 -18q-24 0 -41 17t-17 40q0 24 17 41.5
t41 17.5q26 0 42.5 -16.5t16.5 -38.5z" />
    <glyph glyph-name="exclamdown" unicode="&#xa1;" horiz-adv-x="365" 
d="M255 469q-14 -71 -23.5 -138.5t-17 -123.5t-13 -96.5t-9.5 -56.5q-8 -29 -26.5 -48.5t-46.5 -19.5q-24 0 -37.5 15t-13.5 41q0 16 13 51t35.5 89t52 127t62.5 165l24 -5v0zM342 631q0 -26 -18 -44t-44 -18t-44 18t-18 44t18 43.5t44 17.5t44 -17.5t18 -43.5z" />
    <glyph glyph-name="cent" unicode="&#xa2;" horiz-adv-x="455" 
d="M323 522q-32 0 -62.5 -32t-54 -80t-38 -104t-14.5 -105q0 -26 6 -46.5t15 -34.5l148 402v0zM444 449q0 -26 -12.5 -46.5t-38.5 -20.5q-17 0 -30 10.5t-13 34.5q0 16 9 31.5t32 27.5q-6 28 -42 34l-155 -416q14 -7 35 -7q55 0 94 38.5t70 95.5l20 -9q-24 -44 -49 -74.5
t-50.5 -49t-50.5 -26.5t-50 -8q-8 0 -16 0.5t-16 1.5l-68 -182l-22 7l66 180q-19 6 -36 17t-30.5 29t-21.5 44t-8 61q0 27 8.5 60.5t24 68.5t39 68.5t53 60t65.5 42.5t78 17l48 131l24 -8l-46 -125q40 -7 64.5 -33t24.5 -55z" />
    <glyph glyph-name="sterling" unicode="&#xa3;" horiz-adv-x="790" 
d="M208 3q-30 14 -64 23t-72 9q-44 0 -64 -19t-20 -42q0 -17 18.5 -28t47.5 -11q45 0 86.5 19t67.5 49zM762 532q0 -38 -13.5 -70.5t-36.5 -55.5t-54.5 -36t-68.5 -13q-43 0 -72 27.5t-29 71.5q0 24 6.5 49t22.5 49l21 -4q-13 -22 -18.5 -45t-5.5 -41q0 -36 18.5 -58
t56.5 -22q24 0 44.5 11.5t36 32t24 47.5t8.5 57q0 23 -5 44.5t-17 38.5t-32 27.5t-50 10.5q-38 0 -70 -13.5t-58.5 -45.5t-46.5 -85.5t-33 -133.5q-4 -23 -6.5 -41t-7.5 -38h170v-22h-173q-5 -22 -12.5 -43.5t-12.5 -35.5h179v-21h-187q-11 -31 -29 -59.5t-34 -48.5
q37 -11 68.5 -26t60 -28.5t57 -22.5t59.5 -9q33 0 56.5 14t40 35.5t28 48t20.5 52.5l24 -7q-9 -38 -27.5 -75t-50 -66.5t-77 -47.5t-109.5 -18q-27 0 -52 7.5t-49.5 19t-49 25t-50.5 26.5q-31 -38 -77 -62t-95 -24t-70.5 20t-21.5 48q0 26 16 46.5t42 34t60.5 20.5t70.5 7
q49 0 90 -9q8 22 9.5 49t4.5 50h-144v21h145l10 79h-137v22h139q15 87 45.5 157t73 120t96 77t113.5 27q48 0 80 -13t51 -34t27 -47t8 -51z" />
    <glyph glyph-name="yen" unicode="&#xa5;" horiz-adv-x="599" 
d="M678 585q-4 0 -11 -2t-15.5 -4.5t-16 -5t-11.5 -4.5q-11 -6 -29 -20t-47 -43t-71.5 -77t-102.5 -122q-8 -10 -15.5 -20.5t-13.5 -21.5h153l-5 -23h-160q-8 -17 -12 -31l-11 -41h162l-5 -23h-164l-17 -63q-3 -14 -3 -20q0 -11 5 -17t16 -11q4 -2 12.5 -4.5t18.5 -4.5
t20.5 -4t17.5 -2l-5 -21h-299l5 21q6 0 16.5 1t21.5 2.5t21 3t16 3.5q20 7 29 20t14 29l19 67h-157l5 23h158l20 72h-157l5 23h154q0 9 -2 19.5t-4 21.5q-14 59 -28 106t-28 95q-15 48 -40 64q-10 7 -24 10t-27 4l6 22h279l-6 -22q-15 -1 -31.5 -3t-31 -5.5t-24 -8.5
t-9.5 -12q0 -5 4 -24.5t12 -51t19.5 -74.5t26.5 -94q42 47 78.5 88.5t63 73t41.5 52t15 25.5q0 8 -7 14t-18.5 10t-25.5 6.5t-28 3.5l6 22h228z" />
    <glyph glyph-name="section" unicode="&#xa7;" horiz-adv-x="550" 
d="M408 164q0 23 -6 40.5t-20 41.5q-35 66 -65.5 118t-50.5 94q-51 -4 -77.5 -31.5t-26.5 -67.5q0 -38 26 -87q35 -65 66.5 -113.5t50.5 -93.5q20 4 38.5 11.5t33 19.5t23 28.5t8.5 39.5zM540 646q0 -37 -22 -59.5t-50 -22.5q-20 0 -34 10.5t-14 29.5q0 21 9.5 29.5t20.5 14
t20.5 11.5t9.5 22q0 33 -61 33q-24 0 -43 -10t-32.5 -27t-21 -38.5t-7.5 -43.5q0 -11 1.5 -21.5t5 -22.5t9.5 -27t15 -35q10 -21 20 -38.5t21 -36.5t23 -39.5t27 -47.5q13 -24 22 -42t14 -32t7 -26t2 -25q0 -41 -14.5 -69t-38.5 -46.5t-54.5 -28t-62.5 -11.5
q9 -23 13.5 -42.5t4.5 -42.5q0 -40 -14.5 -74.5t-39 -60t-58 -40t-71.5 -14.5q-30 0 -52 9t-37 23t-22.5 31.5t-7.5 34.5q0 33 21 55.5t51 22.5q20 0 34 -11t14 -29q0 -19 -9 -27.5t-19.5 -14t-19.5 -12t-9 -21.5q0 -21 17 -29.5t43 -8.5q22 0 41.5 11.5t33 30.5t21.5 43.5
t8 49.5q0 11 -0.5 20.5t-3.5 20.5t-8.5 25.5t-15.5 34.5q-9 20 -19.5 38t-22.5 36.5t-25 39t-27 47.5q-13 23 -21.5 39.5t-13 30t-6 26.5t-1.5 29q0 30 11 58t32.5 49.5t52.5 35t72 16.5q-10 23 -13 40.5t-3 35.5q0 35 13.5 68.5t38 59.5t58 41.5t74.5 15.5q30 0 51.5 -9
t35 -22.5t20 -30t6.5 -30.5z" />
    <glyph glyph-name="dieresis" unicode="&#xa8;" 
d="M304 649q0 -25 -17 -43t-43 -18q-23 0 -40 17t-17 40q0 24 17 41.5t40 17.5q26 0 43 -16.5t17 -38.5zM521 649q0 -25 -17 -43t-42 -18q-24 0 -41 17t-17 40q0 24 17 41.5t41 17.5q26 0 42.5 -16.5t16.5 -38.5z" />
    <glyph glyph-name="copyright" unicode="&#xa9;" horiz-adv-x="942" 
d="M659 153q-12 -26 -28.5 -51t-40 -45t-53.5 -32t-69 -12q-54 0 -98 16.5t-75.5 46.5t-48.5 73.5t-17 97.5q0 52 18.5 96.5t52.5 77t80 51t102 18.5q28 0 59.5 -9t49.5 -22l22 38h27l4 -181h-23q-9 28 -21 54t-30 46t-44 32t-63 12q-26 0 -50.5 -12t-43.5 -37.5t-30.5 -65
t-11.5 -93.5q0 -45 12.5 -81t34 -61.5t51 -39t63.5 -13.5q31 0 54 8.5t40.5 22.5t30.5 33.5t24 41.5l22 -10v0zM855 251q0 82 -30.5 154t-84 125.5t-125 84.5t-153.5 31q-83 0 -155 -31t-125 -84.5t-84 -125.5t-31 -154q0 -83 31 -155.5t84 -126.5t125 -85t155 -31
q82 0 153.5 31t125 85t84 126.5t30.5 155.5zM893 251q0 -89 -34 -168t-93 -137.5t-137.5 -92.5t-166.5 -34q-89 0 -168 34t-138 92.5t-93 137.5t-34 168q0 88 34 166.5t93 137t138 92.5t168 34q88 0 166.5 -34t137.5 -92.5t93 -137t34 -166.5z" />
    <glyph glyph-name="ordfeminine" unicode="&#xaa;" horiz-adv-x="370" 
d="M284 564q-5 20 -13.5 29t-26.5 9q-20 0 -37 -17t-30 -42.5t-20 -54t-7 -52.5q0 -29 9 -39.5t23 -10.5q17 0 34 14.5t28 34.5l40 129v0zM287 267h-225l7 25h225zM377 448q-16 -36 -32.5 -60t-46.5 -24q-47 0 -51 44h-3q-17 -21 -34.5 -33.5t-40.5 -12.5q-14 0 -27.5 4
t-24 14t-17.5 26.5t-7 42.5q0 21 10 50.5t29.5 56.5t48 45.5t65.5 18.5q18 0 31.5 -8t18.5 -26h2l9 31h52l-60 -175q-4 -10 -6 -21.5t-2 -16.5q0 -11 4.5 -15t10.5 -4q30 0 54 68l17 -5v0z" />
    <glyph glyph-name="guillemotleft" unicode="&#xab;" horiz-adv-x="560" 
d="M130 217l106 -193l-14 -9q-54 56 -96.5 100t-65.5 67q-11 10 -13 14t-2 9q0 2 1.5 9t4.5 15t7.5 16t10.5 12q15 10 43 27.5t63.5 41t76.5 50.5t82 56l11 -12zM339 217l106 -193l-14 -9q-54 56 -96.5 100t-65.5 67q-11 10 -13 14t-2 9q0 2 1.5 9t4.5 15t7.5 16t10.5 12
q15 10 43 27.5t63.5 41t76.5 50.5t82 56l11 -12z" />
    <glyph glyph-name="registered" unicode="&#xae;" horiz-adv-x="474" 
d="M351 559q0 26 -12 33.5t-29 7.5h-24v-85h16q20 0 34.5 9t14.5 35zM427 445q0 -22 -8.5 -32t-28.5 -10q-37 0 -43 51q-2 17 -10 33t-34 16h-17v-69q0 -11 9 -15q3 -1 9 -2t11 -1v-10h-94v10q4 0 10.5 1t9.5 2q9 4 9 15v148q0 12 -9 15q-5 2 -10.5 3t-9.5 1v10h105
q11 0 23 -2.5t21.5 -8t15.5 -14.5t6 -21t-6 -21t-15 -15t-19 -10t-18 -6v-3q11 -2 26 -8.5t20 -23.5q3 -12 5 -23t5 -22q2 -8 6 -10.5t8 -2.5q6 0 9.5 4.5t3.5 20.5h10v0zM476 501q0 35 -12 65t-34 52.5t-51.5 35.5t-64.5 13t-64.5 -13t-51.5 -35.5t-34 -52.5t-12 -65
t12 -65t34 -52.5t51.5 -35.5t64.5 -13t64.5 13t51.5 35.5t34 52.5t12 65zM496 501q0 -39 -14 -72t-38.5 -57.5t-57.5 -38.5t-72 -14t-72 14t-57.5 38.5t-38.5 57.5t-14 72t14 72t38.5 57.5t57.5 38.5t72 14t72 -14t57.5 -38.5t38.5 -57.5t14 -72z" />
    <glyph glyph-name="macron" unicode="&#xaf;" 
d="M518 596h-330l16 62h330z" />
    <glyph glyph-name="degree" unicode="&#xb0;" horiz-adv-x="387" 
d="M330 581q0 48 -23.5 72.5t-61.5 24.5q-24 0 -42 -12t-30 -31.5t-18 -43t-6 -46.5q0 -44 23.5 -71.5t61.5 -27.5q22 0 39.5 10.5t30 29t19.5 43t7 52.5zM389 568q0 -32 -11.5 -60t-31.5 -48.5t-47.5 -32.5t-59.5 -12q-29 0 -55.5 10t-47 28t-33 43.5t-12.5 57.5
q0 33 12 61.5t32.5 49t48.5 32.5t61 12q27 0 53 -9.5t46 -27.5t32.5 -44.5t12.5 -59.5z" />
    <glyph glyph-name="plusminus" unicode="&#xb1;" horiz-adv-x="894" 
d="M524 601q-24 2 -37.5 13t-13.5 36q0 11 1.5 24.5t2.5 23.5q-5 11 -12 13.5t-16 2.5q-27 0 -52 -11t-48.5 -36t-43.5 -64t-36 -95l-18 -63h211l12 40q10 32 22 61t28 55zM734 126q-8 -23 -13.5 -44t-5.5 -32q0 -24 11 -30t25 -6q36 0 61.5 34t50.5 98l18 -6
q-14 -33 -28 -61t-30.5 -48t-37 -31t-47.5 -11q-16 0 -34 3.5t-33.5 12t-25.5 23.5t-10 38q0 18 5 39.5t13 44.5l156 493q-8 2 -13.5 5t-9 9.5t-4.5 17t-1 28.5q-5 11 -20.5 15.5t-24.5 4.5q-51 0 -94 -51t-73 -157l-20 -70h126l-11 -33h-124q-12 -46 -25 -97t-26.5 -102
t-26.5 -99.5t-26 -89.5q-18 -58 -46.5 -111t-74.5 -91q-39 -33 -66.5 -45.5t-59.5 -12.5q-30 0 -49 7t-30 18t-15.5 25t-4.5 29q0 19 13 36t38 17q8 0 17.5 -2.5t17.5 -8t13.5 -15t5.5 -23.5q0 -13 -5.5 -23t-14.5 -23q0 -10 6.5 -14t11.5 -4q25 0 45 12t37.5 37.5t33.5 66
t34 97.5q37 121 63.5 230.5t46.5 188.5h-210q-12 -46 -25 -97.5t-26.5 -103t-27 -100.5t-26.5 -90q-18 -58 -46.5 -111t-74.5 -91q-39 -33 -71 -45.5t-69 -12.5q-30 0 -49.5 7t-31 18t-16 25.5t-4.5 29.5q0 17 13 34.5t39 17.5q8 0 17.5 -2.5t17.5 -8t13.5 -15t5.5 -22.5
q0 -16 -6 -25t-15 -22q2 -11 8.5 -14.5t11.5 -3.5q55 0 92 51.5t71 161.5q37 121 63.5 229t46.5 187h-106l10 33h106l10 33q18 60 49.5 109.5t83.5 91.5q39 32 77.5 43.5t77.5 11.5q29 0 48 -7t31 -18.5t17 -25.5t7 -28l16.5 16.5t18.5 16.5q38 32 74.5 43.5t74.5 11.5
q26 0 47.5 -8.5t33.5 -19.5l100 23z" />
    <glyph glyph-name="acute" unicode="&#xb4;" 
d="M450 699q0 -20 -15 -35.5t-37 -30.5q-14 -9 -30 -18.5t-36 -22t-46.5 -29t-62.5 -39.5l-11 12q25 28 44 50t34 39t27.5 31.5t24.5 29.5q19 23 36.5 34t37.5 11q17 0 25.5 -10t8.5 -22z" />
    <glyph glyph-name="mu" unicode="&#xb5;" horiz-adv-x="750" 
d="M892 623q0 -35 -20 -53t-43 -18q-12 0 -21 4.5t-15 11.5t-9.5 14t-3.5 13q0 23 9.5 36.5t24.5 18.5q0 5 -5 11t-10 9q-29 0 -50.5 -20t-37 -50t-27 -66t-21.5 -69q-9 -30 -20 -73.5t-23 -92t-23.5 -98.5t-21.5 -92t-17 -73t-9 -42h-34l-242 569q-10 -45 -18.5 -87
t-18 -83t-20 -83.5t-23.5 -88.5q-11 -37 -23 -77.5t-31 -74.5t-48 -56.5t-73 -22.5q-23 0 -40.5 7.5t-29 18.5t-17 23.5t-5.5 21.5q0 35 20 53t43 18q12 0 21 -4.5t15 -11.5t9.5 -14t3.5 -13q0 -22 -9.5 -36t-24.5 -19q0 -5 5 -12.5t10 -10.5q29 0 50.5 19.5t37.5 49.5
t27.5 66t20.5 69q13 46 27.5 101.5t26.5 107t19.5 92t7.5 56.5q0 15 -4 29.5t-12 22.5q-18 19 -44.5 27.5t-56.5 10.5l5 21h200l229 -533q9 46 17.5 85.5t17 76t18 72.5t20.5 77q10 36 22 76t31 74.5t48 57t73 22.5q23 0 40.5 -7t29 -17.5t17 -22.5t5.5 -21z" />
    <glyph glyph-name="paragraph" unicode="&#xb6;" horiz-adv-x="609" 
d="M688 661h-142l-196 -786h-28l196 786h-96l-196 -786h-28l116 467h-10q-97 0 -151 41t-54 109q0 34 15 68t44 61.5t73 44.5t103 17h359z" />
    <glyph glyph-name="periodcentered" unicode="&#xb7;" horiz-adv-x="282" 
d="M216 272q0 -27 -19 -45.5t-46 -18.5t-46 18.5t-19 45.5t19 46t46 19t46 -19t19 -46z" />
    <glyph glyph-name="periodcentered" unicode="&#x2219;" horiz-adv-x="282" 
d="M216 272q0 -27 -19 -45.5t-46 -18.5t-46 18.5t-19 45.5t19 46t46 19t46 -19t19 -46z" />
    <glyph glyph-name="cedilla" unicode="&#xb8;" 
d="M260 -120q0 -29 -17.5 -49.5t-49 -33t-75 -18.5t-95.5 -6l6 23q72 2 112 14.5t40 43.5q0 20 -18.5 27t-57.5 7l39 120h28l-20 -63q23 0 43 -3t34.5 -10.5t22.5 -20t8 -31.5z" />
    <glyph glyph-name="ordmasculine" unicode="&#xba;" horiz-adv-x="327" 
d="M272 537q0 35 -10.5 50.5t-23.5 15.5q-20 0 -36.5 -15.5t-28.5 -39t-18.5 -51t-6.5 -50.5q0 -35 10 -51t25 -16q22 0 38.5 15.5t27.5 39t17 51t6 51.5zM287 267h-225l7 25h225zM327 524q0 -22 -9.5 -50t-28.5 -53t-48 -42t-67 -17q-14 0 -28 5.5t-26 17t-19.5 29.5
t-7.5 44q0 21 9.5 49t29 53t48 42.5t66.5 17.5q13 0 27.5 -5.5t26.5 -17t19.5 -30t7.5 -43.5z" />
    <glyph glyph-name="guillemotright" unicode="&#xbb;" horiz-adv-x="560" 
d="M310 242q0 -2 -1.5 -9t-4.5 -15t-7.5 -16t-10.5 -12q-15 -10 -43 -28t-63.5 -41t-76.5 -50.5t-82 -55.5l-11 12l215 203l-106 193l14 9q54 -56 96.5 -100t65.5 -67q11 -10 13 -14t2 -9zM519 242q0 -2 -1.5 -9t-4.5 -15t-7.5 -16t-10.5 -12q-15 -10 -43 -28t-63.5 -41
t-76.5 -50.5t-82 -55.5l-11 12l215 203l-106 193l14 9q54 -56 96.5 -100t65.5 -67q11 -10 13 -14t2 -9z" />
    <glyph glyph-name="questiondown" unicode="&#xbf;" horiz-adv-x="428" 
d="M350 429q0 -53 -36.5 -89.5t-112.5 -72.5q-37 -18 -60.5 -34.5t-37 -34.5t-19 -37.5t-5.5 -42.5q0 -17 7 -35.5t21.5 -34t36.5 -25.5t53 -10q23 0 43 7.5t34.5 20.5t22.5 29.5t8 34.5q0 29 -18 51.5t-51 22.5q-15 0 -23 -4v-6q6 0 13 -2t14 -7t11.5 -12t4.5 -17
q0 -20 -12.5 -33t-32.5 -13q-24 0 -38.5 13t-14.5 36q0 29 20.5 47t55.5 18q36 0 62.5 -26t26.5 -67q0 -24 -10.5 -45.5t-29.5 -37t-46.5 -25t-60.5 -9.5q-40 0 -72.5 12t-55 33.5t-34.5 50t-12 61.5q0 24 6 48t21 45.5t40 41.5t64 37q31 13 60.5 27t53 31t38 38t14.5 48
q0 31 -15 39.5t-32 8.5q-14 0 -25 -7.5t-20 -19.5t-14.5 -26.5t-8.5 -28.5l-22 7q4 22 14 39t23 29t28 18.5t28 6.5q39 0 67 -24t28 -75zM381 634q0 -26 -18 -44t-44 -18t-44 18t-18 44t18 43.5t44 17.5t44 -17.5t18 -43.5z" />
    <glyph glyph-name="Agrave" unicode="&#xc0;" horiz-adv-x="635" 
d="M425 556l-200 -256h200v256zM600 0h-292l6 21q23 2 44.5 5t34.5 8q20 8 26 22.5t6 29.5v184h-226q-13 -18 -27.5 -38t-28 -39t-25.5 -36t-20 -28q-14 -20 -25 -36.5t-11 -24.5q0 -11 11 -19.5t27 -14.5t32.5 -9t28.5 -4l-6 -21h-275l6 21q11 1 32 6.5t38 13.5
q23 11 44.5 31.5t43.5 46.5q52 64 108 135t113.5 144.5t115 148.5t113.5 147h28v-605q0 -21 4 -34t19 -21q11 -6 29 -9t32 -4zM523 727q-24 25 -40.5 42t-28.5 29l-21.5 21.5t-19.5 18.5q-30 28 -30 57q0 16 10 27t27 11q20 0 31.5 -13t22.5 -38q6 -15 12 -29t13.5 -30.5
t16.5 -37t22 -48.5z" />
    <glyph glyph-name="Aacute" unicode="&#xc1;" horiz-adv-x="635" 
d="M425 556l-200 -256h200v256zM600 0h-292l6 21q23 2 44.5 5t34.5 8q20 8 26 22.5t6 29.5v184h-226q-13 -18 -27.5 -38t-28 -39t-25.5 -36t-20 -28q-14 -20 -25 -36.5t-11 -24.5q0 -11 11 -19.5t27 -14.5t32.5 -9t28.5 -4l-6 -21h-275l6 21q11 1 32 6.5t38 13.5
q23 11 44.5 31.5t43.5 46.5q52 64 108 135t113.5 144.5t115 148.5t113.5 147h28v-605q0 -21 4 -34t19 -21q11 -6 29 -9t32 -4zM680 890q0 -20 -15 -35.5t-37 -30.5q-14 -9 -30 -18.5t-36 -22t-46.5 -29t-62.5 -39.5l-11 12q25 28 44 50t34 39t27.5 31.5t24.5 29.5
q19 23 36.5 34t37.5 11q17 0 25.5 -10t8.5 -22z" />
    <glyph glyph-name="Acircumflex" unicode="&#xc2;" horiz-adv-x="635" 
d="M425 556l-200 -256h200v256zM600 0h-292l6 21q23 2 44.5 5t34.5 8q20 8 26 22.5t6 29.5v184h-226q-13 -18 -27.5 -38t-28 -39t-25.5 -36t-20 -28q-14 -20 -25 -36.5t-11 -24.5q0 -11 11 -19.5t27 -14.5t32.5 -9t28.5 -4l-6 -21h-275l6 21q11 1 32 6.5t38 13.5
q23 11 44.5 31.5t43.5 46.5q52 64 108 135t113.5 144.5t115 148.5t113.5 147h28v-605q0 -21 4 -34t19 -21q11 -6 29 -9t32 -4zM637 691l-105 135l-183 -135l-11 10q54 58 92.5 100t64.5 71q13 14 20.5 18t29.5 4q19 0 24.5 -3.5t10.5 -16.5q12 -27 29.5 -71.5t42.5 -103.5z
" />
    <glyph glyph-name="Atilde" unicode="&#xc3;" horiz-adv-x="635" 
d="M425 556l-200 -256h200v256zM600 0h-292l6 21q23 2 44.5 5t34.5 8q20 8 26 22.5t6 29.5v184h-226q-13 -18 -27.5 -38t-28 -39t-25.5 -36t-20 -28q-14 -20 -25 -36.5t-11 -24.5q0 -11 11 -19.5t27 -14.5t32.5 -9t28.5 -4l-6 -21h-275l6 21q11 1 32 6.5t38 13.5
q23 11 44.5 31.5t43.5 46.5q52 64 108 135t113.5 144.5t115 148.5t113.5 147h28v-605q0 -21 4 -34t19 -21q11 -6 29 -9t32 -4zM727 861q-9 -17 -24 -39t-33 -41t-39.5 -32t-43.5 -13q-23 0 -40.5 9t-32.5 20t-29.5 20t-32.5 9q-34 0 -55.5 -20.5t-42.5 -52.5l-18 9
q9 17 24 39t33 41t39 32t44 13t40.5 -9t32.5 -20t29.5 -20t32.5 -9q34 0 55.5 20.5t42.5 52.5l18 -9v0z" />
    <glyph glyph-name="Adieresis" unicode="&#xc4;" horiz-adv-x="635" 
d="M425 556l-200 -256h200v256zM600 0h-292l6 21q23 2 44.5 5t34.5 8q20 8 26 22.5t6 29.5v184h-226q-13 -18 -27.5 -38t-28 -39t-25.5 -36t-20 -28q-14 -20 -25 -36.5t-11 -24.5q0 -11 11 -19.5t27 -14.5t32.5 -9t28.5 -4l-6 -21h-275l6 21q11 1 32 6.5t38 13.5
q23 11 44.5 31.5t43.5 46.5q52 64 108 135t113.5 144.5t115 148.5t113.5 147h28v-605q0 -21 4 -34t19 -21q11 -6 29 -9t32 -4zM472 810q0 -25 -17 -43t-43 -18q-23 0 -40 17t-17 40q0 24 17 41.5t40 17.5q26 0 43 -16.5t17 -38.5zM689 810q0 -25 -17 -43t-42 -18
q-24 0 -41 17t-17 40q0 24 17 41.5t41 17.5q26 0 42.5 -16.5t16.5 -38.5z" />
    <glyph glyph-name="Aring" unicode="&#xc5;" horiz-adv-x="635" 
d="M425 556l-200 -256h200v256zM600 0h-292l6 21q23 2 44.5 5t34.5 8q20 8 26 22.5t6 29.5v184h-226q-13 -18 -27.5 -38t-28 -39t-25.5 -36t-20 -28q-14 -20 -25 -36.5t-11 -24.5q0 -11 11 -19.5t27 -14.5t32.5 -9t28.5 -4l-6 -21h-275l6 21q11 1 32 6.5t38 13.5
q23 11 44.5 31.5t43.5 46.5q52 64 108 135t113.5 144.5t115 148.5t113.5 147h28v-605q0 -21 4 -34t19 -21q11 -6 29 -9t32 -4zM595 829q0 30 -16 48t-42 18q-29 0 -46.5 -25t-17.5 -59q0 -30 16 -48t42 -18q15 0 27 7.5t20.5 19.5t12.5 27t4 30zM639 820q0 -21 -7.5 -39
t-21 -31.5t-32.5 -21t-41 -7.5q-46 0 -77 27t-31 71q0 41 28.5 70.5t75.5 29.5q22 0 41.5 -7.5t34 -21t22.5 -31.5t8 -39z" />
    <glyph glyph-name="AE" unicode="&#xc6;" horiz-adv-x="947" 
d="M543 645l-287 -340h207l90 340h-10zM510 119q-5 -15 -7.5 -27.5t-2.5 -20.5q0 -28 23 -35.5t78 -7.5q51 0 96.5 3t67.5 20q17 13 35 32.5t34.5 40t29 39t18.5 29.5h25l-65 -192h-574l7 21q5 0 16.5 1t24.5 2.5t25 4t18 4.5q19 7 28.5 20t14.5 30l53 191h-225
q-14 -16 -30.5 -36t-33 -39.5t-30.5 -37t-23 -29.5q-27 -35 -36 -56q-6 -14 2 -23.5t23 -16t33 -10t30 -4.5l-6 -22h-275l6 22q15 1 38.5 6t40.5 13q23 11 45.5 31.5t45.5 46.5q106 124 221 258.5t230 271.5q-6 2 -16 4t-21.5 3.5t-22.5 3t-19 1.5l5 22h547l-43 -156h-25v8
q0 43 -18.5 77.5t-51.5 39.5q-16 2 -35 3t-43 1h-108l-81 -289h78q40 0 62 11t33 21q7 6 15 17t15.5 24.5t14 27t10.5 22.5h26l-78 -278h-24q2 9 2.5 21t0.5 24q0 17 -2 31.5t-6 20.5q-3 5 -8 10.5t-13 10t-21 7.5t-34 3h-78z" />
    <glyph glyph-name="Ccedilla" unicode="&#xc7;" horiz-adv-x="628" 
d="M630 446h-24q-5 48 -15 88.5t-29.5 70t-51.5 46t-80 16.5q-50 0 -98.5 -31t-86.5 -85.5t-62 -128t-24 -158.5q0 -51 11 -94.5t34.5 -75t58.5 -49.5t83 -18q39 0 70.5 11.5t58.5 32.5t51.5 50.5t48.5 65.5l23 -14q-23 -35 -50 -68.5t-62 -60t-79 -43t-101 -16.5h-15
l-13 -40q23 0 43 -3t34.5 -10.5t22.5 -20t8 -31.5q0 -29 -17.5 -49.5t-49 -33t-75 -18.5t-95.5 -6l6 23q72 2 112 14.5t40 43.5q0 20 -18.5 27t-57.5 7l32 99q-106 12 -160.5 80.5t-54.5 178.5q0 95 34.5 177t90.5 143t127.5 95.5t146.5 34.5q53 0 85 -13.5t64 -40.5l41 51
h41z" />
    <glyph glyph-name="Egrave" unicode="&#xc8;" horiz-adv-x="637" 
d="M631 527h-25v8q0 43 -18.5 77.5t-51.5 39.5q-16 2 -35 3t-43 1h-108l-81 -289h78q40 0 62 11t33 21q7 6 15 17t15.5 24.5t14 27t10.5 22.5h26l-78 -278h-24q2 9 2.5 21t0.5 24q0 17 -2 31.5t-6 20.5q-3 5 -8 10.5t-13 10t-21 7.5t-34 3h-78l-62 -221q-5 -15 -7.5 -27.5
t-2.5 -20.5q0 -28 23 -35.5t78 -7.5q51 0 96.5 3t67.5 20q17 13 35 32.5t34.5 40t29 39t18.5 29.5h25l-65 -192h-574l7 21q5 0 16.5 1t24.5 2.5t25 4t18 4.5q19 7 28.5 20t14.5 30l141 510q2 7 3 13t1 11q0 10 -4.5 16t-15.5 11q-6 3 -16 5.5t-21 5t-21 4.5t-17 2l7 22h525z
M439 716q-24 25 -40.5 42t-28.5 29l-21.5 21.5t-19.5 18.5q-30 28 -30 57q0 16 10 27t27 11q20 0 31.5 -13t22.5 -38q6 -15 12 -29t13.5 -30.5t16.5 -37t22 -48.5z" />
    <glyph glyph-name="Eacute" unicode="&#xc9;" horiz-adv-x="637" 
d="M631 527h-25v8q0 43 -18.5 77.5t-51.5 39.5q-16 2 -35 3t-43 1h-108l-81 -289h78q40 0 62 11t33 21q7 6 15 17t15.5 24.5t14 27t10.5 22.5h26l-78 -278h-24q2 9 2.5 21t0.5 24q0 17 -2 31.5t-6 20.5q-3 5 -8 10.5t-13 10t-21 7.5t-34 3h-78l-62 -221q-5 -15 -7.5 -27.5
t-2.5 -20.5q0 -28 23 -35.5t78 -7.5q51 0 96.5 3t67.5 20q17 13 35 32.5t34.5 40t29 39t18.5 29.5h25l-65 -192h-574l7 21q5 0 16.5 1t24.5 2.5t25 4t18 4.5q19 7 28.5 20t14.5 30l141 510q2 7 3 13t1 11q0 10 -4.5 16t-15.5 11q-6 3 -16 5.5t-21 5t-21 4.5t-17 2l7 22h525z
M625 890q0 -20 -15 -35.5t-37 -30.5q-14 -9 -30 -18.5t-36 -22t-46.5 -29t-62.5 -39.5l-11 12q25 28 44 50t34 39t27.5 31.5t24.5 29.5q19 23 36.5 34t37.5 11q17 0 25.5 -10t8.5 -22z" />
    <glyph glyph-name="Ecircumflex" unicode="&#xca;" horiz-adv-x="637" 
d="M631 527h-25v8q0 43 -18.5 77.5t-51.5 39.5q-16 2 -35 3t-43 1h-108l-81 -289h78q40 0 62 11t33 21q7 6 15 17t15.5 24.5t14 27t10.5 22.5h26l-78 -278h-24q2 9 2.5 21t0.5 24q0 17 -2 31.5t-6 20.5q-3 5 -8 10.5t-13 10t-21 7.5t-34 3h-78l-62 -221q-5 -15 -7.5 -27.5
t-2.5 -20.5q0 -28 23 -35.5t78 -7.5q51 0 96.5 3t67.5 20q17 13 35 32.5t34.5 40t29 39t18.5 29.5h25l-65 -192h-574l7 21q5 0 16.5 1t24.5 2.5t25 4t18 4.5q19 7 28.5 20t14.5 30l141 510q2 7 3 13t1 11q0 10 -4.5 16t-15.5 11q-6 3 -16 5.5t-21 5t-21 4.5t-17 2l7 22h525z
M585 721l-105 135l-183 -135l-11 10q54 58 92.5 100t64.5 71q13 14 20.5 18t29.5 4q19 0 24.5 -3.5t10.5 -16.5q12 -27 29.5 -71.5t42.5 -103.5z" />
    <glyph glyph-name="Edieresis" unicode="&#xcb;" horiz-adv-x="637" 
d="M631 527h-25v8q0 43 -18.5 77.5t-51.5 39.5q-16 2 -35 3t-43 1h-108l-81 -289h78q40 0 62 11t33 21q7 6 15 17t15.5 24.5t14 27t10.5 22.5h26l-78 -278h-24q2 9 2.5 21t0.5 24q0 17 -2 31.5t-6 20.5q-3 5 -8 10.5t-13 10t-21 7.5t-34 3h-78l-62 -221q-5 -15 -7.5 -27.5
t-2.5 -20.5q0 -28 23 -35.5t78 -7.5q51 0 96.5 3t67.5 20q17 13 35 32.5t34.5 40t29 39t18.5 29.5h25l-65 -192h-574l7 21q5 0 16.5 1t24.5 2.5t25 4t18 4.5q19 7 28.5 20t14.5 30l141 510q2 7 3 13t1 11q0 10 -4.5 16t-15.5 11q-6 3 -16 5.5t-21 5t-21 4.5t-17 2l7 22h525z
M407 810q0 -25 -17 -43t-43 -18q-23 0 -40 17t-17 40q0 24 17 41.5t40 17.5q26 0 43 -16.5t17 -38.5zM624 810q0 -25 -17 -43t-42 -18q-24 0 -41 17t-17 40q0 24 17 41.5t41 17.5q26 0 42.5 -16.5t16.5 -38.5z" />
    <glyph glyph-name="Igrave" unicode="&#xcc;" horiz-adv-x="388" 
d="M459 661q-7 0 -17.5 -1.5t-21.5 -3t-21.5 -3.5t-17.5 -4q-20 -6 -29.5 -20t-14.5 -30l-144 -515q-3 -14 -3 -20q0 -11 5 -17t16 -11q4 -2 12.5 -4.5t18.5 -4.5t20.5 -4t17.5 -2l-5 -21h-305l5 21q6 0 16.5 1t21.5 2.5t21 3t16 3.5q20 7 29 20t14 29l143 514q2 7 3 12.5
t1 10.5q0 17 -20 27q-5 2 -14 5t-19 5.5t-19 4.5t-15 2l6 22h306zM315 716q-24 25 -40.5 42t-28.5 29l-21.5 21.5t-19.5 18.5q-30 28 -30 57q0 16 10 27t27 11q20 0 31.5 -13t22.5 -38q6 -15 12 -29t13.5 -30.5t16.5 -37t22 -48.5z" />
    <glyph glyph-name="Iacute" unicode="&#xcd;" horiz-adv-x="388" 
d="M459 661q-7 0 -17.5 -1.5t-21.5 -3t-21.5 -3.5t-17.5 -4q-20 -6 -29.5 -20t-14.5 -30l-144 -515q-3 -14 -3 -20q0 -11 5 -17t16 -11q4 -2 12.5 -4.5t18.5 -4.5t20.5 -4t17.5 -2l-5 -21h-305l5 21q6 0 16.5 1t21.5 2.5t21 3t16 3.5q20 7 29 20t14 29l143 514q2 7 3 12.5
t1 10.5q0 17 -20 27q-5 2 -14 5t-19 5.5t-19 4.5t-15 2l6 22h306zM513 890q0 -20 -15 -35.5t-37 -30.5q-14 -9 -30 -18.5t-36 -22t-46.5 -29t-62.5 -39.5l-11 12q25 28 44 50t34 39t27.5 31.5t24.5 29.5q19 23 36.5 34t37.5 11q17 0 25.5 -10t8.5 -22z" />
    <glyph glyph-name="Icircumflex" unicode="&#xce;" horiz-adv-x="388" 
d="M459 661q-7 0 -17.5 -1.5t-21.5 -3t-21.5 -3.5t-17.5 -4q-20 -6 -29.5 -20t-14.5 -30l-144 -515q-3 -14 -3 -20q0 -11 5 -17t16 -11q4 -2 12.5 -4.5t18.5 -4.5t20.5 -4t17.5 -2l-5 -21h-305l5 21q6 0 16.5 1t21.5 2.5t21 3t16 3.5q20 7 29 20t14 29l143 514q2 7 3 12.5
t1 10.5q0 17 -20 27q-5 2 -14 5t-19 5.5t-19 4.5t-15 2l6 22h306zM460 721l-105 135l-183 -135l-11 10q54 58 92.5 100t64.5 71q13 14 20.5 18t29.5 4q19 0 24.5 -3.5t10.5 -16.5q12 -27 29.5 -71.5t42.5 -103.5z" />
    <glyph glyph-name="Idieresis" unicode="&#xcf;" horiz-adv-x="388" 
d="M459 661q-7 0 -17.5 -1.5t-21.5 -3t-21.5 -3.5t-17.5 -4q-20 -6 -29.5 -20t-14.5 -30l-144 -515q-3 -14 -3 -20q0 -11 5 -17t16 -11q4 -2 12.5 -4.5t18.5 -4.5t20.5 -4t17.5 -2l-5 -21h-305l5 21q6 0 16.5 1t21.5 2.5t21 3t16 3.5q20 7 29 20t14 29l143 514q2 7 3 12.5
t1 10.5q0 17 -20 27q-5 2 -14 5t-19 5.5t-19 4.5t-15 2l6 22h306zM288 810q0 -25 -17 -43t-43 -18q-23 0 -40 17t-17 40q0 24 17 41.5t40 17.5q26 0 43 -16.5t17 -38.5zM505 810q0 -25 -17 -43t-42 -18q-24 0 -41 17t-17 40q0 24 17 41.5t41 17.5q26 0 42.5 -16.5
t16.5 -38.5z" />
    <glyph glyph-name="Eth" unicode="&#xd0;" horiz-adv-x="751" 
d="M629 409q0 125 -56 185.5t-157 60.5q-17 0 -33.5 -0.5t-33.5 -1.5l-79 -281h145l-9 -33h-145l-65 -233q-10 -36 9 -56.5t70 -20.5q75 0 139.5 30.5t112.5 82t75 120.5t27 147zM735 418q0 -96 -38.5 -173.5t-103.5 -131.5t-150.5 -83.5t-179.5 -29.5h-296l5 21q6 0 16.5 1
t21.5 2.5t21 3t16 3.5q20 7 29 20t14 29l72 259h-101l9 33h101l62 222q2 7 3 12.5t1 10.5q0 17 -20 27q-5 2 -14 5t-19 5.5t-19 4.5t-15 2l6 22h296q51 0 102 -13.5t91 -45t65 -82t25 -124.5z" />
    <glyph glyph-name="Ntilde" unicode="&#xd1;" horiz-adv-x="737" 
d="M840 662q-7 0 -20 -2.5t-28 -6t-29 -8t-22 -8.5q-26 -14 -41 -50.5t-28 -83.5l-136 -510h-33l-246 574l-99 -377q-3 -9 -5.5 -22.5l-5 -27t-4 -25t-1.5 -17.5q0 -32 13 -45q6 -6 19 -11.5t27.5 -10t28 -7.5t20.5 -3l-6 -21h-299l6 21q8 0 22 3t29 6.5t28 8t21 9.5
q20 13 37 45t33 92l94 353q2 6 3 15.5t1 18.5q0 16 -4.5 30.5t-14.5 24.5q-14 14 -38 23t-63 11l7 22h206l231 -538l92 352q6 23 11 49.5t5 43.5q0 31 -14 42q-6 5 -18.5 10t-26.5 9.5t-27 7.5t-22 3l6 21h297zM715 871q-9 -17 -24 -39t-33 -41t-39.5 -32t-43.5 -13
q-23 0 -40.5 9t-32.5 20t-29.5 20t-32.5 9q-34 0 -55.5 -20.5t-42.5 -52.5l-18 9q9 17 24 39t33 41t39 32t44 13t40.5 -9t32.5 -20t29.5 -20t32.5 -9q34 0 55.5 20.5t42.5 52.5l18 -9v0z" />
    <glyph glyph-name="Ograve" unicode="&#xd2;" horiz-adv-x="720" 
d="M604 451q0 45 -8.5 84.5t-27.5 69t-50 46.5t-76 17q-61 0 -111.5 -34t-84.5 -88q-39 -63 -63 -145t-24 -171q0 -47 9.5 -86.5t29 -68t50.5 -45t74 -16.5q57 0 103 27.5t81 76.5q22 31 40.5 70.5t31 82.5t19.5 89t7 91zM711 430q0 -48 -9 -96t-27 -93.5t-46 -86.5t-67 -74
q-54 -46 -116 -71t-135 -25q-63 0 -111.5 23.5t-86.5 70.5q-29 35 -45 79.5t-16 99.5q0 91 36 180t108 157q55 51 119.5 77.5t133.5 26.5q67 0 117.5 -24.5t95.5 -79.5q24 -31 36.5 -73t12.5 -91zM474 716q-24 25 -40.5 42t-28.5 29l-21.5 21.5t-19.5 18.5q-30 28 -30 57
q0 16 10 27t27 11q20 0 31.5 -13t22.5 -38q6 -15 12 -29t13.5 -30.5t16.5 -37t22 -48.5z" />
    <glyph glyph-name="Oacute" unicode="&#xd3;" horiz-adv-x="720" 
d="M604 451q0 45 -8.5 84.5t-27.5 69t-50 46.5t-76 17q-61 0 -111.5 -34t-84.5 -88q-39 -63 -63 -145t-24 -171q0 -47 9.5 -86.5t29 -68t50.5 -45t74 -16.5q57 0 103 27.5t81 76.5q22 31 40.5 70.5t31 82.5t19.5 89t7 91zM711 430q0 -48 -9 -96t-27 -93.5t-46 -86.5t-67 -74
q-54 -46 -116 -71t-135 -25q-63 0 -111.5 23.5t-86.5 70.5q-29 35 -45 79.5t-16 99.5q0 91 36 180t108 157q55 51 119.5 77.5t133.5 26.5q67 0 117.5 -24.5t95.5 -79.5q24 -31 36.5 -73t12.5 -91zM635 890q0 -20 -15 -35.5t-37 -30.5q-14 -9 -30 -18.5t-36 -22t-46.5 -29
t-62.5 -39.5l-11 12q25 28 44 50t34 39t27.5 31.5t24.5 29.5q19 23 36.5 34t37.5 11q17 0 25.5 -10t8.5 -22z" />
    <glyph glyph-name="Ocircumflex" unicode="&#xd4;" horiz-adv-x="720" 
d="M604 451q0 45 -8.5 84.5t-27.5 69t-50 46.5t-76 17q-61 0 -111.5 -34t-84.5 -88q-39 -63 -63 -145t-24 -171q0 -47 9.5 -86.5t29 -68t50.5 -45t74 -16.5q57 0 103 27.5t81 76.5q22 31 40.5 70.5t31 82.5t19.5 89t7 91zM711 430q0 -48 -9 -96t-27 -93.5t-46 -86.5t-67 -74
q-54 -46 -116 -71t-135 -25q-63 0 -111.5 23.5t-86.5 70.5q-29 35 -45 79.5t-16 99.5q0 91 36 180t108 157q55 51 119.5 77.5t133.5 26.5q67 0 117.5 -24.5t95.5 -79.5q24 -31 36.5 -73t12.5 -91zM600 721l-105 135l-183 -135l-11 10q54 58 92.5 100t64.5 71q13 14 20.5 18
t29.5 4q19 0 24.5 -3.5t10.5 -16.5q12 -27 29.5 -71.5t42.5 -103.5z" />
    <glyph glyph-name="Otilde" unicode="&#xd5;" horiz-adv-x="720" 
d="M604 451q0 45 -8.5 84.5t-27.5 69t-50 46.5t-76 17q-61 0 -111.5 -34t-84.5 -88q-39 -63 -63 -145t-24 -171q0 -47 9.5 -86.5t29 -68t50.5 -45t74 -16.5q57 0 103 27.5t81 76.5q22 31 40.5 70.5t31 82.5t19.5 89t7 91zM711 430q0 -48 -9 -96t-27 -93.5t-46 -86.5t-67 -74
q-54 -46 -116 -71t-135 -25q-63 0 -111.5 23.5t-86.5 70.5q-29 35 -45 79.5t-16 99.5q0 91 36 180t108 157q55 51 119.5 77.5t133.5 26.5q67 0 117.5 -24.5t95.5 -79.5q24 -31 36.5 -73t12.5 -91zM689 876q-9 -17 -24 -39t-33 -41t-39.5 -32t-43.5 -13q-23 0 -40.5 9
t-32.5 20t-29.5 20t-32.5 9q-34 0 -55.5 -20.5t-42.5 -52.5l-18 9q9 17 24 39t33 41t39 32t44 13t40.5 -9t32.5 -20t29.5 -20t32.5 -9q34 0 55.5 20.5t42.5 52.5l18 -9v0z" />
    <glyph glyph-name="Odieresis" unicode="&#xd6;" horiz-adv-x="720" 
d="M604 451q0 45 -8.5 84.5t-27.5 69t-50 46.5t-76 17q-61 0 -111.5 -34t-84.5 -88q-39 -63 -63 -145t-24 -171q0 -47 9.5 -86.5t29 -68t50.5 -45t74 -16.5q57 0 103 27.5t81 76.5q22 31 40.5 70.5t31 82.5t19.5 89t7 91zM711 430q0 -48 -9 -96t-27 -93.5t-46 -86.5t-67 -74
q-54 -46 -116 -71t-135 -25q-63 0 -111.5 23.5t-86.5 70.5q-29 35 -45 79.5t-16 99.5q0 91 36 180t108 157q55 51 119.5 77.5t133.5 26.5q67 0 117.5 -24.5t95.5 -79.5q24 -31 36.5 -73t12.5 -91zM433 810q0 -25 -17 -43t-43 -18q-23 0 -40 17t-17 40q0 24 17 41.5t40 17.5
q26 0 43 -16.5t17 -38.5zM650 810q0 -25 -17 -43t-42 -18q-24 0 -41 17t-17 40q0 24 17 41.5t41 17.5q26 0 42.5 -16.5t16.5 -38.5z" />
    <glyph glyph-name="Oslash" unicode="&#xd8;" horiz-adv-x="720" 
d="M605 451q0 23 -2 46.5t-7 43.5l-427 -408q15 -56 52.5 -87.5t100.5 -31.5q57 0 103 27.5t81 76.5q22 31 40.5 70.5t31.5 82.5t20 89t7 91zM588 570q-17 46 -52 72t-94 26q-61 0 -111.5 -34t-84.5 -88q-39 -63 -63.5 -145t-24.5 -171q0 -17 1 -34.5t3 -31.5l426 406v0z
M659 597q25 -29 38.5 -72.5t13.5 -94.5q0 -48 -9 -96t-27 -93.5t-46 -86.5t-67 -74q-54 -46 -116 -71t-135 -25q-64 0 -114 25t-87 72l-127 -119l-19 18l130 123q-20 32 -31 70.5t-11 83.5q0 91 36 180t108 157q55 51 119.5 77.5t133.5 26.5q60 0 106 -19t86 -61l112 105
l20 -19z" />
    <glyph glyph-name="Ugrave" unicode="&#xd9;" horiz-adv-x="791" 
d="M878 662q-7 0 -20 -2.5t-28 -6t-29 -8t-22 -8.5q-26 -14 -40.5 -50t-28.5 -83l-78 -273q-35 -118 -108.5 -182.5t-201.5 -64.5q-108 0 -158 41.5t-50 116.5q0 21 3 45t11 50l99 357q2 7 3 12.5t1 10.5q0 17 -20 27q-5 2 -14 5t-19 5.5t-19 4.5t-15 2l6 22h306l-6 -22
q-7 0 -17.5 -1.5t-21.5 -3t-21.5 -3.5t-17.5 -4q-20 -6 -29.5 -20t-14.5 -30l-95 -342q-19 -66 -19 -117q0 -54 32 -83.5t111 -29.5q96 0 154 54.5t87 153.5l75 263q8 28 12 51.5t4 40.5q0 31 -14 42q-6 5 -18.5 10t-26.5 9.5t-27 7.5t-22 3l6 21h297zM515 716
q-24 25 -40.5 42t-28.5 29l-21.5 21.5t-19.5 18.5q-30 28 -30 57q0 16 10 27t27 11q20 0 31.5 -13t22.5 -38q6 -15 12 -29t13.5 -30.5t16.5 -37t22 -48.5z" />
    <glyph glyph-name="Uacute" unicode="&#xda;" horiz-adv-x="791" 
d="M878 662q-7 0 -20 -2.5t-28 -6t-29 -8t-22 -8.5q-26 -14 -40.5 -50t-28.5 -83l-78 -273q-35 -118 -108.5 -182.5t-201.5 -64.5q-108 0 -158 41.5t-50 116.5q0 21 3 45t11 50l99 357q2 7 3 12.5t1 10.5q0 17 -20 27q-5 2 -14 5t-19 5.5t-19 4.5t-15 2l6 22h306l-6 -22
q-7 0 -17.5 -1.5t-21.5 -3t-21.5 -3.5t-17.5 -4q-20 -6 -29.5 -20t-14.5 -30l-95 -342q-19 -66 -19 -117q0 -54 32 -83.5t111 -29.5q96 0 154 54.5t87 153.5l75 263q8 28 12 51.5t4 40.5q0 31 -14 42q-6 5 -18.5 10t-26.5 9.5t-27 7.5t-22 3l6 21h297zM715 890
q0 -20 -15 -35.5t-37 -30.5q-14 -9 -30 -18.5t-36 -22t-46.5 -29t-62.5 -39.5l-11 12q25 28 44 50t34 39t27.5 31.5t24.5 29.5q19 23 36.5 34t37.5 11q17 0 25.5 -10t8.5 -22z" />
    <glyph glyph-name="Ucircumflex" unicode="&#xdb;" horiz-adv-x="791" 
d="M878 662q-7 0 -20 -2.5t-28 -6t-29 -8t-22 -8.5q-26 -14 -40.5 -50t-28.5 -83l-78 -273q-35 -118 -108.5 -182.5t-201.5 -64.5q-108 0 -158 41.5t-50 116.5q0 21 3 45t11 50l99 357q2 7 3 12.5t1 10.5q0 17 -20 27q-5 2 -14 5t-19 5.5t-19 4.5t-15 2l6 22h306l-6 -22
q-7 0 -17.5 -1.5t-21.5 -3t-21.5 -3.5t-17.5 -4q-20 -6 -29.5 -20t-14.5 -30l-95 -342q-19 -66 -19 -117q0 -54 32 -83.5t111 -29.5q96 0 154 54.5t87 153.5l75 263q8 28 12 51.5t4 40.5q0 31 -14 42q-6 5 -18.5 10t-26.5 9.5t-27 7.5t-22 3l6 21h297zM671 721l-105 135
l-183 -135l-11 10q54 58 92.5 100t64.5 71q13 14 20.5 18t29.5 4q19 0 24.5 -3.5t10.5 -16.5q12 -27 29.5 -71.5t42.5 -103.5z" />
    <glyph glyph-name="Udieresis" unicode="&#xdc;" horiz-adv-x="791" 
d="M878 662q-7 0 -20 -2.5t-28 -6t-29 -8t-22 -8.5q-26 -14 -40.5 -50t-28.5 -83l-78 -273q-35 -118 -108.5 -182.5t-201.5 -64.5q-108 0 -158 41.5t-50 116.5q0 21 3 45t11 50l99 357q2 7 3 12.5t1 10.5q0 17 -20 27q-5 2 -14 5t-19 5.5t-19 4.5t-15 2l6 22h306l-6 -22
q-7 0 -17.5 -1.5t-21.5 -3t-21.5 -3.5t-17.5 -4q-20 -6 -29.5 -20t-14.5 -30l-95 -342q-19 -66 -19 -117q0 -54 32 -83.5t111 -29.5q96 0 154 54.5t87 153.5l75 263q8 28 12 51.5t4 40.5q0 31 -14 42q-6 5 -18.5 10t-26.5 9.5t-27 7.5t-22 3l6 21h297zM495 810
q0 -25 -17 -43t-43 -18q-23 0 -40 17t-17 40q0 24 17 41.5t40 17.5q26 0 43 -16.5t17 -38.5zM712 810q0 -25 -17 -43t-42 -18q-24 0 -41 17t-17 40q0 24 17 41.5t41 17.5q26 0 42.5 -16.5t16.5 -38.5z" />
    <glyph glyph-name="Yacute" unicode="&#xdd;" horiz-adv-x="628" 
d="M735 638q0 -35 -16 -50.5t-42 -15.5q-15 0 -24.5 5t-15.5 12.5t-8.5 15t-2.5 13.5q0 13 4.5 20t9.5 15l-4 5q-15 -4 -33.5 -16t-38.5 -30t-40.5 -41.5t-39.5 -50.5q-11 -16 -24.5 -38t-27 -49t-25.5 -57.5t-20 -62.5l-57 -229q-3 -12 -3 -20q1 -19 23 -29q4 -2 14 -4.5
t22.5 -4.5t24.5 -3.5t19 -1.5l-5 -21h-313l5 21q6 0 16 1t20.5 2.5t20 3t15.5 3.5q20 7 29 21.5t12 27.5l60 245q8 33 9 72t1 64q0 33 -5.5 64t-19.5 55t-37.5 39t-59.5 15q-35 0 -61 -23.5t-43 -76.5l-22 7q52 154 174 154q38 0 68 -17.5t51 -45t32 -63t11 -71.5
q0 -26 -2 -46t-7 -50h9q30 76 64.5 131.5t71.5 91.5t73.5 53.5t70.5 17.5q36 0 51.5 -20t15.5 -38zM645 890q0 -20 -15 -35.5t-37 -30.5q-14 -9 -30 -18.5t-36 -22t-46.5 -29t-62.5 -39.5l-11 12q25 28 44 50t34 39t27.5 31.5t24.5 29.5q19 23 36.5 34t37.5 11
q17 0 25.5 -10t8.5 -22z" />
    <glyph glyph-name="Thorn" unicode="&#xde;" horiz-adv-x="598" 
d="M483 379q0 57 -29.5 92.5t-100.5 35.5h-45l-86 -312h48q103 0 158 50t55 134zM589 388q0 -53 -24 -94t-67.5 -70t-104 -44t-133.5 -15h-47l-23 -82q-3 -11 -3 -19q0 -11 5 -17t16 -11q4 -2 12.5 -4.5t18.5 -4.5t20.5 -4t17.5 -2l-5 -21h-305l5 21q6 0 16.5 1t21.5 2.5
t21 3t16 3.5q20 7 29 20t14 29l143 514q2 7 3 12.5t1 10.5q0 17 -20 27q-5 2 -14 5t-19 5.5t-19 4.5t-15 2l6 22h302l-5 -21q-6 0 -16.5 -1t-21.5 -2.5t-21 -3t-16 -3.5q-20 -7 -29 -20t-14 -29l-19 -68h76q94 0 145.5 -38.5t51.5 -108.5z" />
    <glyph glyph-name="germandbls" unicode="&#xdf;" horiz-adv-x="546" 
d="M570 628q0 -32 -7.5 -63t-21.5 -55q-26 -8 -49 -18t-40.5 -22.5t-28 -27.5t-10.5 -32q0 -44 16.5 -76t34.5 -60q18 -27 32.5 -53t14.5 -58q0 -47 -17.5 -80.5t-43 -55t-55 -31.5t-53.5 -10q-29 0 -50.5 9t-35.5 22.5t-21 30t-7 31.5q0 26 15 46t41 20q19 0 35 -9t16 -33
q0 -21 -8.5 -29t-18 -10.5t-18 -4.5t-8.5 -11q0 -11 6.5 -19t16.5 -13.5t21.5 -8.5t22.5 -3q38 0 60 25t22 73q0 41 -14 69t-31 54t-32.5 52.5t-15.5 61.5q0 25 9 47t23 40t32 31.5t35 22.5q26 20 45 56.5t19 79.5q0 49 -22 78t-66 29q-48 0 -85 -52.5t-67 -155.5
q-14 -49 -29.5 -109.5t-32 -125.5t-34 -130.5t-35.5 -125.5q-18 -58 -45.5 -111t-73.5 -91q-39 -33 -71 -45.5t-69 -12.5q-30 0 -49 7t-30 18t-15.5 25.5t-4.5 29.5q0 17 13 34.5t39 17.5q8 0 17.5 -2.5t17.5 -8t13.5 -15t5.5 -22.5q0 -16 -6 -25t-15 -22q2 -11 7.5 -14.5
t10.5 -3.5q28 0 50 12.5t41 39t36 66.5t34 95q18 60 33.5 118.5t30 118t30 121.5t34.5 131q9 34 20 62.5t25 52.5t32 45.5t41 42.5q35 32 74 43.5t74 11.5q31 0 57 -9t44.5 -25t28.5 -36.5t10 -44.5z" />
    <glyph glyph-name="agrave" unicode="&#xe0;" horiz-adv-x="549" 
d="M382 351q-9 46 -28.5 67.5t-55.5 21.5q-26 0 -49.5 -15t-43.5 -40.5t-36 -58.5t-27.5 -68t-18 -70t-6.5 -65q0 -35 5.5 -55t14 -31t18.5 -14t20 -3q43 0 75.5 29.5t55.5 68.5l76 233v0zM541 140q-14 -33 -28 -61t-30.5 -48t-37 -31t-47.5 -11q-45 0 -69.5 21t-24.5 72
l-4 1q-29 -42 -63 -69.5t-77 -27.5q-25 0 -49.5 7t-44 25t-31.5 48.5t-12 77.5q0 39 18 93t53.5 104t87 85t119.5 35q32 0 57.5 -17.5t32.5 -55.5h3l23 67h90l-113 -327q-8 -21 -12 -43t-4 -31q0 -25 10 -32.5t24 -7.5q35 0 59.5 34t49.5 98l20 -6v0zM342 525
q-24 25 -40.5 42t-28.5 29l-21.5 21.5t-19.5 18.5q-30 28 -30 57q0 16 10 27t27 11q20 0 31.5 -13t22.5 -38q6 -15 12 -29t13.5 -30.5t16.5 -37t22 -48.5z" />
    <glyph glyph-name="aacute" unicode="&#xe1;" horiz-adv-x="549" 
d="M382 351q-9 46 -28.5 67.5t-55.5 21.5q-26 0 -49.5 -15t-43.5 -40.5t-36 -58.5t-27.5 -68t-18 -70t-6.5 -65q0 -35 5.5 -55t14 -31t18.5 -14t20 -3q43 0 75.5 29.5t55.5 68.5l76 233v0zM541 140q-14 -33 -28 -61t-30.5 -48t-37 -31t-47.5 -11q-45 0 -69.5 21t-24.5 72
l-4 1q-29 -42 -63 -69.5t-77 -27.5q-25 0 -49.5 7t-44 25t-31.5 48.5t-12 77.5q0 39 18 93t53.5 104t87 85t119.5 35q32 0 57.5 -17.5t32.5 -55.5h3l23 67h90l-113 -327q-8 -21 -12 -43t-4 -31q0 -25 10 -32.5t24 -7.5q35 0 59.5 34t49.5 98l20 -6v0zM510 699
q0 -20 -15 -35.5t-37 -30.5q-14 -9 -30 -18.5t-36 -22t-46.5 -29t-62.5 -39.5l-11 12q25 28 44 50t34 39t27.5 31.5t24.5 29.5q19 23 36.5 34t37.5 11q17 0 25.5 -10t8.5 -22z" />
    <glyph glyph-name="acircumflex" unicode="&#xe2;" horiz-adv-x="549" 
d="M382 351q-9 46 -28.5 67.5t-55.5 21.5q-26 0 -49.5 -15t-43.5 -40.5t-36 -58.5t-27.5 -68t-18 -70t-6.5 -65q0 -35 5.5 -55t14 -31t18.5 -14t20 -3q43 0 75.5 29.5t55.5 68.5l76 233v0zM541 140q-14 -33 -28 -61t-30.5 -48t-37 -31t-47.5 -11q-45 0 -69.5 21t-24.5 72
l-4 1q-29 -42 -63 -69.5t-77 -27.5q-25 0 -49.5 7t-44 25t-31.5 48.5t-12 77.5q0 39 18 93t53.5 104t87 85t119.5 35q32 0 57.5 -17.5t32.5 -55.5h3l23 67h90l-113 -327q-8 -21 -12 -43t-4 -31q0 -25 10 -32.5t24 -7.5q35 0 59.5 34t49.5 98l20 -6v0zM476 530l-105 135
l-183 -135l-11 10q54 58 92.5 100t64.5 71q13 14 20.5 18t29.5 4q19 0 24.5 -3.5t10.5 -16.5q12 -27 29.5 -71.5t42.5 -103.5z" />
    <glyph glyph-name="atilde" unicode="&#xe3;" horiz-adv-x="549" 
d="M382 351q-9 46 -28.5 67.5t-55.5 21.5q-26 0 -49.5 -15t-43.5 -40.5t-36 -58.5t-27.5 -68t-18 -70t-6.5 -65q0 -35 5.5 -55t14 -31t18.5 -14t20 -3q43 0 75.5 29.5t55.5 68.5l76 233v0zM541 140q-14 -33 -28 -61t-30.5 -48t-37 -31t-47.5 -11q-45 0 -69.5 21t-24.5 72
l-4 1q-29 -42 -63 -69.5t-77 -27.5q-25 0 -49.5 7t-44 25t-31.5 48.5t-12 77.5q0 39 18 93t53.5 104t87 85t119.5 35q32 0 57.5 -17.5t32.5 -55.5h3l23 67h90l-113 -327q-8 -21 -12 -43t-4 -31q0 -25 10 -32.5t24 -7.5q35 0 59.5 34t49.5 98l20 -6v0zM550 690
q-9 -17 -24 -39t-33 -41t-39.5 -32t-43.5 -13q-23 0 -40.5 9t-32.5 20t-29.5 20t-32.5 9q-34 0 -55.5 -20.5t-42.5 -52.5l-18 9q9 17 24 39t33 41t39 32t44 13t40.5 -9t32.5 -20t29.5 -20t32.5 -9q34 0 55.5 20.5t42.5 52.5l18 -9v0z" />
    <glyph glyph-name="adieresis" unicode="&#xe4;" horiz-adv-x="549" 
d="M382 351q-9 46 -28.5 67.5t-55.5 21.5q-26 0 -49.5 -15t-43.5 -40.5t-36 -58.5t-27.5 -68t-18 -70t-6.5 -65q0 -35 5.5 -55t14 -31t18.5 -14t20 -3q43 0 75.5 29.5t55.5 68.5l76 233v0zM541 140q-14 -33 -28 -61t-30.5 -48t-37 -31t-47.5 -11q-45 0 -69.5 21t-24.5 72
l-4 1q-29 -42 -63 -69.5t-77 -27.5q-25 0 -49.5 7t-44 25t-31.5 48.5t-12 77.5q0 39 18 93t53.5 104t87 85t119.5 35q32 0 57.5 -17.5t32.5 -55.5h3l23 67h90l-113 -327q-8 -21 -12 -43t-4 -31q0 -25 10 -32.5t24 -7.5q35 0 59.5 34t49.5 98l20 -6v0zM310 649q0 -25 -17 -43
t-43 -18q-23 0 -40 17t-17 40q0 24 17 41.5t40 17.5q26 0 43 -16.5t17 -38.5zM527 649q0 -25 -17 -43t-42 -18q-24 0 -41 17t-17 40q0 24 17 41.5t41 17.5q26 0 42.5 -16.5t16.5 -38.5z" />
    <glyph glyph-name="aring" unicode="&#xe5;" horiz-adv-x="549" 
d="M382 351q-9 46 -28.5 67.5t-55.5 21.5q-26 0 -49.5 -15t-43.5 -40.5t-36 -58.5t-27.5 -68t-18 -70t-6.5 -65q0 -35 5.5 -55t14 -31t18.5 -14t20 -3q43 0 75.5 29.5t55.5 68.5l76 233v0zM541 140q-14 -33 -28 -61t-30.5 -48t-37 -31t-47.5 -11q-45 0 -69.5 21t-24.5 72
l-4 1q-29 -42 -63 -69.5t-77 -27.5q-25 0 -49.5 7t-44 25t-31.5 48.5t-12 77.5q0 39 18 93t53.5 104t87 85t119.5 35q32 0 57.5 -17.5t32.5 -55.5h3l23 67h90l-113 -327q-8 -21 -12 -43t-4 -31q0 -25 10 -32.5t24 -7.5q35 0 59.5 34t49.5 98l20 -6v0zM413 638q0 30 -16 48
t-42 18q-29 0 -46.5 -25t-17.5 -59q0 -30 16 -48t42 -18q15 0 27 7.5t20.5 19.5t12.5 27t4 30zM457 629q0 -21 -7.5 -39t-21 -31.5t-32.5 -21t-41 -7.5q-46 0 -77 27t-31 71q0 41 28.5 70.5t75.5 29.5q22 0 41.5 -7.5t34 -21t22.5 -31.5t8 -39z" />
    <glyph glyph-name="ae" unicode="&#xe6;" horiz-adv-x="695" 
d="M382 351q-9 46 -28.5 67.5t-55.5 21.5q-26 0 -49.5 -15t-43.5 -40.5t-36 -58.5t-27.5 -68t-18 -70t-6.5 -65q0 -35 5.5 -55t14 -31t18.5 -14t20 -3q43 0 75.5 29.5t55.5 68.5l76 233v0zM622 388q0 24 -10 38.5t-34 14.5q-22 0 -43.5 -18t-40.5 -47.5t-34.5 -66.5
t-25.5 -74q53 9 89 28t58 41t31.5 44.5t9.5 39.5zM691 394q0 -41 -27 -72t-67 -53t-85.5 -35.5t-82.5 -19.5q-5 -25 -10 -49t-5 -45q0 -51 17.5 -76t56.5 -25q27 0 50 10t43 28t37 42.5t32 53.5l18 -9q-23 -44 -47.5 -74.5t-49 -49t-49.5 -26.5t-49 -8t-47.5 5.5t-44 19
t-35.5 37t-21 58.5h-3q-31 -52 -70.5 -86t-91.5 -34q-25 0 -49.5 7t-44 25t-31.5 48.5t-12 77.5q0 39 18 93t53.5 104t87 85t119.5 35q32 0 57.5 -17.5t32.5 -55.5h3l23 67h55l-26 -74q34 35 72 57.5t88 22.5q34 0 59.5 -16.5t25.5 -50.5z" />
    <glyph glyph-name="ccedilla" unicode="&#xe7;" horiz-adv-x="397" 
d="M394 371q0 -26 -12.5 -46.5t-38.5 -20.5q-17 0 -35 10.5t-18 34.5q0 16 14 31.5t37 27.5q-4 20 -17.5 28t-40.5 8q-22 0 -42.5 -15.5t-39 -41t-34 -59t-26.5 -69t-17.5 -71t-6.5 -65.5q0 -51 16.5 -77.5t55.5 -26.5q55 0 94 38.5t70 95.5l20 -9q-24 -44 -49 -74.5
t-50.5 -49t-50.5 -26.5t-50 -8h-8l-13 -41q23 0 43 -3t34.5 -10.5t22.5 -20t8 -31.5q0 -29 -17.5 -49.5t-49 -33t-75 -18.5t-95.5 -6l6 23q72 2 112 14.5t40 43.5q0 20 -18.5 27t-57.5 7l33 101q-22 4 -43 13.5t-37 28t-25.5 46t-9.5 67.5q0 39 18.5 93t53 104t84.5 85
t113 35q24 0 43 -8t32 -20.5t20 -29t7 -32.5z" />
    <glyph glyph-name="egrave" unicode="&#xe8;" horiz-adv-x="398" 
d="M325 388q0 24 -10 38.5t-34 14.5q-22 0 -43.5 -18t-40.5 -47.5t-34.5 -66.5t-25.5 -74q53 9 89 28t58 41t31.5 44.5t9.5 39.5zM394 394q0 -41 -27 -72t-67 -53t-85.5 -35.5t-82.5 -19.5q-5 -25 -10 -49t-5 -45q0 -51 17.5 -76t56.5 -25q27 0 50 10t43 28t37 42.5t32 53.5
l18 -9q-23 -44 -47.5 -74.5t-49 -49t-49.5 -26.5t-49 -8q-27 0 -54 7t-49 25t-36 49t-14 79q0 26 8 59t24.5 68t40.5 69t56 60.5t71 42.5t86 16q34 0 59.5 -16.5t25.5 -50.5zM298 525q-24 25 -40.5 42t-28.5 29l-21.5 21.5t-19.5 18.5q-30 28 -30 57q0 16 10 27t27 11
q20 0 31.5 -13t22.5 -38q6 -15 12 -29t13.5 -30.5t16.5 -37t22 -48.5z" />
    <glyph glyph-name="eacute" unicode="&#xe9;" horiz-adv-x="398" 
d="M325 388q0 24 -10 38.5t-34 14.5q-22 0 -43.5 -18t-40.5 -47.5t-34.5 -66.5t-25.5 -74q53 9 89 28t58 41t31.5 44.5t9.5 39.5zM394 394q0 -41 -27 -72t-67 -53t-85.5 -35.5t-82.5 -19.5q-5 -25 -10 -49t-5 -45q0 -51 17.5 -76t56.5 -25q27 0 50 10t43 28t37 42.5t32 53.5
l18 -9q-23 -44 -47.5 -74.5t-49 -49t-49.5 -26.5t-49 -8q-27 0 -54 7t-49 25t-36 49t-14 79q0 26 8 59t24.5 68t40.5 69t56 60.5t71 42.5t86 16q34 0 59.5 -16.5t25.5 -50.5zM471 699q0 -20 -15 -35.5t-37 -30.5q-14 -9 -30 -18.5t-36 -22t-46.5 -29t-62.5 -39.5l-11 12
q25 28 44 50t34 39t27.5 31.5t24.5 29.5q19 23 36.5 34t37.5 11q17 0 25.5 -10t8.5 -22z" />
    <glyph glyph-name="ecircumflex" unicode="&#xea;" horiz-adv-x="398" 
d="M325 388q0 24 -10 38.5t-34 14.5q-22 0 -43.5 -18t-40.5 -47.5t-34.5 -66.5t-25.5 -74q53 9 89 28t58 41t31.5 44.5t9.5 39.5zM394 394q0 -41 -27 -72t-67 -53t-85.5 -35.5t-82.5 -19.5q-5 -25 -10 -49t-5 -45q0 -51 17.5 -76t56.5 -25q27 0 50 10t43 28t37 42.5t32 53.5
l18 -9q-23 -44 -47.5 -74.5t-49 -49t-49.5 -26.5t-49 -8q-27 0 -54 7t-49 25t-36 49t-14 79q0 26 8 59t24.5 68t40.5 69t56 60.5t71 42.5t86 16q34 0 59.5 -16.5t25.5 -50.5zM432 516l-105 135l-183 -135l-11 10q54 58 92.5 100t64.5 71q13 14 20.5 18t29.5 4
q19 0 24.5 -3.5t10.5 -16.5q12 -27 29.5 -71.5t42.5 -103.5z" />
    <glyph glyph-name="edieresis" unicode="&#xeb;" horiz-adv-x="398" 
d="M325 388q0 24 -10 38.5t-34 14.5q-22 0 -43.5 -18t-40.5 -47.5t-34.5 -66.5t-25.5 -74q53 9 89 28t58 41t31.5 44.5t9.5 39.5zM394 394q0 -41 -27 -72t-67 -53t-85.5 -35.5t-82.5 -19.5q-5 -25 -10 -49t-5 -45q0 -51 17.5 -76t56.5 -25q27 0 50 10t43 28t37 42.5t32 53.5
l18 -9q-23 -44 -47.5 -74.5t-49 -49t-49.5 -26.5t-49 -8q-27 0 -54 7t-49 25t-36 49t-14 79q0 26 8 59t24.5 68t40.5 69t56 60.5t71 42.5t86 16q34 0 59.5 -16.5t25.5 -50.5zM260 649q0 -25 -17 -43t-43 -18q-23 0 -40 17t-17 40q0 24 17 41.5t40 17.5q26 0 43 -16.5
t17 -38.5zM477 649q0 -25 -17 -43t-42 -18q-24 0 -41 17t-17 40q0 24 17 41.5t41 17.5q26 0 42.5 -16.5t16.5 -38.5z" />
    <glyph glyph-name="igrave" unicode="&#xec;" horiz-adv-x="334" 
d="M315 140q-14 -33 -28 -61t-30.5 -48t-37 -31t-46.5 -11q-16 0 -34.5 3.5t-34 12.5t-25.5 24t-10 38q0 18 5 37.5t15 45.5l67 170q8 21 15.5 45.5t7.5 33.5q0 22 -9.5 30t-23.5 8q-35 0 -59 -35.5t-49 -99.5l-19 7q13 33 27 61t30.5 48t37 31.5t47.5 11.5q16 0 33.5 -5
t32.5 -15.5t24.5 -26.5t9.5 -38q0 -9 -3 -21.5t-8 -26.5t-10.5 -28t-9.5 -25l-57 -147q-11 -26 -17 -47t-6 -32q0 -24 11 -29.5t25 -5.5q36 0 61 34t50 98l18 -6v0zM241 525q-24 25 -40.5 42t-28.5 29l-21.5 21.5t-19.5 18.5q-30 28 -30 57q0 16 10 27t27 11q20 0 31.5 -13
t22.5 -38q6 -15 12 -29t13.5 -30.5t16.5 -37t22 -48.5z" />
    <glyph glyph-name="iacute" unicode="&#xed;" horiz-adv-x="334" 
d="M315 140q-14 -33 -28 -61t-30.5 -48t-37 -31t-46.5 -11q-16 0 -34.5 3.5t-34 12.5t-25.5 24t-10 38q0 18 5 37.5t15 45.5l67 170q8 21 15.5 45.5t7.5 33.5q0 22 -9.5 30t-23.5 8q-35 0 -59 -35.5t-49 -99.5l-19 7q13 33 27 61t30.5 48t37 31.5t47.5 11.5q16 0 33.5 -5
t32.5 -15.5t24.5 -26.5t9.5 -38q0 -9 -3 -21.5t-8 -26.5t-10.5 -28t-9.5 -25l-57 -147q-11 -26 -17 -47t-6 -32q0 -24 11 -29.5t25 -5.5q36 0 61 34t50 98l18 -6v0zM392 699q0 -20 -15 -35.5t-37 -30.5q-14 -9 -30 -18.5t-36 -22t-46.5 -29t-62.5 -39.5l-11 12q25 28 44 50
t34 39t27.5 31.5t24.5 29.5q19 23 36.5 34t37.5 11q17 0 25.5 -10t8.5 -22z" />
    <glyph glyph-name="icircumflex" unicode="&#xee;" horiz-adv-x="334" 
d="M315 140q-14 -33 -28 -61t-30.5 -48t-37 -31t-46.5 -11q-16 0 -34.5 3.5t-34 12.5t-25.5 24t-10 38q0 18 5 37.5t15 45.5l67 170q8 21 15.5 45.5t7.5 33.5q0 22 -9.5 30t-23.5 8q-35 0 -59 -35.5t-49 -99.5l-19 7q13 33 27 61t30.5 48t37 31.5t47.5 11.5q16 0 33.5 -5
t32.5 -15.5t24.5 -26.5t9.5 -38q0 -9 -3 -21.5t-8 -26.5t-10.5 -28t-9.5 -25l-57 -147q-11 -26 -17 -47t-6 -32q0 -24 11 -29.5t25 -5.5q36 0 61 34t50 98l18 -6v0zM332 529l-85 134l-153 -133l-13 10q52 60 83 101t55 70q6 7 10 11.5t8 7t10 3t17 0.5t16.5 -0.5t8 -3
t4 -6.5t3.5 -10q10 -28 20.5 -71t32.5 -105z" />
    <glyph glyph-name="idieresis" unicode="&#xef;" horiz-adv-x="334" 
d="M315 140q-14 -33 -28 -61t-30.5 -48t-37 -31t-46.5 -11q-16 0 -34.5 3.5t-34 12.5t-25.5 24t-10 38q0 18 5 37.5t15 45.5l67 170q8 21 15.5 45.5t7.5 33.5q0 22 -9.5 30t-23.5 8q-35 0 -59 -35.5t-49 -99.5l-19 7q13 33 27 61t30.5 48t37 31.5t47.5 11.5q16 0 33.5 -5
t32.5 -15.5t24.5 -26.5t9.5 -38q0 -9 -3 -21.5t-8 -26.5t-10.5 -28t-9.5 -25l-57 -147q-11 -26 -17 -47t-6 -32q0 -24 11 -29.5t25 -5.5q36 0 61 34t50 98l18 -6v0zM209 649q0 -25 -16.5 -43t-42.5 -18q-23 0 -39.5 17t-16.5 40q0 24 16.5 41.5t39.5 17.5q26 0 42.5 -16.5
t16.5 -38.5zM396 649q0 -25 -16.5 -42.5t-41.5 -17.5q-24 0 -40.5 16.5t-16.5 39.5q0 24 16.5 41.5t40.5 17.5q26 0 42 -16.5t16 -38.5z" />
    <glyph glyph-name="eth" unicode="&#xf0;" horiz-adv-x="481" 
d="M362 307q0 69 -21.5 103t-48.5 34q-39 0 -71 -30.5t-54 -76t-34 -98.5t-12 -97q0 -69 20 -103t49 -34q42 0 74 30.5t54 76t33 98t11 97.5zM401 661q42 -50 61 -109t19 -129q0 -90 -21.5 -169.5t-61 -139t-96.5 -94t-127 -34.5q-26 0 -52 10t-47.5 31t-35 54t-13.5 80
q0 42 18.5 94t53.5 98t85 77t113 31q29 0 51.5 -12.5t37.5 -35.5h4q3 27 3 55q0 44 -7.5 85.5t-26.5 78.5l-117 -79l-14 21l119 81q-27 45 -69 76l17 18q26 -16 48 -32.5t41 -36.5l103 71l13 -23z" />
    <glyph glyph-name="ntilde" unicode="&#xf1;" horiz-adv-x="599" 
d="M587 140q-14 -33 -28 -61t-30.5 -48t-37 -31t-47.5 -11q-16 0 -34.5 3.5t-34.5 12.5t-27 24t-11 38q0 18 6 37.5t16 45.5l59 156q7 18 13 39.5t6 35.5q0 16 -4 25.5t-11 14.5t-15.5 6.5t-18.5 1.5q-20 0 -40.5 -10t-39.5 -27t-35.5 -39.5t-29.5 -47.5l-101 -305h-90
l108 320q3 9 6.5 21t6 24t4.5 21.5t2 14.5q0 21 -7 28.5t-21 7.5q-35 0 -59 -35.5t-49 -99.5l-20 7q13 33 27 61t30.5 48t37 31.5t47.5 11.5q16 0 32.5 -3.5t29.5 -13.5t21.5 -28t8.5 -46l4 -1q26 36 62 64t80 28q25 0 46 -9t36.5 -24.5t24 -36t8.5 -42.5q0 -11 -6 -33.5
t-13 -40.5l-56 -147q-10 -26 -16 -46.5t-6 -31.5q0 -24 11.5 -30t25.5 -6q35 0 60 34t50 98l19 -6v0zM583 690q-9 -17 -24 -39t-33 -41t-39.5 -32t-43.5 -13q-23 0 -40.5 9t-32.5 20t-29.5 20t-32.5 9q-34 0 -55.5 -20.5t-42.5 -52.5l-18 9q9 17 24 39t33 41t39 32t44 13
t40.5 -9t32.5 -20t29.5 -20t32.5 -9q34 0 55.5 20.5t42.5 52.5l18 -9v0z" />
    <glyph glyph-name="ograve" unicode="&#xf2;" horiz-adv-x="481" 
d="M361 307q0 69 -21 103t-48 34q-39 0 -71 -30.5t-54 -76t-34 -98.5t-12 -97q0 -69 20 -103t49 -34q42 0 74 30.5t53.5 76t32.5 98t11 97.5zM455 285q0 -40 -17.5 -92t-52 -98t-87.5 -77.5t-123 -31.5q-26 0 -52 10t-47.5 31t-35 54t-13.5 80q0 40 17.5 92t52.5 98t87.5 78
t122.5 32q25 0 51.5 -10t48 -31t35 -54.5t13.5 -80.5zM331 525q-24 25 -40.5 42t-28.5 29l-21.5 21.5t-19.5 18.5q-30 28 -30 57q0 16 10 27t27 11q20 0 31.5 -13t22.5 -38q6 -15 12 -29t13.5 -30.5t16.5 -37t22 -48.5z" />
    <glyph glyph-name="oacute" unicode="&#xf3;" horiz-adv-x="481" 
d="M361 307q0 69 -21 103t-48 34q-39 0 -71 -30.5t-54 -76t-34 -98.5t-12 -97q0 -69 20 -103t49 -34q42 0 74 30.5t53.5 76t32.5 98t11 97.5zM455 285q0 -40 -17.5 -92t-52 -98t-87.5 -77.5t-123 -31.5q-26 0 -52 10t-47.5 31t-35 54t-13.5 80q0 40 17.5 92t52.5 98t87.5 78
t122.5 32q25 0 51.5 -10t48 -31t35 -54.5t13.5 -80.5zM478 699q0 -20 -15 -35.5t-37 -30.5q-14 -9 -30 -18.5t-36 -22t-46.5 -29t-62.5 -39.5l-11 12q25 28 44 50t34 39t27.5 31.5t24.5 29.5q19 23 36.5 34t37.5 11q17 0 25.5 -10t8.5 -22z" />
    <glyph glyph-name="ocircumflex" unicode="&#xf4;" horiz-adv-x="481" 
d="M361 307q0 69 -21 103t-48 34q-39 0 -71 -30.5t-54 -76t-34 -98.5t-12 -97q0 -69 20 -103t49 -34q42 0 74 30.5t53.5 76t32.5 98t11 97.5zM455 285q0 -40 -17.5 -92t-52 -98t-87.5 -77.5t-123 -31.5q-26 0 -52 10t-47.5 31t-35 54t-13.5 80q0 40 17.5 92t52.5 98t87.5 78
t122.5 32q25 0 51.5 -10t48 -31t35 -54.5t13.5 -80.5zM453 530l-105 135l-183 -135l-11 10q54 58 92.5 100t64.5 71q13 14 20.5 18t29.5 4q19 0 24.5 -3.5t10.5 -16.5q12 -27 29.5 -71.5t42.5 -103.5z" />
    <glyph glyph-name="otilde" unicode="&#xf5;" horiz-adv-x="481" 
d="M361 307q0 69 -21 103t-48 34q-39 0 -71 -30.5t-54 -76t-34 -98.5t-12 -97q0 -69 20 -103t49 -34q42 0 74 30.5t53.5 76t32.5 98t11 97.5zM455 285q0 -40 -17.5 -92t-52 -98t-87.5 -77.5t-123 -31.5q-26 0 -52 10t-47.5 31t-35 54t-13.5 80q0 40 17.5 92t52.5 98t87.5 78
t122.5 32q25 0 51.5 -10t48 -31t35 -54.5t13.5 -80.5zM522 690q-9 -17 -24 -39t-33 -41t-39.5 -32t-43.5 -13q-23 0 -40.5 9t-32.5 20t-29.5 20t-32.5 9q-34 0 -55.5 -20.5t-42.5 -52.5l-18 9q9 17 24 39t33 41t39 32t44 13t40.5 -9t32.5 -20t29.5 -20t32.5 -9
q34 0 55.5 20.5t42.5 52.5l18 -9v0z" />
    <glyph glyph-name="odieresis" unicode="&#xf6;" horiz-adv-x="481" 
d="M361 307q0 69 -21 103t-48 34q-39 0 -71 -30.5t-54 -76t-34 -98.5t-12 -97q0 -69 20 -103t49 -34q42 0 74 30.5t53.5 76t32.5 98t11 97.5zM455 285q0 -40 -17.5 -92t-52 -98t-87.5 -77.5t-123 -31.5q-26 0 -52 10t-47.5 31t-35 54t-13.5 80q0 40 17.5 92t52.5 98t87.5 78
t122.5 32q25 0 51.5 -10t48 -31t35 -54.5t13.5 -80.5zM289 649q0 -25 -17 -43t-43 -18q-23 0 -40 17t-17 40q0 24 17 41.5t40 17.5q26 0 43 -16.5t17 -38.5zM506 649q0 -25 -17 -43t-42 -18q-24 0 -41 17t-17 40q0 24 17 41.5t41 17.5q26 0 42.5 -16.5t16.5 -38.5z" />
    <glyph glyph-name="oslash" unicode="&#xf8;" horiz-adv-x="481" 
d="M362 307v15q0 9 -1 15l-239 -241q6 -48 25 -69.5t43 -21.5q42 0 74 30.5t54 76t33 98t11 97.5zM357 365q-8 42 -26 60.5t-39 18.5q-39 0 -71 -30.5t-54.5 -76t-34.5 -98.5t-12 -97v-17l237 240v0zM425 397q14 -20 22 -48t8 -64q0 -40 -17.5 -92t-52 -98t-87.5 -77.5
t-123 -31.5q-29 0 -59 13t-53 41l-76 -76l-18 15l81 80q-11 20 -17 45t-6 57q0 40 17.5 92t52.5 98t87.5 78t122.5 32q27 0 54.5 -11t48.5 -35l76 75l18 -15z" />
    <glyph glyph-name="ugrave" unicode="&#xf9;" horiz-adv-x="593" 
d="M582 140q-14 -33 -28 -61t-30.5 -48t-37 -31t-47.5 -11q-42 0 -68.5 20t-26.5 73l-4 1q-13 -19 -29.5 -36t-35.5 -30.5t-39.5 -21.5t-41.5 -8q-25 0 -46.5 9t-37 24.5t-24 36t-8.5 42.5q0 11 6 32.5t14 41.5l57 147q11 26 16 47.5t5 33.5q0 22 -8 29t-22 7
q-35 0 -59 -35.5t-49 -99.5l-18 7q13 33 26.5 60.5t30 47.5t36.5 31t47 11q16 0 33.5 -4.5t32.5 -13.5t24.5 -24t9.5 -36q0 -18 -5.5 -37.5t-15.5 -45.5l-61 -156q-8 -20 -13.5 -39t-5.5 -33q0 -32 14.5 -41.5t34.5 -9.5q21 0 41 9t38 24t33.5 34t27.5 40l101 320h92
l-105 -318q-2 -8 -5 -18.5t-5.5 -21t-4 -19.5t-1.5 -13q0 -25 9.5 -33.5t23.5 -8.5q35 0 59.5 34t49.5 98l20 -6v0zM344 525q-24 25 -40.5 42t-28.5 29l-21.5 21.5t-19.5 18.5q-30 28 -30 57q0 16 10 27t27 11q20 0 31.5 -13t22.5 -38q6 -15 12 -29t13.5 -30.5t16.5 -37
t22 -48.5z" />
    <glyph glyph-name="uacute" unicode="&#xfa;" horiz-adv-x="593" 
d="M582 140q-14 -33 -28 -61t-30.5 -48t-37 -31t-47.5 -11q-42 0 -68.5 20t-26.5 73l-4 1q-13 -19 -29.5 -36t-35.5 -30.5t-39.5 -21.5t-41.5 -8q-25 0 -46.5 9t-37 24.5t-24 36t-8.5 42.5q0 11 6 32.5t14 41.5l57 147q11 26 16 47.5t5 33.5q0 22 -8 29t-22 7
q-35 0 -59 -35.5t-49 -99.5l-18 7q13 33 26.5 60.5t30 47.5t36.5 31t47 11q16 0 33.5 -4.5t32.5 -13.5t24.5 -24t9.5 -36q0 -18 -5.5 -37.5t-15.5 -45.5l-61 -156q-8 -20 -13.5 -39t-5.5 -33q0 -32 14.5 -41.5t34.5 -9.5q21 0 41 9t38 24t33.5 34t27.5 40l101 320h92
l-105 -318q-2 -8 -5 -18.5t-5.5 -21t-4 -19.5t-1.5 -13q0 -25 9.5 -33.5t23.5 -8.5q35 0 59.5 34t49.5 98l20 -6v0zM563 699q0 -20 -15 -35.5t-37 -30.5q-14 -9 -30 -18.5t-36 -22t-46.5 -29t-62.5 -39.5l-11 12q25 28 44 50t34 39t27.5 31.5t24.5 29.5q19 23 36.5 34
t37.5 11q17 0 25.5 -10t8.5 -22z" />
    <glyph glyph-name="ucircumflex" unicode="&#xfb;" horiz-adv-x="593" 
d="M582 140q-14 -33 -28 -61t-30.5 -48t-37 -31t-47.5 -11q-42 0 -68.5 20t-26.5 73l-4 1q-13 -19 -29.5 -36t-35.5 -30.5t-39.5 -21.5t-41.5 -8q-25 0 -46.5 9t-37 24.5t-24 36t-8.5 42.5q0 11 6 32.5t14 41.5l57 147q11 26 16 47.5t5 33.5q0 22 -8 29t-22 7
q-35 0 -59 -35.5t-49 -99.5l-18 7q13 33 26.5 60.5t30 47.5t36.5 31t47 11q16 0 33.5 -4.5t32.5 -13.5t24.5 -24t9.5 -36q0 -18 -5.5 -37.5t-15.5 -45.5l-61 -156q-8 -20 -13.5 -39t-5.5 -33q0 -32 14.5 -41.5t34.5 -9.5q21 0 41 9t38 24t33.5 34t27.5 40l101 320h92
l-105 -318q-2 -8 -5 -18.5t-5.5 -21t-4 -19.5t-1.5 -13q0 -25 9.5 -33.5t23.5 -8.5q35 0 59.5 34t49.5 98l20 -6v0zM499 530l-105 135l-183 -135l-11 10q54 58 92.5 100t64.5 71q13 14 20.5 18t29.5 4q19 0 24.5 -3.5t10.5 -16.5q12 -27 29.5 -71.5t42.5 -103.5z" />
    <glyph glyph-name="udieresis" unicode="&#xfc;" horiz-adv-x="593" 
d="M582 140q-14 -33 -28 -61t-30.5 -48t-37 -31t-47.5 -11q-42 0 -68.5 20t-26.5 73l-4 1q-13 -19 -29.5 -36t-35.5 -30.5t-39.5 -21.5t-41.5 -8q-25 0 -46.5 9t-37 24.5t-24 36t-8.5 42.5q0 11 6 32.5t14 41.5l57 147q11 26 16 47.5t5 33.5q0 22 -8 29t-22 7
q-35 0 -59 -35.5t-49 -99.5l-18 7q13 33 26.5 60.5t30 47.5t36.5 31t47 11q16 0 33.5 -4.5t32.5 -13.5t24.5 -24t9.5 -36q0 -18 -5.5 -37.5t-15.5 -45.5l-61 -156q-8 -20 -13.5 -39t-5.5 -33q0 -32 14.5 -41.5t34.5 -9.5q21 0 41 9t38 24t33.5 34t27.5 40l101 320h92
l-105 -318q-2 -8 -5 -18.5t-5.5 -21t-4 -19.5t-1.5 -13q0 -25 9.5 -33.5t23.5 -8.5q35 0 59.5 34t49.5 98l20 -6v0zM337 649q0 -25 -17 -43t-43 -18q-23 0 -40 17t-17 40q0 24 17 41.5t40 17.5q26 0 43 -16.5t17 -38.5zM554 649q0 -25 -17 -43t-42 -18q-24 0 -41 17t-17 40
q0 24 17 41.5t41 17.5q26 0 42.5 -16.5t16.5 -38.5z" />
    <glyph glyph-name="yacute" unicode="&#xfd;" horiz-adv-x="538" 
d="M435 106q-29 -92 -67 -157.5t-82.5 -107t-95 -61t-102.5 -19.5q-44 0 -70 10.5t-39.5 25.5t-18 31t-4.5 27q0 20 6 33t15.5 21t21 11.5t23.5 3.5q23 0 34.5 -15.5t11.5 -26.5q0 -29 -9 -38.5t-20 -11.5t-21 -3t-13 -14q1 -14 10 -21.5t21 -10.5t24 -3h22q36 0 71 17
t68.5 52.5t63.5 91t55 132.5l-4 1q-26 -34 -62.5 -60t-79.5 -26q-25 0 -46.5 9t-37 24.5t-24 36t-8.5 42.5q0 11 6 33t14 42l57 145q11 26 16.5 48.5t5.5 34.5q0 22 -7.5 28t-21.5 6q-35 0 -59.5 -35.5t-49.5 -99.5l-18 7q13 33 26.5 61t30 48t37 31.5t47.5 11.5
q16 0 33.5 -4.5t32 -13.5t24 -24t9.5 -36q0 -18 -6 -38.5t-16 -46.5l-62 -154q-8 -20 -13.5 -39.5t-5.5 -33.5q0 -32 15 -41t35 -9q21 0 41 8t38 21t33.5 30t27.5 34l103 332h89zM555 699q0 -20 -15 -35.5t-37 -30.5q-14 -9 -30 -18.5t-36 -22t-46.5 -29t-62.5 -39.5l-11 12
q25 28 44 50t34 39t27.5 31.5t24.5 29.5q19 23 36.5 34t37.5 11q17 0 25.5 -10t8.5 -22z" />
    <glyph glyph-name="thorn" unicode="&#xfe;" horiz-adv-x="510" 
d="M395 324q0 34 -6.5 54.5t-16.5 31.5t-21.5 14t-21.5 3q-23 0 -42.5 -8t-36 -20.5t-31 -29t-26.5 -34.5l-77 -247q6 -42 31 -60.5t59 -18.5q39 0 73.5 32.5t60 80.5t40.5 103t15 99zM489 304q0 -26 -8.5 -59.5t-25.5 -69t-41.5 -69t-56.5 -60t-70.5 -43t-83.5 -16.5
q-38 0 -63.5 18.5t-32.5 45.5h-4l-49 -162q-14 -48 -14 -67q0 -17 12 -23.5t29 -8.5q19 -2 28 -2.5l27 -1.5v-20h-282v19q35 0 50.5 5.5t24.5 16.5q14 16 23 41t15 43l223 718q6 19 10.5 38t4.5 29q0 17 -11.5 23.5t-28.5 8.5q-19 2 -30.5 2.5t-29.5 1.5v20l218 10
l-116 -359l3 -1q11 13 25 27t31.5 25.5t37 19t40.5 7.5q25 0 51 -7t47 -24.5t34 -48t13 -77.5z" />
    <glyph glyph-name="ydieresis" unicode="&#xff;" horiz-adv-x="538" 
d="M435 106q-29 -92 -67 -157.5t-82.5 -107t-95 -61t-102.5 -19.5q-44 0 -70 10.5t-39.5 25.5t-18 31t-4.5 27q0 20 6 33t15.5 21t21 11.5t23.5 3.5q23 0 34.5 -15.5t11.5 -26.5q0 -29 -9 -38.5t-20 -11.5t-21 -3t-13 -14q1 -14 10 -21.5t21 -10.5t24 -3h22q36 0 71 17
t68.5 52.5t63.5 91t55 132.5l-4 1q-26 -34 -62.5 -60t-79.5 -26q-25 0 -46.5 9t-37 24.5t-24 36t-8.5 42.5q0 11 6 33t14 42l57 145q11 26 16.5 48.5t5.5 34.5q0 22 -7.5 28t-21.5 6q-35 0 -59.5 -35.5t-49.5 -99.5l-18 7q13 33 26.5 61t30 48t37 31.5t47.5 11.5
q16 0 33.5 -4.5t32 -13.5t24 -24t9.5 -36q0 -18 -6 -38.5t-16 -46.5l-62 -154q-8 -20 -13.5 -39.5t-5.5 -33.5q0 -32 15 -41t35 -9q21 0 41 8t38 21t33.5 30t27.5 34l103 332h89zM337 649q0 -25 -17 -43t-43 -18q-23 0 -40 17t-17 40q0 24 17 41.5t40 17.5q26 0 43 -16.5
t17 -38.5zM554 649q0 -25 -17 -43t-42 -18q-24 0 -41 17t-17 40q0 24 17 41.5t41 17.5q26 0 42.5 -16.5t16.5 -38.5z" />
    <glyph glyph-name="notequal" horiz-adv-x="605" 
d="M522 601q-17 2 -33 11t-16 38q0 11 1.5 21.5t2.5 26.5q-5 11 -12 13.5t-16 2.5q-27 0 -52 -11t-48.5 -36t-43.5 -64t-36 -95l-18 -63h211l11 40q17 62 49 116zM834 658q0 -6 -3 -15t-9.5 -16.5t-16 -13t-22.5 -5.5q-8 0 -17.5 2t-18 7.5t-14.5 14t-6 20.5q0 11 6.5 24.5
t8.5 29.5q-4 11 -9 14t-13 3q-48 0 -84 -50t-67 -158l-20 -70h126l-11 -33h-124q-12 -46 -25 -97t-26.5 -102t-26.5 -99.5t-26 -89.5q-18 -58 -46.5 -111t-74.5 -91q-39 -33 -66.5 -45.5t-59.5 -12.5q-30 0 -49 7t-30.5 18t-16 25.5t-4.5 29.5q0 17 12.5 34.5t38.5 17.5
q8 0 17.5 -2.5t17.5 -8t13.5 -15t5.5 -22.5q0 -16 -6 -25t-15 -22q2 -11 8.5 -14.5t11.5 -3.5q25 0 45 12t37.5 37.5t33.5 66t34 97.5q37 121 63.5 230.5t46.5 188.5h-210q-12 -46 -25 -97.5t-26.5 -103t-27 -100.5t-26.5 -90q-18 -58 -46.5 -111t-74.5 -91
q-39 -33 -71 -45.5t-69 -12.5q-30 0 -49.5 7t-31 18t-16 25.5t-4.5 29.5q0 17 13 34.5t39 17.5q8 0 17.5 -2.5t17.5 -8t13.5 -15t5.5 -22.5q0 -16 -6 -25t-15 -22q2 -11 8.5 -14.5t11.5 -3.5q55 0 92 51.5t71 161.5q37 121 63.5 229t46.5 187h-106l10 33h106l10 33
q18 60 49.5 109.5t83.5 91.5q39 32 77.5 43.5t77.5 11.5q27 0 45.5 -6.5t30.5 -16.5t18 -23.5t9 -26.5q11 13 26 27q35 32 70.5 43.5t70.5 11.5q26 0 45 -7.5t32 -19.5t19 -27.5t6 -30.5z" />
    <glyph glyph-name="infinity" horiz-adv-x="877" 
d="M528 601q-29 2 -42 14t-13 36q0 11 1.5 23t2.5 24q-5 11 -12 13.5t-16 2.5q-27 0 -52 -11t-48.5 -36t-43.5 -64t-36 -95l-18 -63h211l12 40q9 31 22.5 60.5t31.5 55.5zM867 656q0 -6 -3 -15.5t-10 -18.5t-17 -15.5t-25 -6.5q-8 0 -18 2.5t-19 8.5t-15 15t-6 23
q0 11 9.5 26.5t11.5 31.5q-5 11 -12 13.5t-16 2.5q-54 0 -100 -48t-78 -160l-20 -70h272q-1 -11 -5 -29t-10.5 -40.5t-15 -48.5t-18.5 -52l-56 -147q-11 -26 -17 -46.5t-6 -31.5q0 -24 11.5 -30t25.5 -6q36 0 61 34t50 98l18 -6q-14 -33 -28 -61t-30.5 -48t-37 -31
t-46.5 -11q-16 0 -34.5 3.5t-34 12.5t-26 24t-10.5 38q0 18 5 37.5t15 45.5l63 170q11 29 17 49.5t8 45.5h-180q-12 -46 -25 -97.5t-26.5 -103t-26.5 -100.5t-26 -90q-18 -58 -46.5 -111t-74.5 -91q-39 -33 -67 -45.5t-59 -12.5q-30 0 -49 7t-30 18t-15.5 25t-4.5 29
q0 19 13 36t38 17q8 0 17.5 -2.5t18 -8t14 -15t5.5 -23.5q0 -11 -6 -22t-15 -24q2 -10 7.5 -14t10.5 -4q25 0 45 12t37.5 38t34 66t33.5 97q37 121 63.5 230.5t46.5 188.5h-210q-12 -46 -25 -97.5t-26.5 -103t-27 -100.5t-26.5 -90q-18 -58 -46.5 -111t-74.5 -91
q-39 -33 -71 -45.5t-69 -12.5q-30 0 -49.5 7t-31 18t-16 25.5t-4.5 29.5q0 17 13 34.5t39 17.5q8 0 17.5 -2.5t17.5 -8t13.5 -15t5.5 -22.5q0 -16 -6 -25t-15 -22q2 -11 8.5 -14.5t11.5 -3.5q55 0 92 51.5t71 161.5q37 121 63.5 229t46.5 187h-106l10 33h106l10 33
q18 60 49.5 109.5t83.5 91.5q39 32 77.5 43.5t77.5 11.5q30 0 49.5 -7.5t31 -19.5t17 -27t6.5 -30q9 11 19 20t21 18q39 32 77 43.5t77 11.5q28 0 48.5 -8t33.5 -20.5t19 -28t6 -30.5z" />
    <glyph glyph-name="summation" horiz-adv-x="580" 
d="M722 666q0 -23 -13 -35t-35 -17.5t-50 -6.5t-58 -1q-15 0 -42 3t-59 6l-151 -531q-3 -11 -3 -20q0 -19 21 -29q4 -2 14 -4.5t22.5 -4.5t24.5 -3.5t19 -1.5l-5 -21h-313l5 21q6 0 16 1t20.5 2.5t20 3t15.5 3.5q20 7 29 20.5t14 28.5l153 544q-18 2 -39.5 3t-29.5 1
q-37 0 -78 -4.5t-75.5 -18.5t-57 -40t-22.5 -70q0 -20 7 -34.5t24 -24.5q11 14 23 20t25 6q12 0 20.5 -5t13 -12t6.5 -14.5t2 -12.5q0 -23 -14.5 -37.5t-40.5 -14.5q-10 0 -25.5 4t-30 16.5t-25 35t-10.5 60.5q0 43 15.5 81t49 66.5t85.5 45t124 16.5q52 0 94 -9t77 -20.5
t64 -20.5t56 -9q19 0 28.5 7t14 16.5t5 20.5t0.5 19q11 5 20 6t16 1q21 0 27 -12t6 -24z" />
    <glyph glyph-name="integral" horiz-adv-x="635" 
d="M425 573q-34 -45 -75 -111t-91 -162h166v273zM597 0h-293l5 21q16 1 36 4t38 9.5t30 18t12 29.5v188h-182q-31 -62 -59.5 -113t-57.5 -88t-61 -57.5t-69 -20.5q-23 0 -39 7t-26 17.5t-14.5 22.5t-4.5 22q0 36 22.5 53.5t46.5 17.5t35.5 -17t11.5 -29q0 -23 -10.5 -36
t-26.5 -18q0 -5 1.5 -10.5t6.5 -8.5q39 5 69 34.5t56 72t51 93t52 98.5q37 66 70.5 121.5t65 103t62 86.5t62.5 71h35v-604q0 -15 4 -26.5t18 -22.5q9 -8 27 -12.5t32 -5.5z" />
    <glyph glyph-name="nonbreakingspace" horiz-adv-x="114" 
 />
    <glyph glyph-name="lozenge" horiz-adv-x="635" 
d="M765 627q0 -37 -21 -55t-45 -18t-36.5 16t-12.5 28q0 23 10.5 37t26.5 19q0 12 -8 17q-38 -3 -68.5 -32t-57.5 -72t-52 -94.5t-52 -99.5q-37 -66 -70 -121.5t-64.5 -103t-62 -86.5t-61.5 -71h-35v604q0 14 -4.5 26.5t-17.5 22.5q-10 8 -28 12.5t-32 5.5l6 21h293l-5 -21
q-16 -1 -36 -4t-37.5 -9.5t-29.5 -18t-12 -29.5v-490q34 45 74.5 110.5t90.5 161.5q40 79 72.5 137.5t62 96.5t60 56.5t68.5 18.5q23 0 39 -6.5t26 -16.5t14.5 -21.5t4.5 -20.5z" />
    </font>
</defs>
</svg>
